<?xml version="1.0" encoding="UTF-8"?>
<svg width="678px" height="347px" viewBox="0 0 678 347" version="1.1" xmlns="http://www.w3.org/2000/svg" xmlns:xlink="http://www.w3.org/1999/xlink">
    <!-- Generator: Sketch Beta 43.2 (39056) - http://www.bohemiancoding.com/sketch -->
    <title>beach</title>
    <desc>Created with Sketch Beta.</desc>
    <defs></defs>
    <g id="web" stroke="none" stroke-width="1" fill="none" fill-rule="evenodd">
        <g id="1420/content-copy-3" transform="translate(0.000000, -398.000000)" fill-rule="nonzero" fill="#F5F5F8">
            <g id="Shape" transform="translate(0.000000, 393.000000)">
                <g id="beach" transform="translate(-28.000000, 0.000000)">
                    <path d="M271,182.875498 C271,150.863681 245.049128,125.272563 213.397065,125.272563 C188.928266,125.272563 168.230629,140.313456 159.565291,161.774354 C147.128791,157.644133 133.974173,155.35435 120.414658,155.35435 C54.1908325,155.398799 0,209.589631 0,275.813456 C0,342.037282 54.1908325,396.272563 120.459106,396.272563 C186.72738,396.272563 240.918212,342.08173 240.918212,275.813456 C240.918212,269.393453 240.559153,263.017897 239.391691,256.597199 C254.073525,232.531908 271,200.924293 271,182.875498 Z M15.0408938,275.813456 C15.0408938,251.703717 23.3020302,229.524007 36.8608504,211.430764 C40.2278104,226.875165 50.7787297,240.793739 65.1015054,247.169294 C65.1015054,247.169294 70.3547408,249.413934 71.1180018,250.177195 C71.8812627,251.299515 71.4770608,254.711618 71.4770608,256.597199 C71.1180018,259.246041 71.1180018,263.017203 69.5914799,264.499276 C69.2324208,264.858335 65.820318,267.507177 65.057057,267.866236 C56.0326597,275.768314 54.1470787,290.090395 60.5226342,299.878053 C65.7758697,307.421071 74.8447154,311.910351 87.6402746,313.436873 C91.0072346,313.795932 98.9544548,314.200134 99.3135139,316.803833 C99.3135139,317.567094 95.1832929,322.057069 95.1832929,322.057069 C89.5265501,328.477073 88.4035356,335.211687 91.8163329,340.869124 C94.0609729,344.999345 98.2363367,346.525867 100.84073,347.648882 C100.84073,347.648882 109.865128,350.656783 113.995349,363.812096 C115.88093,369.065331 116.239989,375.126276 116.644191,380.73857 C60.2073289,379.346088 15.0408938,332.653131 15.0408938,275.813456 Z M105.777966,333.775451 C106.137025,333.416392 114.802363,325.110113 114.802363,318.33105 C115.161422,299.878053 95.2270467,298.755733 91.0968258,298.396674 C91.0968258,298.396674 77.1789465,297.633413 73.4070901,291.257858 C71.1624501,287.486696 71.8805682,281.829258 74.933612,279.225559 C75.2926711,278.8665 79.4680348,275.858599 80.9501084,274.332077 C85.4845312,269.078842 86.2033439,262.299779 86.6068513,257.764662 C86.9659103,253.634441 87.3701122,246.854683 83.2398912,241.197246 C80.2319903,236.303764 71.2075929,233.295169 71.2075929,233.295169 C57.2897136,227.278672 48.6243753,211.07101 50.8690153,196.38987 L50.8690153,196.38987 C69.322012,180.226656 93.7908105,170.438998 120.145884,170.438998 C130.292602,170.438998 140.484462,171.96552 149.867918,174.973421 C143.447915,184.40202 133.704705,191.540836 122.390524,194.907796 C115.970521,197.152436 113.725186,202.809874 116.374028,207.703356 C123.917046,223.866569 143.851422,228.400992 153.63908,230.645632 C156.646981,231.408893 160.418838,232.172154 161.900217,234.012592 C163.426739,235.539114 161.900217,238.906074 160.014636,241.91467 C156.243474,248.334673 139.316999,246.449092 133.300503,256.236751 C130.292602,261.130233 131.773981,269.391369 131.773981,270.15463 C131.414922,270.513689 124.994224,273.162531 124.635165,279.942288 C123.871904,292.737848 137.071665,299.158546 137.430724,299.876664 C137.789783,300.639925 135.186084,310.023381 137.071665,316.039878 C138.957246,322.459882 144.614683,327.354058 152.112558,329.194496 C155.88372,329.957757 164.908118,330.721018 166.030438,330.721018 C178.466938,331.843338 190.140177,339.386356 196.156674,349.937276 C179.589258,366.86375 157.365099,378.177931 132.537242,380.78163 C132.178183,373.642813 131.414922,366.86375 129.170282,359.724934 C121.177919,337.950815 106.137025,333.775451 105.777966,333.775451 Z M213.397065,140.313456 C237.102602,140.313456 255.914658,159.529714 255.914658,182.83105 C255.914658,200.879844 229.200525,245.328161 213.397065,269.392758 C197.59291,245.283019 170.879471,200.87915 170.879471,182.83105 C170.519718,159.52902 189.690833,140.313456 213.397065,140.313456 Z M156.556696,190.777575 C158.083218,199.038712 162.213439,208.82637 167.107615,219.377289 C163.740655,217.491708 159.968799,216.728448 156.960898,216.010329 C147.9365,214.124748 139.271162,211.475907 134.018621,206.58173 C142.279757,202.809874 149.822081,197.557333 156.556696,190.777575 Z M166.748556,315.367597 C165.222034,315.367597 157.319957,315.008538 155.075317,314.245277 C152.830677,313.482016 151.304155,312.359696 150.945096,311.596435 C150.586037,310.833174 152.830677,299.923196 150.945096,293.9067 C148.700456,287.890203 140.798378,283.35578 140.035117,282.592519 C140.035117,282.592519 149.059515,279.943677 146.051614,263.780464 C146.814875,264.139523 164.50461,259.650243 170.520412,252.466283 C173.887372,248.695122 176.177155,243.800945 176.940416,238.548404 C189.735975,261.894883 204.41781,283.35578 207.425711,287.082494 C210.433612,291.616917 217.213369,290.853656 219.862211,287.082494 C220.984531,285.555972 223.229171,282.548071 226.282215,277.653895 C225.923156,299.878053 218.380138,320.57569 206.347839,337.502164 C196.47059,325.155255 182.192957,316.489917 166.748556,315.367597 Z M213.397065,149.741361 C194.944068,149.741361 180.262928,164.782255 180.262928,182.875498 C180.262928,201.328495 195.303822,216.009635 213.397065,216.009635 C231.850061,216.009635 246.531201,200.968741 246.531201,182.875498 C246.531201,164.782255 231.490308,149.741361 213.397065,149.741361 Z M213.397065,200.924293 C203.609406,200.924293 195.34827,192.663156 195.34827,182.875498 C195.34827,173.08784 203.609406,164.826703 213.397065,164.826703 C223.184723,164.826703 231.445859,173.08784 231.445859,182.875498 C231.445859,192.663156 223.184723,200.924293 213.397065,200.924293 Z" id="Shape"></path>
                    <path d="M714.582529,152.200811 C709.72179,155.749837 702.931675,155.093981 698.726196,150.889098 C693.865457,146.028359 694.212184,138.582388 698.726196,133.759843 C704.242791,127.934117 696.797417,118.559366 689.659978,124.693625 C684.799239,129.554363 677.044734,129.554363 672.530722,124.693625 C667.669983,119.832886 668.01671,112.078381 672.530722,107.564369 C678.047318,101.738644 670.254619,92.3638925 663.464504,98.498151 C658.603765,103.35889 650.849261,103.35889 646.335249,98.498151 C642.130366,94.2932687 641.47451,87.8116867 645.023535,82.641818 C649.537548,75.5431699 640.162796,68.7530549 634.992928,74.5399898 L612.038543,101.70045 L615.934893,56.7554742 C616.243426,48.3451129 604.939895,47.3807232 603.010519,55.1352279 C602.046129,61.6168099 597.184794,65.8216921 591.051132,65.8216921 C584.261017,65.8216921 579.091745,60.3050967 579.091745,53.5149816 C579.091745,45.4131534 566.785035,44.1402306 566.167372,53.5149816 C566.167372,60.3050967 560.650776,65.8216921 554.207985,65.8216921 C547.41787,65.8216921 542.248598,60.3050967 542.248598,53.5149816 C542.248598,45.4131534 529.941887,44.1402306 529.324224,53.5149816 C529.324224,60.3050967 523.807629,65.8216921 517.364837,65.8216921 C510.922046,65.8216921 505.945532,61.6168099 504.980546,55.4825514 C503.051767,47.0715933 491.709446,49.0009695 492.056769,57.102201 L505.945532,220.447495 C507.257246,234.027725 513.700037,245.678579 523.074788,253.780407 C525.350891,257.985289 528.244657,261.882235 531.793683,265.739794 C549.578795,283.524907 577.703048,284.83662 597.108407,268.32443 L722.260049,162.578146 C728.818616,156.714824 721.372644,147.995929 714.582529,152.200811 Z M554.478324,265.045744 C579.709408,264.737211 600.079156,245.640385 602.355259,220.409301 L605.595752,183.527363 C605.904285,183.21883 606.560142,182.871507 606.907465,182.562974 L649.267805,136.962141 C651.543908,134.377505 651.543908,130.172026 648.959272,127.895924 C646.374636,125.619821 642.169157,125.619821 639.893054,128.204457 L606.907465,163.118825 L610.147958,124.308107 L631.482096,99.0770235 C632.793809,102.317516 634.722588,105.211282 637.307821,107.795918 C642.47769,112.965787 649.614532,115.550423 656.404647,114.894566 C656.096114,121.684681 658.333426,128.783329 663.503295,133.991392 C668.673163,139.16126 675.810005,141.745896 682.60012,141.09004 C682.291587,147.880155 684.5289,154.978803 689.698768,160.186865 C692.283404,162.771501 695.215364,164.700877 698.417663,166.012591 L589.083562,258.256226 C579.052955,267.013314 565.781855,268.942093 554.478324,265.045744 Z M518.560776,219.444912 L506.600792,76.8166894 C509.841285,78.1284026 513.082374,79.0927923 516.6314,79.0927923 C524.077371,79.0927923 530.520163,75.8522998 535.072369,70.682431 C539.586381,75.8522998 546.375899,79.0927923 553.513338,79.0927923 C560.959309,79.0927923 567.402101,75.8522998 571.954307,70.682431 C576.468319,75.8522998 583.257837,79.0927923 590.395276,79.0927923 C593.944301,79.0927923 597.493924,78.4369357 600.425883,76.8166894 L588.427706,219.444912 C586.807459,238.194414 571.606983,252.121967 553.166014,252.121967 C534.725045,252.121967 520.181022,238.233204 518.560776,219.444912 Z M554.169194,169.6386 C537.657005,169.6386 524.077371,186.459323 524.077371,206.829071 C524.077371,227.19882 537.657602,244.019542 554.169194,244.019542 C570.680787,244.019542 584.261017,227.19882 584.261017,206.829071 C584.261017,186.459323 570.642593,169.6386 554.169194,169.6386 Z M537.001745,206.829071 C537.001745,193.557971 544.75625,182.562377 554.131001,182.562377 C563.505752,182.562377 571.260256,193.557374 571.260256,206.829071 C571.260256,220.100768 563.505752,231.095766 554.131001,231.095766 C544.75625,231.095766 537.001745,220.100768 537.001745,206.829071 Z M567.402101,160.263849 C567.402101,160.263849 561.267842,160.263849 560.959309,153.473734 L563.543945,91.3607124 C563.852478,87.81109 566.785035,85.226454 570.33406,85.226454 C573.883683,85.5349871 576.468319,88.4675434 576.468319,92.016569 L573.883683,154.129591 C573.883683,157.679213 570.951127,160.263849 567.402101,160.263849 Z M541.862484,160.263849 C541.862484,160.263849 535.728225,160.611173 535.072369,154.130188 L532.487733,92.0171658 C532.140409,88.4675434 535.072966,85.2270508 538.621991,85.2270508 C542.171614,84.8797273 545.412106,87.8122835 545.412106,91.3613092 L547.996742,153.473734 C548.344066,157.023357 545.411509,160.263849 541.862484,160.263849 Z M661.227192,149.616176 C663.812425,146.992749 668.017307,147.340073 670.29341,149.924709 C672.878046,152.509345 672.569513,156.714824 669.984877,158.990927 L624.384044,201.351266 C621.799408,203.627369 617.902462,203.627369 615.317826,201.042733 C615.317826,201.042733 611.112347,196.528721 615.62636,191.667982 L661.227192,149.616176 Z" id="Shape" transform="translate(608.423765, 163.443831) rotate(38.000000) translate(-608.423765, -163.443831) "></path>
                </g>
            </g>
        </g>
    </g>
</svg>