<?xml version="1.0" encoding="UTF-8"?>
<svg width="197px" height="146px" viewBox="0 0 197 146" version="1.1" xmlns="http://www.w3.org/2000/svg" xmlns:xlink="http://www.w3.org/1999/xlink">
    <!-- Generator: Sketch Beta 43.2 (39056) - http://www.bohemiancoding.com/sketch -->
    <title>card</title>
    <desc>Created with Sketch Beta.</desc>
    <defs></defs>
    <g id="Page-1" stroke="none" stroke-width="1" fill="none" fill-rule="evenodd">
        <g id="card">
            <path d="M54.397729,145.991977 L189.994788,145.991977 C193.739324,145.991977 196.774583,142.956717 196.774583,139.212181 L196.774583,57.8538694 C196.774583,54.1093333 193.739324,51.0740741 189.994788,51.0740741 L54.397729,51.0740741 C50.653193,51.0740741 47.6179337,54.1093333 47.6179337,57.8538694 L47.6179337,139.212181 C47.6179337,142.956333 50.653193,145.991977 54.397729,145.991977 Z" id="Shape" fill="#F0F0F0" fill-rule="nonzero"></path>
            <g id="Group-17" transform="translate(67.586745, 133.637427)" fill-rule="nonzero" fill="#787983" opacity="0.200000018">
                <path d="M107.340359,4.47762177 L90.4015591,4.47762177 C89.4661219,4.47762177 88.7076023,3.4751275 88.7076023,2.23881089 L88.7076023,2.23881089 C88.7076023,1.00249427 89.4661219,0 90.4015591,0 L107.340359,0 C108.275796,0 109.034316,1.00249427 109.034316,2.23881089 L109.034316,2.23881089 C109.034316,3.4753811 108.275796,4.47762177 107.340359,4.47762177 Z" id="Shape-Copy-3"></path>
                <path d="M77.7711583,4.47762177 L60.8323583,4.47762177 C59.8969212,4.47762177 59.1384016,3.4751275 59.1384016,2.23881089 L59.1384016,2.23881089 C59.1384016,1.00249427 59.8969212,0 60.8323583,0 L77.7711583,0 C78.7065954,0 79.465115,1.00249427 79.465115,2.23881089 L79.465115,2.23881089 C79.465115,3.4753811 78.7065954,4.47762177 77.7711583,4.47762177 Z" id="Shape-Copy-4"></path>
                <path d="M48.2019575,4.47762177 L31.2631575,4.47762177 C30.3277204,4.47762177 29.5692008,3.4751275 29.5692008,2.23881089 L29.5692008,2.23881089 C29.5692008,1.00249427 30.3277204,0 31.2631575,0 L48.2019575,0 C49.1373946,0 49.8959142,1.00249427 49.8959142,2.23881089 L49.8959142,2.23881089 C49.8959142,3.4753811 49.1373946,4.47762177 48.2019575,4.47762177 Z" id="Shape-Copy-5"></path>
                <path d="M18.6327567,4.47762177 L1.69395675,4.47762177 C0.7585196,4.47762177 0,3.4751275 0,2.23881089 L0,2.23881089 C0,1.00249427 0.7585196,0 1.69395675,0 L18.6327567,0 C19.5681939,0 20.3267135,1.00249427 20.3267135,2.23881089 L20.3267135,2.23881089 C20.3267135,3.4753811 19.5681939,4.47762177 18.6327567,4.47762177 Z" id="Shape-Copy-6"></path>
            </g>
            <g id="Group-17-Copy" transform="translate(67.586745, 58.754386)" fill-rule="nonzero" fill="#787983" opacity="0.200000018">
                <path d="M107.340359,4.47762177 L90.4015591,4.47762177 C89.4661219,4.47762177 88.7076023,3.4751275 88.7076023,2.23881089 L88.7076023,2.23881089 C88.7076023,1.00249427 89.4661219,0 90.4015591,0 L107.340359,0 C108.275796,0 109.034316,1.00249427 109.034316,2.23881089 L109.034316,2.23881089 C109.034316,3.4753811 108.275796,4.47762177 107.340359,4.47762177 Z" id="Shape-Copy-3"></path>
                <path d="M77.7711583,4.47762177 L60.8323583,4.47762177 C59.8969212,4.47762177 59.1384016,3.4751275 59.1384016,2.23881089 L59.1384016,2.23881089 C59.1384016,1.00249427 59.8969212,0 60.8323583,0 L77.7711583,0 C78.7065954,0 79.465115,1.00249427 79.465115,2.23881089 L79.465115,2.23881089 C79.465115,3.4753811 78.7065954,4.47762177 77.7711583,4.47762177 Z" id="Shape-Copy-4"></path>
                <path d="M48.2019575,4.47762177 L31.2631575,4.47762177 C30.3277204,4.47762177 29.5692008,3.4751275 29.5692008,2.23881089 L29.5692008,2.23881089 C29.5692008,1.00249427 30.3277204,0 31.2631575,0 L48.2019575,0 C49.1373946,0 49.8959142,1.00249427 49.8959142,2.23881089 L49.8959142,2.23881089 C49.8959142,3.4753811 49.1373946,4.47762177 48.2019575,4.47762177 Z" id="Shape-Copy-5"></path>
                <path d="M18.6327567,4.47762177 L1.69395675,4.47762177 C0.7585196,4.47762177 0,3.4751275 0,2.23881089 L0,2.23881089 C0,1.00249427 0.7585196,0 1.69395675,0 L18.6327567,0 C19.5681939,0 20.3267135,1.00249427 20.3267135,2.23881089 L20.3267135,2.23881089 C20.3267135,3.4753811 19.5681939,4.47762177 18.6327567,4.47762177 Z" id="Shape-Copy-6"></path>
            </g>
            <g id="Group-19" transform="translate(77.955166, 82.179337)">
                <circle id="Oval-3" stroke="#464856" stroke-width="6" opacity="0.600000024" cx="13.248538" cy="16.7046784" r="16.248538"></circle>
                <g id="Group-18" transform="translate(51.458090, 0.000000)" fill-rule="nonzero" opacity="0.699999988">
                    <path d="M37.2894503,32.8932398 L3.39008967,32.8932398 C1.51801365,32.8932398 0,31.3752261 0,29.5031501 L0,29.5031501 C0,27.6310741 1.51801365,26.1130604 3.39008967,26.1130604 L37.2894503,26.1130604 C39.1615263,26.1130604 40.67954,27.6310741 40.67954,29.5031501 L40.67954,29.5031501 C40.67954,31.3756101 39.1615263,32.8932398 37.2894503,32.8932398 Z" id="Shape" fill="#D3F1FF"></path>
                    <path d="M37.2894503,22.5248187 L3.39008967,22.5248187 C1.51801365,22.5248187 0,21.0068051 0,19.134729 L0,19.134729 C0,17.262653 1.51801365,15.7446394 3.39008967,15.7446394 L37.2894503,15.7446394 C39.1615263,15.7446394 40.67954,17.262653 40.67954,19.134729 L40.67954,19.134729 C40.67954,21.0071891 39.1615263,22.5248187 37.2894503,22.5248187 Z" id="Shape-Copy" fill="#D3F1FF"></path>
                    <path d="M37.2894503,6.78017934 L3.39008967,6.78017934 C1.51801365,6.78017934 0,5.26216569 0,3.39008967 L0,3.39008967 C0,1.51801365 1.51801365,0 3.39008967,0 L37.2894503,0 C39.1615263,0 40.67954,1.51801365 40.67954,3.39008967 L40.67954,3.39008967 C40.67954,5.26254971 39.1615263,6.78017934 37.2894503,6.78017934 Z" id="Shape-Copy-2" fill="#464856"></path>
                </g>
            </g>
            <g id="Group" transform="translate(129.413255, 83.715400)"></g>
            <g id="Group-20">
                <path d="M54.2387466,50.9285322 C50.4942105,50.9285322 47.4589513,53.9637914 47.4589513,57.7083275 L47.4589513,101.777573 L142.376854,101.777573 C149.865542,101.777573 155.936444,95.7066706 155.936444,88.2179825 L155.936444,50.9289162 L54.2387466,50.9289162 L54.2387466,50.9285322 Z" id="Shape" fill="#000000" fill-rule="nonzero" opacity="0.100000001"></path>
                <path d="M142.377238,94.9179025 L6.77979532,94.9179025 C3.03525926,94.9179025 0,91.8826433 0,88.1381072 L0,6.77979532 C0,3.03525926 3.03525926,0 6.77979532,0 L142.376854,0 C146.12139,0 149.156649,3.03525926 149.156649,6.77979532 L149.156649,88.1381072 C149.157033,91.8822593 146.12139,94.9179025 142.377238,94.9179025 Z" id="Shape" fill="#464756" fill-rule="nonzero"></path>
                <path d="M51.7760546,72.0628304 L99.2350058,72.0628304 C101.107082,72.0628304 102.625096,70.5448168 102.625096,68.6727407 L102.625096,68.6727407 C102.625096,66.8006647 101.107082,65.2826511 99.2350058,65.2826511 L51.7760546,65.2826511 C49.9039786,65.2826511 48.3859649,66.8006647 48.3859649,68.6727407 L48.3859649,68.6727407 C48.3859649,70.5448168 49.9039786,72.0628304 51.7760546,72.0628304 Z" id="Shape" fill="#EFF2FA" fill-rule="nonzero"></path>
                <path d="M55.1391097,31.3633216 C55.2497068,31.2527246 55.4801138,30.9670198 55.8303378,30.5061988 C56.1805618,30.0453778 56.5860782,29.5108335 57.0468992,28.9025497 C57.5077202,28.294266 57.9869669,27.6859913 58.4846536,27.0777076 C58.9823403,26.4694239 59.4339381,25.9625283 59.8394606,25.5570058 C59.8763263,25.5201402 59.9131914,25.4648425 59.9500571,25.3911111 C59.9869228,25.3173797 60.0053553,25.2436495 60.0053553,25.1699181 C60.0053553,25.0961868 59.9592739,25.0316728 59.8671097,24.9763743 C59.7749455,24.9210757 59.5998361,24.8934269 59.3417764,24.8934269 C59.0837166,24.8934269 58.6597676,24.9026432 58.0699167,24.921076 C57.4800658,24.9395089 56.8717912,24.9579414 56.2450746,24.9763743 C55.618358,24.9948071 55.0469485,25.0132397 54.530829,25.0316725 C54.0147095,25.0501054 53.738221,25.0593216 53.7013553,25.0593216 C53.1852358,25.022456 52.8350171,24.9026443 52.6506887,24.699883 C52.4663603,24.4971218 52.39263,24.1561194 52.4294957,23.6768655 C52.4663614,23.0870146 52.4755776,22.4879563 52.4571448,21.8796725 C52.438712,21.2713888 52.4663608,20.6723304 52.5400922,20.0824795 C52.5400922,20.0087482 52.5585247,19.9350179 52.5953904,19.8612865 L52.7059869,19.6400936 C53.2221064,19.6400936 54.1253021,19.6308773 55.4156009,19.6124444 C56.7058998,19.5940116 58.0791258,19.5847953 59.5353202,19.5847953 L66.696443,19.5847953 C67.3231596,19.621661 67.7839737,19.6769587 68.0788992,19.7506901 C68.3738246,19.8244214 68.5028526,20.1746401 68.4659869,20.8013567 L68.4659869,22.3497076 C68.5397183,22.7552301 68.465988,23.0685837 68.2447939,23.2897778 C67.3968832,24.3588825 66.539769,25.418755 65.6734255,26.4694269 C64.807082,27.5200988 63.9499678,28.5799713 63.1020571,29.649076 C62.99146,29.7965387 62.8900809,29.9439993 62.7979167,30.091462 C62.7057525,30.2389247 62.5675083,30.4048178 62.3831799,30.5891462 C62.5306426,30.6260119 62.9822404,30.8103375 63.7379869,31.1421287 C64.4937334,31.4739198 65.3047662,31.9992479 66.1711097,32.7181287 C67.0374532,33.4370094 67.8116209,34.3678539 68.493636,35.5106901 C69.1756511,36.6535262 69.5166536,38.0728336 69.5166536,39.768655 C69.5166536,41.9805959 69.2954628,43.8699337 68.8530746,45.4367251 C68.4106864,47.0035166 67.8577095,48.3030124 67.1941273,49.3352515 C66.530545,50.3674905 65.8024587,51.1785234 65.0098466,51.7683743 C64.2172344,52.3582252 63.452283,52.8006067 62.7149694,53.0955322 C61.9776557,53.3904576 61.3232997,53.5747833 60.7518816,53.6485146 C60.1804636,53.722246 59.802596,53.7591111 59.6182676,53.7591111 C58.2542374,53.7591111 57.0284719,53.5471366 55.9409343,53.1231813 C54.8533967,52.699226 53.9225522,52.1646816 53.1483729,51.5195322 C52.3741936,50.8743827 51.7474864,50.164729 51.2682325,49.3905497 C50.7889787,48.6163704 50.4756251,47.8975004 50.3281623,47.2339181 C50.2912967,47.0495897 50.3005129,46.8560478 50.3558115,46.6532865 C50.41111,46.4505253 50.4940565,46.2938485 50.6046536,46.1832515 C51.0839074,45.6671319 51.5815867,45.178669 52.0977062,44.717848 C52.6138257,44.2570269 53.1299375,43.7869965 53.6460571,43.3077427 C54.0884453,42.8653545 54.438664,42.9390848 54.6967237,43.5289357 C54.7704551,43.7132641 54.9086993,44.0266177 55.1114606,44.4690058 C55.3142218,44.911394 55.5907103,45.3814244 55.9409343,45.8791111 C56.2911582,46.3767978 56.7243235,46.8099631 57.240443,47.1786199 C57.7565626,47.5472767 58.3648372,47.7316023 59.0652851,47.7316023 C60.244987,47.7316023 61.3048594,47.261572 62.2449343,46.3214971 C63.1850091,45.3814222 63.6550395,43.971331 63.6550395,42.0911813 C63.6550395,40.7271511 63.4983627,39.5935484 63.1850044,38.6903392 C62.8716462,37.78713 62.475346,37.0590437 61.9960922,36.5060585 C61.5168383,35.9530733 60.9730777,35.5567731 60.3647939,35.3171462 C59.7565102,35.0775193 59.1574518,34.9577076 58.5676009,34.9577076 C57.97775,34.9577076 57.4063405,34.9669239 56.8533553,34.9853567 C56.3003701,35.0037896 55.7289606,35.0130058 55.1391097,35.0130058 C55.0653783,35.0130058 55.0100807,34.8378965 54.973215,34.4876725 C54.9363493,34.1374485 54.9179167,33.7503647 54.9179167,33.3264094 C54.9179167,32.902454 54.9363493,32.4969376 54.973215,32.109848 C55.0100807,31.7227583 55.0653783,31.4739187 55.1391097,31.3633216 Z M74.4381974,50.2200234 C74.5487945,50.0725607 74.8990132,49.6025303 75.4888641,48.8099181 C76.078715,48.017306 76.8252338,47.0311638 77.728443,45.851462 C78.6316522,44.6717602 79.636227,43.3538318 80.7421974,41.8976374 C81.8481679,40.441443 82.963338,38.9668379 84.0877413,37.4737778 C85.2121446,35.9807177 86.3180984,34.5245451 87.405636,33.1052164 C88.4931736,31.6858876 89.451667,30.423257 90.2811448,29.3172865 C91.1106226,28.2113161 91.7834112,27.3173367 92.2995308,26.6353216 L93.0737062,25.6123041 C93.4054973,25.2436473 93.6635532,24.9579425 93.8478816,24.7551813 C94.03221,24.55242 94.2073194,24.4418247 94.373215,24.4233918 C94.5391105,24.404959 94.7234362,24.4510404 94.9261974,24.5616374 C95.1289587,24.6722345 95.3962309,24.8565601 95.728022,25.1146199 C96.1335445,25.446411 96.5667097,25.7781972 97.0275308,26.1099883 C97.4883518,26.4417794 97.9399496,26.755133 98.3823378,27.0500585 C98.6772632,27.2343869 98.83394,27.4279288 98.8523729,27.6306901 C98.8708057,27.8334513 98.7878592,28.0638584 98.6035308,28.3219181 C98.345471,28.6905749 97.8846569,29.3172821 97.2210746,30.2020585 C96.5574924,31.0868348 95.7648921,32.1467073 94.8432501,33.3817076 C93.921608,34.6167079 92.907817,35.9622851 91.8018466,37.4184795 C90.6958761,38.8746739 89.580706,40.3400628 88.4563027,41.8146901 C87.3318994,43.2893173 86.2351618,44.717841 85.1660571,46.1003041 C84.0969523,47.4827671 83.138459,48.7269652 82.2905483,49.8329357 C81.4426376,50.9389061 80.7422002,51.851318 80.189215,52.5701988 C79.6362298,53.2890796 79.3044436,53.7038123 79.1938466,53.8144094 C78.8620554,54.1830662 78.456539,54.2567964 77.9772851,54.0356023 C77.8298224,53.961871 77.5441177,53.7591128 77.1201623,53.4273216 C76.696207,53.0955305 76.2814743,52.7268792 75.8759518,52.3213567 C75.4704293,51.9158342 75.1109943,51.5195341 74.797636,51.1324444 C74.4842777,50.7453548 74.3644661,50.4412175 74.4381974,50.2200234 Z M79.6362325,25.2252164 C80.3366805,25.2252164 80.6868992,25.5754351 80.6868992,26.275883 L80.6868992,29.870269 C80.6500335,30.5338513 80.4933567,30.9578002 80.2168641,31.1421287 C79.9403715,31.3264571 79.4887737,31.4186199 78.8620571,31.4186199 L77.8666887,31.4186199 C77.3874348,31.4186199 76.9450533,31.3817548 76.5395308,31.3080234 C75.7284858,31.3080234 75.2768879,31.1789954 75.1847237,30.9209357 C75.0925595,30.6628759 75.0464781,30.2942246 75.0464781,29.8149708 C75.0096125,29.1513885 74.9911799,28.4878162 74.9911799,27.8242339 C74.9911799,27.1606517 74.9727473,26.4970793 74.9358816,25.8334971 C74.9358816,25.4279746 75.1570724,25.2252164 75.5994606,25.2252164 L79.6362325,25.2252164 Z M95.728022,47.5104094 C96.0598131,47.5104094 96.317869,47.5749233 96.5021974,47.7039532 C96.6865258,47.8329831 96.7786887,48.1002553 96.7786887,48.5057778 C96.8155543,49.6854796 96.8155543,50.8835963 96.7786887,52.1001637 C96.7786887,52.763746 96.6404444,53.187695 96.3639518,53.3720234 C96.0874592,53.5563518 95.6174288,53.6485146 94.9538466,53.6485146 L93.9584781,53.6485146 C93.4792243,53.6485146 93.0368427,53.6300821 92.6313202,53.5932164 C91.8571409,53.5932164 91.4239757,53.4549721 91.3318115,53.1784795 C91.2396473,52.9019869 91.1751333,52.5241194 91.1382676,52.0448655 C91.1014019,51.3812832 91.0829694,50.7177109 91.0829694,50.0541287 L91.0829694,48.0633918 C91.0829694,47.6578693 91.2857276,47.4735437 91.6912501,47.5104094 L95.728022,47.5104094 Z" id="3%" fill="#D4F2FF"></path>
            </g>
        </g>
    </g>
</svg>