<?xml version="1.0" encoding="UTF-8"?>
<svg width="160px" height="160px" viewBox="0 0 160 160" version="1.1" xmlns="http://www.w3.org/2000/svg" xmlns:xlink="http://www.w3.org/1999/xlink">
    <!-- Generator: Sketch Beta 43.2 (39056) - http://www.bohemiancoding.com/sketch -->
    <title>shapes</title>
    <desc>Created with Sketch Beta.</desc>
    <defs></defs>
    <g id="Page-1" stroke="none" stroke-width="1" fill="none" fill-rule="evenodd">
        <g id="Group-13" transform="translate(-107.000000, 0.000000)">
            <g id="Group-10">
                <g id="shapes" transform="translate(107.000000, 0.000000)">
                    <g id="Layer_1">
                        <circle id="Oval" fill="#ECF0F1" cx="80" cy="80" r="76.7346875"></circle>
                        <path d="M101.064062,52.1253125 C91.369375,52.1253125 83.114375,58.8896875 80,68.353125 C76.885625,58.8896875 68.6309375,52.1253125 58.9359375,52.1253125 C46.5696875,52.1253125 36.545,63.1303125 36.545,76.7059375 C36.545,102.196875 80,123.317813 80,123.317813 C80,123.317813 123.455,102.196875 123.455,76.7059375 C123.455,63.1303125 113.430312,52.1253125 101.064062,52.1253125 L101.064062,52.1253125 Z" id="Shape" fill="#FF8C71"></path>
                        <g id="Group" fill="#8B837D">
                            <path d="M136.568437,23.4315625 C121.45875,8.32125 101.36875,0 80,0 C58.63125,0 38.54125,8.32125 23.4315625,23.4315625 C8.321875,38.541875 0,58.63125 0,80 C0,101.36875 8.32125,121.45875 23.4315625,136.568437 C38.541875,151.678125 58.63125,160 80,160 C101.36875,160 121.45875,151.67875 136.568437,136.568437 C151.678125,121.458125 160,101.36875 160,80 C160,58.63125 151.67875,38.54125 136.568437,23.4315625 L136.568437,23.4315625 Z M80,153.469375 C39.4890625,153.469375 6.530625,120.510937 6.530625,80 C6.530625,39.4890625 39.4890625,6.530625 80,6.530625 C120.510937,6.530625 153.469375,39.4890625 153.469375,80 C153.469375,120.510937 120.510937,153.469375 80,153.469375 L80,153.469375 Z" id="Shape"></path>
                            <path d="M80,13.06125 C43.0896875,13.06125 13.06125,43.09 13.06125,80 C13.06125,116.91 43.0896875,146.93875 80,146.93875 C116.910312,146.93875 146.93875,116.91 146.93875,80 C146.93875,43.09 116.910312,13.06125 80,13.06125 L80,13.06125 Z M80,140.408125 C46.6909375,140.408125 19.591875,113.309375 19.591875,80 C19.591875,46.690625 46.6909375,19.591875 80,19.591875 C113.309062,19.591875 140.408125,46.690625 140.408125,80 C140.408125,113.309375 113.309062,140.408125 80,140.408125 L80,140.408125 Z" id="Shape"></path>
                            <path d="M101.064062,48.86 C92.5496875,48.86 84.7209375,53.458125 80,60.8034375 C75.2790625,53.458125 67.45,48.86 58.9359375,48.86 C44.7890625,48.86 33.2796875,61.351875 33.2796875,76.7059375 C33.2796875,103.927187 76.723125,125.355625 78.5725,126.254687 C79.023125,126.47375 79.5115625,126.583125 80,126.583125 C80.4884375,126.583125 80.976875,126.47375 81.4275,126.254687 C83.276875,125.355625 126.720312,103.927187 126.720312,76.7059375 C126.720312,61.351875 115.210625,48.86 101.064062,48.86 L101.064062,48.86 Z M79.9990625,119.650312 C72.68375,115.812812 39.8103125,97.4109375 39.8103125,76.7059375 C39.8103125,64.9528125 48.39,55.390625 58.9359375,55.390625 C66.9275,55.390625 74.145625,61.0103125 76.8984375,69.3740625 C77.339375,70.7134375 78.5903125,71.61875 80,71.61875 C81.41,71.61875 82.6609375,70.71375 83.1015625,69.3740625 C85.854375,61.0103125 93.0725,55.390625 101.064062,55.390625 C111.61,55.390625 120.189687,64.9528125 120.189687,76.7059375 C120.189687,97.3828125 87.310625,115.809687 79.9990625,119.650312 L79.9990625,119.650312 Z" id="Shape"></path>
                        </g>
                    </g>
                </g>
            </g>
        </g>
    </g>
</svg>