<?xml version="1.0" encoding="UTF-8"?>
<svg width="24px" height="24px" viewBox="0 0 24 24" version="1.1" xmlns="http://www.w3.org/2000/svg" xmlns:xlink="http://www.w3.org/1999/xlink">
    <!-- Generator: Sketch Beta 43.2 (39056) - http://www.bohemiancoding.com/sketch -->
    <title>ig-black</title>
    <desc>Created with Sketch Beta.</desc>
    <defs></defs>
    <g id="index" stroke="none" stroke-width="1" fill="none" fill-rule="evenodd">
        <g id="Desktop-1280" transform="translate(-1322.000000, -75.000000)" fill-rule="nonzero" fill="#31333A">
            <g id="Group-5" transform="translate(45.000000, 72.000000)">
                <g id="social" transform="translate(1207.000000, 3.000000)">
                    <path d="M85.7583587,11.1785319 L86.971151,11.1785319 L86.971151,16.3945188 C86.971151,16.7129575 86.7129575,16.971151 86.3945188,16.971151 L77.6055004,16.971151 C77.2870617,16.971151 77.0288682,16.7129575 77.0288682,16.3945188 L77.0288682,11.1785319 L78.2416605,11.1785319 C78.1840451,11.4433396 78.1528069,11.7179491 78.1528069,11.9999698 C78.1528069,14.124727 79.8752125,15.8471327 81.9999698,15.8471327 C84.124727,15.8471327 85.8471327,14.124727 85.8471327,11.9999698 C85.8471327,11.7179491 85.8159741,11.4432599 85.7583587,11.1785319 Z M81.9999698,14.5913878 C83.4311109,14.5913878 84.5913081,13.4311905 84.5913081,12.0000495 C84.5913081,10.5689084 83.4311109,9.40871106 81.9999698,9.40871106 C80.5688287,9.40871106 79.4086314,10.5689084 79.4086314,12.0000495 C79.4086314,13.4311905 80.5688287,14.5913878 81.9999698,14.5913878 Z M85.104667,9.33866412 L86.0916196,9.33866412 C86.3809716,9.33866412 86.6155771,9.10405867 86.6155771,8.81470662 L86.6155771,7.82783367 C86.6155771,7.53848163 86.3810513,7.30395587 86.0916196,7.30395587 L85.104667,7.30395587 C84.8153149,7.30395587 84.5807892,7.53848163 84.5807892,7.82783367 L84.5807892,8.81478631 C84.5807892,9.10413836 84.8153149,9.33866412 85.104667,9.33866412 Z M94,0 L94,24 L70,24 L70,0 L94,0 Z M88.1591599,7.39440328 C88.1591599,6.53646771 87.4636312,5.84093903 86.6056956,5.84093903 L77.3944033,5.84093903 C76.5364677,5.84093903 75.840939,6.53646771 75.840939,7.39440328 L75.840939,16.6056956 C75.840939,17.4636312 76.5364677,18.1591599 77.3944033,18.1591599 L86.6056956,18.1591599 C87.4636312,18.1591599 88.1591599,17.4636312 88.1591599,16.6056956 L88.1591599,7.39440328 L88.1591599,7.39440328 Z" id="ig"></path>
                </g>
            </g>
        </g>
    </g>
</svg>