<?xml version="1.0" encoding="UTF-8"?>
<svg width="30px" height="30px" viewBox="0 0 30 30" version="1.1" xmlns="http://www.w3.org/2000/svg" xmlns:xlink="http://www.w3.org/1999/xlink">
    <!-- Generator: Sketch Beta 43.2 (39056) - http://www.bohemiancoding.com/sketch -->
    <title>ig</title>
    <desc>Created with Sketch Beta.</desc>
    <defs></defs>
    <g id="index" stroke="none" stroke-width="1" fill="none" fill-rule="evenodd">
        <g id="Desktop-1280" transform="translate(-1088.000000, -1829.000000)" fill-rule="nonzero" fill="#FFFFFF">
            <g id="footer" transform="translate(0.000000, 1655.000000)">
                <path d="M1107.69795,187.973165 L1109.21394,187.973165 L1109.21394,194.493149 C1109.21394,194.891197 1108.8912,195.213939 1108.49315,195.213939 L1097.50688,195.213939 C1097.10883,195.213939 1096.78609,194.891197 1096.78609,194.493149 L1096.78609,187.973165 L1098.30208,187.973165 C1098.23006,188.304175 1098.19101,188.647436 1098.19101,188.999962 C1098.19101,191.655909 1100.34402,193.808916 1102.99996,193.808916 C1105.65591,193.808916 1107.80892,191.655909 1107.80892,188.999962 C1107.80892,188.647436 1107.76997,188.304075 1107.69795,187.973165 Z M1102.99996,192.239235 C1104.78889,192.239235 1106.23914,190.788988 1106.23914,189.000062 C1106.23914,187.211135 1104.78889,185.760889 1102.99996,185.760889 C1101.21104,185.760889 1099.76079,187.211135 1099.76079,189.000062 C1099.76079,190.788988 1101.21104,192.239235 1102.99996,192.239235 Z M1106.88083,185.67333 L1108.11452,185.67333 C1108.47621,185.67333 1108.76947,185.380073 1108.76947,185.018383 L1108.76947,183.784792 C1108.76947,183.423102 1108.47631,183.129945 1108.11452,183.129945 L1106.88083,183.129945 C1106.51914,183.129945 1106.22599,183.423102 1106.22599,183.784792 L1106.22599,185.018483 C1106.22599,185.380173 1106.51914,185.67333 1106.88083,185.67333 Z M1118,174 L1118,204 L1088,204 L1088,174 L1118,174 Z M1110.69895,183.243004 C1110.69895,182.170585 1109.82954,181.301174 1108.75712,181.301174 L1097.243,181.301174 C1096.17058,181.301174 1095.30117,182.170585 1095.30117,183.243004 L1095.30117,194.75712 C1095.30117,195.829539 1096.17058,196.69895 1097.243,196.69895 L1108.75712,196.69895 C1109.82954,196.69895 1110.69895,195.829539 1110.69895,194.75712 L1110.69895,183.243004 L1110.69895,183.243004 Z" id="ig"></path>
            </g>
        </g>
    </g>
</svg>