<?xml version="1.0" encoding="UTF-8"?>
<svg width="160px" height="160px" viewBox="0 0 160 160" version="1.1" xmlns="http://www.w3.org/2000/svg" xmlns:xlink="http://www.w3.org/1999/xlink">
    <!-- Generator: Sketch Beta 43.2 (39056) - http://www.bohemiancoding.com/sketch -->
    <title>logo_big</title>
    <desc>Created with Sketch Beta.</desc>
    <defs></defs>
    <g id="Page-1" stroke="none" stroke-width="1" fill="#fff" fill-rule="evenodd">
        <g id="Desktop-1280" transform="translate(-349.000000, -1588.000000)" fill="#1D1F22">
            <g id="Group-13" transform="translate(349.000000, 1588.000000)">
                <path d="M80.0008988,158.180919 C36.8907214,158.180919 1.81910101,123.107896 1.81910101,80 C1.81910101,36.8903069 36.8907214,1.81908057 80.0008988,1.81908057 C123.111076,1.81908057 158.182697,36.8903069 158.182697,80 C158.182697,123.107896 123.111076,158.180919 80.0008988,158.180919 M80.0008988,-5.68434189e-14 C35.8876993,-5.68434189e-14 -1.13686838e-13,35.8872961 -1.13686838e-13,80 C-1.13686838e-13,124.110906 35.8876993,160 80.0008988,160 C124.114098,160 160,124.110906 160,80 C160,35.8872961 124.114098,-5.68434189e-14 80.0008988,-5.68434189e-14 M80.0008988,153.939873 C39.2293087,153.939873 6.0594758,120.770413 6.0594758,79.999281 C6.0594758,39.2299465 39.2293087,6.06048623 80.0008988,6.06048623 C120.770691,6.06048623 153.940524,39.2299465 153.940524,79.999281 C153.940524,120.770413 120.770691,153.939873 80.0008988,153.939873 M80.0008988,4.26297578 C38.2388694,4.26297578 4.26194515,38.2377208 4.26194515,79.999281 C4.26194515,121.762639 38.2388694,155.737384 80.0008988,155.737384 C121.762928,155.737384 155.738055,121.762639 155.738055,79.999281 C155.738055,38.2377208 121.762928,4.26297578 80.0008988,4.26297578 M17.8683533,55.4542758 L23.5916909,57.4800701 C24.2783476,57.722734 24.7870488,58.1775042 25.1124018,58.8605581 C25.4287672,59.522042 25.4611228,60.2032984 25.2184561,60.8863524 C24.9757895,61.5747989 24.5210143,62.0834944 23.8559279,62.4142363 C23.1782589,62.7270031 22.4969948,62.7575608 21.8085405,62.5166944 C21.3070295,62.3369433 20.7479974,62.6047724 20.5700419,63.1080753 C20.3920864,63.6113782 20.6581209,64.170404 21.1614295,64.34656 C22.3675725,64.7743675 23.5413601,64.7078596 24.6917797,64.1722015 C25.8350092,63.6149733 26.6241251,62.7431807 27.0501399,61.5370512 C27.4761546,60.3327192 27.4114435,59.1589449 26.8685893,58.0211207 C26.3167474,56.863524 25.444945,56.0744169 24.2388019,55.648407 L18.5154644,53.6226127 C18.0121558,53.4446591 17.4549213,53.7106907 17.2769658,54.2157911 C17.0990102,54.7190941 17.3650448,55.2763223 17.8683533,55.4542758 M30.3834807,45.4784523 L27.6530316,49.7385521 L25.3342171,45.2375859 L30.3834807,45.4784523 Z M28.0053477,54.6116029 C28.084439,54.7572013 28.1886958,54.8632544 28.3378908,54.9585224 C28.7872735,55.2479216 29.3912438,55.1149059 29.6788487,54.6655282 C29.8801721,54.3527614 29.8747795,54.0022469 29.6554808,53.5960095 L28.6848142,51.7248012 L32.6196088,45.5881005 L34.7245172,45.6887611 C35.184685,45.7157237 35.5136331,45.5629353 35.7149566,45.248371 C36.0025615,44.7989934 35.8731393,44.1968274 35.4237566,43.9092257 C35.299727,43.8301353 35.1595196,43.779805 34.9671838,43.7510448 L23.7469976,43.2225767 C22.9992248,43.2207792 22.5282718,43.9577585 22.8392446,44.6372175 L28.0053477,54.6116029 Z M36.8303243,42.2503033 C37.1862354,42.6475531 37.8027884,42.6817058 38.2000427,42.3257988 C38.5990945,41.9716892 38.6332476,41.3533456 38.2773365,40.9542983 L33.3700779,35.4700939 L39.0233117,35.7954433 C39.2731685,35.8098234 39.5212277,35.7199479 39.7243487,35.5366018 C39.9292672,35.3532557 40.0335239,35.1303644 40.0479042,34.878713 L40.3624721,29.2129601 L45.2697307,34.7007594 C45.6256418,35.0980093 46.2439923,35.132162 46.6412466,34.7780524 C47.0385009,34.4203478 47.0744515,33.8038017 46.7167429,33.4047544 L40.2474301,26.1715724 C39.684803,25.5442412 38.5990945,25.9073383 38.5523587,26.7773334 L38.160497,33.7876241 L31.1249621,33.3975644 C30.8499399,33.4047544 30.6144634,33.4820474 30.4347103,33.6438233 C30.037456,33.9997304 30.003303,34.6162765 30.359214,35.0153238 L36.8303243,42.2503033 Z M49.1664176,31.9901137 C49.4126793,32.466454 50.0004719,32.6515975 50.4750199,32.4053386 L57.6579524,28.6790994 C58.1307029,28.4328405 58.3194437,27.8432571 58.073182,27.3705118 C57.8251227,26.8977666 57.2373302,26.709028 56.7627821,26.9552869 L50.4426644,30.233946 L49.1017065,27.649126 L53.9855973,25.1164337 C54.4583478,24.8701748 54.645291,24.2805914 54.4008269,23.8060486 C54.1527676,23.3333034 53.5649751,23.1463623 53.0922246,23.3926212 L48.2065363,25.9253134 L46.8655784,23.3404934 L53.1856961,20.0600368 C53.6602442,19.8155754 53.8471874,19.2241945 53.6009257,18.7514492 C53.354664,18.2769065 52.765074,18.0917629 52.2905259,18.3362243 L45.1075934,22.064261 C44.6348429,22.3105199 44.4478997,22.8983058 44.6941614,23.3728486 L49.1664176,31.9901137 Z M60.2305782,21.6526311 C61.2371954,21.9671954 62.4685039,21.9348402 63.9209087,21.542983 C65.8424689,21.0253 66.9353675,21.2338112 67.1906169,22.1685166 C67.4422712,23.1050195 66.6010268,23.8366063 64.6812641,24.3542893 L64.2121086,24.4819126 C63.2432396,24.7443491 62.1755064,24.814452 61.0214917,24.7066014 C60.4912202,24.6652586 60.0508252,25.0193682 59.9879116,25.589179 C59.9303906,26.1230396 60.3635955,26.6101649 60.8938671,26.6515077 C62.0946175,26.8132836 63.3600791,26.7216106 64.7190123,26.3549184 L65.1863702,26.2290927 C66.608217,25.8444255 67.66876,25.240462 68.3877723,24.4243922 C69.1211648,23.6083225 69.338666,22.6772121 69.0636438,21.6616187 C68.7724439,20.5831124 68.1127501,19.8748933 67.1061329,19.5621265 C66.0995158,19.2457646 64.8664098,19.2781198 63.414005,19.6699771 C61.4942423,20.1894576 60.3995461,19.9827439 60.1460943,19.046241 C59.8926425,18.1079405 60.7338868,17.3781513 62.6554471,16.8586707 C63.7159902,16.5728666 64.7855209,16.5009662 65.8604442,16.6285894 C66.4698071,16.6501595 66.8041478,16.3409877 66.876049,15.7352267 C66.93357,15.1995686 66.5560886,14.7987238 65.9772837,14.7034557 C64.7729382,14.5272997 63.5074766,14.6171752 62.1485434,14.9838673 C60.7266967,15.3685346 59.6679512,15.9742956 58.9345587,16.7921629 C58.2155464,17.6046376 57.9980452,18.5375455 58.2712698,19.5513414 C58.5624698,20.6298477 59.2239611,21.3380668 60.2305782,21.6526311 M77.726663,14.4748124 L81.6021391,14.6545634 L81.1994922,23.3742866 C81.1725292,23.9081472 81.5895563,24.3647149 82.1234229,24.38988 C82.655492,24.4132477 83.1120648,23.9962252 83.1372302,23.4641621 L83.5398771,14.7426414 L87.4153532,14.9223925 C87.9492198,14.9475576 88.403995,14.5323327 88.4291604,13.9984721 C88.4543259,13.466409 88.0390963,13.0116389 87.5052297,12.9864737 L77.8165395,12.5370961 C77.2826729,12.511931 76.8261001,12.9289534 76.8009347,13.4610165 C76.7775668,13.9930796 77.1927964,14.4496472 77.726663,14.4748124 M94.1942007,16.2460792 L98.0283336,17.2598751 C98.493894,17.4000809 98.8516026,17.6948726 99.0852816,18.1424527 C99.3369359,18.5774502 99.3998495,19.0304229 99.2740223,19.5157507 C99.1463976,19.999281 98.8623878,20.3767582 98.4076125,20.6409922 C97.9510398,20.9070238 97.4836818,20.9663416 97.000146,20.8405159 L93.243307,19.8446951 L94.1942007,16.2460792 Z M90.7734999,25.3864198 C91.2875937,25.5212331 91.8250553,25.2102638 91.9598701,24.6943783 L92.745391,21.721296 L95.3284426,22.4061475 L98.0085607,27.0149643 C98.3698644,27.7321709 99.6155531,27.5919651 99.7827235,26.7651103 C99.8456371,26.531434 99.8078889,26.285175 99.6910494,26.0371186 L97.8126299,22.8267649 C98.5999483,22.7512695 99.2955927,22.4690604 99.9157408,21.9621624 C100.537686,21.4408844 100.943928,20.7937806 101.150644,20.0118636 C101.416679,19.0106502 101.283662,18.0543747 100.765973,17.164607 C100.253677,16.2586618 99.5077013,15.6582933 98.524452,15.3832742 L93.7538057,14.1196243 C93.2361169,13.9830135 92.7022503,14.2939828 92.565638,14.8098683 L90.0832481,24.2000629 C89.9466358,24.7141509 90.2558111,25.249809 90.7734999,25.3864198 L90.7734999,25.3864198 Z M111.119749,23.8082056 L111.182663,28.8681975 L106.760737,26.3966207 L111.119749,23.8082056 Z M101.955938,28.7172067 C102.283089,28.8987552 102.630012,28.8717926 103.027266,28.6309262 L104.83738,27.5470274 L111.209626,31.1096931 L111.232994,33.2181728 C111.232994,33.6819305 111.407354,34.0018874 111.734505,34.1834359 C112.200065,34.444075 112.795048,34.2769065 113.05569,33.8113513 C113.125793,33.683728 113.170732,33.5399272 113.185112,33.3457961 L113.039512,22.1005707 C112.994574,21.3528064 112.232421,20.9249989 111.570929,21.2791084 L101.912797,27.0401294 C101.770792,27.1300049 101.670131,27.2396531 101.583849,27.394239 C101.325005,27.8615917 101.492175,28.4565677 101.955938,28.7172067 L101.955938,28.7172067 Z M118.116637,39.1485193 L128.835312,35.7584146 C128.995293,35.7062868 129.126512,35.6074237 129.236162,35.488788 C129.597465,35.0951332 129.568705,34.4767896 129.175046,34.1172876 C128.889238,33.8566485 128.53153,33.7919382 128.103718,33.9465241 L119.13404,36.7901856 L121.170642,27.5977172 C121.289279,27.1573271 121.19401,26.8068126 120.918988,26.5551611 C120.525328,26.1938615 119.906978,26.2226217 119.549269,26.6144789 C119.418049,26.7582798 119.331768,26.9002831 119.313793,27.0386914 L116.876341,38.0124927 C116.746919,38.7512695 117.39403,39.3408529 118.116637,39.1485193 M123.686645,45.7908597 L128.185865,52.5063587 C128.482457,52.9503438 129.090023,53.070777 129.532215,52.7741877 C129.974408,52.475801 130.093045,51.8718375 129.79825,51.4296499 L125.83829,45.5176381 L128.255968,43.8962836 L131.317163,48.4655552 C131.611958,48.9077428 132.219523,49.028176 132.661716,48.7315868 C133.105706,48.4349975 133.224343,47.8292365 132.927751,47.3852514 L129.866556,42.8177774 L132.286032,41.1982205 L136.245992,47.1084348 C136.540787,47.5506224 137.148352,47.6728531 137.592343,47.3744664 C138.034535,47.0778771 138.153172,46.4721161 137.858377,46.028131 L133.35736,39.312632 C133.062565,38.8686469 132.455,38.7482137 132.012807,39.0448029 L123.950882,44.4445243 C123.50869,44.7429111 123.388255,45.3468746 123.686645,45.7908597 M130.095561,56.2705253 L133.054297,63.8038916 C133.24843,64.301802 133.814652,64.5480609 134.314366,64.3539298 C134.810484,64.1597987 135.058543,63.5917854 134.862612,63.0956725 L132.259788,56.4628589 L140.397209,53.2704804 C140.895125,53.0763493 141.143185,52.508336 140.947254,52.0122231 C140.751323,51.5143127 140.185101,51.2680537 139.687185,51.4603874 L130.647403,55.0104705 C130.14769,55.2046016 129.903225,55.7726149 130.095561,56.2705253 M23.5970835,101.945446 C23.7283032,102.31753 24.1417353,102.515256 24.5138241,102.384038 C24.885913,102.25282 25.0818438,101.839392 24.9506241,101.467308 L23.5197897,97.4031367 C23.38857,97.031052 22.9751379,96.8315283 22.6012515,96.9645441 C22.2291627,97.0957624 22.0332318,97.5073923 22.1644516,97.8794769 L22.6425947,99.2347998 L19.2542495,100.428347 C18.8803631,100.559565 18.6844323,100.972992 18.8138545,101.345077 C18.9468717,101.717162 19.3585063,101.914888 19.7323926,101.78367 L23.1171428,100.590123 L23.5970835,101.945446 Z M27.5354731,108.284186 C27.6900608,108.152968 27.7781398,107.991192 27.7853299,107.795264 C27.8158879,107.394419 27.5139028,107.051094 27.1220411,107.018739 L24.9632068,106.867748 L26.0075721,104.539972 C26.0129647,104.529187 26.0165598,104.518402 26.0165598,104.518402 C26.180135,104.149912 26.0165598,103.73289 25.648066,103.567519 C25.2867623,103.400351 24.8679377,103.563924 24.7025649,103.932414 L23.4371033,106.761695 L23.0200762,106.731137 C22.714496,106.713162 22.5095775,106.603514 22.4125108,106.40399 C22.2381503,106.046286 21.8049455,105.897093 21.4490344,106.071451 C21.0913258,106.244012 20.9439283,106.677212 21.1146937,107.033119 C21.5011628,107.807846 22.0871578,108.106233 22.9967083,108.178133 L27.0213794,108.46214 C27.2119176,108.472925 27.382683,108.413607 27.5354731,108.284186 M27.408208,111.944097 L28.319556,111.368894 L29.0871016,112.582214 C29.2434868,112.832068 29.169788,113.17 28.9199312,113.32818 C28.6754671,113.480969 28.3447214,113.410866 28.1883363,113.178987 L27.408208,111.944097 Z M29.6874768,114.5415 C30.1494422,114.250303 30.4406422,113.836876 30.5556841,113.304813 C30.6797137,112.776345 30.5934323,112.276637 30.3004348,111.816474 L29.1500152,109.992001 C28.9397041,109.659462 28.492119,109.558801 28.1577783,109.770907 L24.5123861,112.073518 C24.1798429,112.283827 24.0773837,112.729609 24.2912898,113.065744 C24.5016009,113.400081 24.9473885,113.498944 25.2817292,113.288635 L26.1930773,112.713432 L26.9768006,113.951917 C27.2715956,114.403092 27.6850277,114.685301 28.2135017,114.803937 C28.7365831,114.920775 29.2327016,114.829102 29.6874768,114.5415 L29.6874768,114.5415 Z M35.4109941,118.665528 C35.2959522,118.51993 35.1305794,118.431852 34.9274584,118.401294 L30.5918145,117.944727 L32.5924661,116.32517 C32.8998438,116.078911 32.9465796,115.622343 32.6967229,115.316766 C32.4504612,115.009392 31.9956859,114.960859 31.6883082,115.210713 L28.3377111,117.921359 C28.0321309,118.171213 27.9835975,118.625983 28.2316568,118.93156 C28.3592814,119.087943 28.5228567,119.177819 28.7151925,119.197591 L33.0490389,119.654159 L31.0501848,121.271918 C30.7428071,121.521772 30.6960713,121.974745 30.945928,122.282119 C31.1939873,122.589494 31.6487625,122.638026 31.9561403,122.388172 L35.3049398,119.675729 C35.6123176,119.427673 35.6608509,118.972903 35.4109941,118.665528 M36.896114,121.470543 C36.1052005,121.483126 35.429329,121.770728 34.8720945,122.344133 C34.3130624,122.919337 34.0434328,123.600593 34.054218,124.393295 C34.0650032,125.187795 34.3544056,125.861861 34.9278179,126.41909 C35.5030277,126.976318 36.1824943,127.247742 36.9770028,127.236957 C37.1711362,127.233362 37.3419016,127.159664 37.4839065,127.015863 C37.7607262,126.733654 37.7535361,126.273491 37.4695262,125.998472 C37.3239263,125.856469 37.1513633,125.786366 36.95723,125.789961 C36.5599757,125.797151 36.2166474,125.662338 35.93084,125.387319 C35.6486277,125.110502 35.5066228,124.77257 35.5012302,124.373523 C35.4958376,123.97807 35.6288549,123.634746 35.903877,123.348942 C36.1824943,123.066733 36.5204301,122.922932 36.9176843,122.919337 C37.3149386,122.913944 37.6564694,123.045162 37.9422768,123.321979 C38.2244891,123.598796 38.366494,123.936728 38.3718866,124.333977 C38.3772792,124.528109 38.4491804,124.70067 38.5929829,124.840875 C38.8805878,125.115894 39.335363,125.110502 39.6121828,124.826495 C39.741605,124.691682 39.8135062,124.519121 39.8188988,124.314205 C39.8045185,123.51611 39.5097235,122.836651 38.9452989,122.288411 C38.3736842,121.73298 37.6906225,121.459758 36.896114,121.470543 M45.5783667,128.781737 C45.8192358,128.46897 45.7635124,128.015998 45.447147,127.773334 L42.0390289,125.134589 C41.7280561,124.891925 41.2732808,124.949445 41.0324117,125.262212 C40.7897451,125.574979 40.8472661,126.027951 41.1600364,126.270615 L42.2960758,127.149598 L40.0958983,129.991462 C39.8532316,130.304229 39.9125501,130.758999 40.2235229,130.998068 C40.5362933,131.240732 40.9910685,131.183211 41.2337352,130.870444 L43.4339127,128.030378 L44.5681545,128.909361 C44.8809248,129.152024 45.3357001,129.094504 45.5783667,128.781737 M51.4992529,131.553498 C51.3392727,131.456433 51.154127,131.433065 50.9546011,131.470813 L46.7375942,132.554712 L48.044399,130.340179 C48.2439249,130.004044 48.1306805,129.560059 47.7927447,129.358738 C47.4530114,129.157417 47.0090214,129.268863 46.8094955,129.61039 L44.6147105,133.316856 C44.4133871,133.656586 44.5266315,134.098773 44.8663648,134.300094 C45.0407253,134.402552 45.2240734,134.429515 45.4128141,134.380982 L49.6316186,133.300679 L48.3230163,135.511616 C48.1216928,135.853143 48.2349373,136.295331 48.5746705,136.494855 C48.9162014,136.694378 49.3565964,136.582933 49.5579198,136.241406 L51.7509072,132.536737 C51.9522306,132.197007 51.8389862,131.753022 51.4992529,131.553498 M57.4992304,134.344493 C57.1343317,134.184514 56.7083169,134.35348 56.5483367,134.71478 L56.0971565,135.742956 C55.9749244,136.005393 55.773601,136.181549 55.5003764,136.284007 C55.2289492,136.384667 54.9629147,136.379275 54.6932851,136.258842 C54.421858,136.142003 54.2331173,135.94967 54.1216704,135.680043 C54.0174136,135.403227 54.0138185,135.135397 54.1252654,134.863973 L54.571053,133.84838 C54.7292357,133.485283 54.5638629,133.059273 54.1989642,132.899294 C53.8376605,132.741114 53.4134433,132.906485 53.2534631,133.269582 L52.7914977,134.31753 C52.5380459,134.953849 52.5362483,135.58118 52.7914977,136.221094 C53.0485446,136.853817 53.4889396,137.303195 54.1162778,137.580012 C54.4596061,137.729205 54.8191122,137.801105 55.1983912,137.793915 L54.8155172,138.671101 C54.655537,139.034198 54.8227073,139.462005 55.1858085,139.620186 C55.5471122,139.776569 55.9731269,139.612996 56.1331071,139.249899 L57.8677242,135.293578 C58.0259069,134.930481 57.8587366,134.504471 57.4992304,134.344493 M63.8520632,136.519481 L60.4205772,135.449962 C60.0430958,135.333124 59.6368539,135.54523 59.5200144,135.922707 L58.23478,140.040803 C58.1179405,140.416483 58.3300491,140.824518 58.7075305,140.939559 L62.1390165,142.010875 C62.5147004,142.127713 62.9209424,141.915607 63.0395794,141.53813 C63.1582164,141.160652 62.9443103,140.756213 62.5668288,140.637577 L59.8237971,139.780164 L60.0359057,139.097111 L62.0940783,139.738822 C62.4733572,139.853862 62.8778016,139.641756 62.9946411,139.264279 C63.1132781,138.888599 62.9011695,138.482362 62.5236881,138.365524 L60.463718,137.723813 L60.6776241,137.037164 L63.4224534,137.894576 C63.8017324,138.011414 64.2061768,137.79751 64.3230163,137.421831 C64.4398557,137.042556 64.2277471,136.638116 63.8520632,136.519481 M68.3546977,137.567429 C67.5727719,137.409248 66.8573547,137.549454 66.1958634,137.988047 C65.5379672,138.426639 65.1299278,139.0324 64.9699475,139.81252 C64.8135624,140.596234 64.9537698,141.311643 65.3941648,141.97133 C65.8309647,142.631016 66.4385301,143.039051 67.2186584,143.197232 C67.9987867,143.355413 68.7160014,143.215207 69.3756951,142.774817 C69.5374729,142.670561 69.6417297,142.514178 69.6812753,142.318249 C69.7603667,141.929987 69.5051173,141.550712 69.1204458,141.471622 C68.9227174,141.430279 68.7375718,141.468027 68.5793891,141.57408 C68.2486434,141.795174 67.8891373,141.867074 67.5008707,141.789781 C67.1161991,141.712488 66.814214,141.503977 66.5949152,141.175033 C66.373819,140.844291 66.3001202,140.484789 66.377414,140.098324 C66.4565054,139.710062 66.6650189,139.40808 66.9957646,139.190581 C67.3229151,138.969487 67.6824213,138.895789 68.0706879,138.973082 C68.457157,139.052173 68.7591421,139.258886 68.9802384,139.589628 C69.0844952,139.749607 69.2408803,139.853862 69.4368112,139.893408 C69.8232803,139.972498 70.2043568,139.719049 70.2834481,139.330787 C70.3211963,139.149238 70.2834481,138.965892 70.1791913,138.791534 C69.7352013,138.13005 69.1204458,137.722015 68.3546977,137.567429 M76.7383806,138.617175 C76.5370572,138.600998 76.3591017,138.65672 76.2135017,138.782546 L74.1121884,140.558486 L73.267349,140.488384 L73.385986,139.057565 C73.4183416,138.66391 73.1235465,138.315193 72.7316848,138.281041 C72.3362281,138.248686 71.9857096,138.543477 71.9533541,138.93893 L71.5956455,143.231385 C71.5614924,143.625039 71.8562874,143.973756 72.2517442,144.006112 C72.6454034,144.040264 72.9923268,143.745473 73.0264799,143.351818 L73.1469144,141.920999 L73.9917538,141.991102 L75.7677141,144.092392 C75.8917437,144.239788 76.0571165,144.324271 76.25844,144.342246 C76.6538967,144.374601 77.0008201,144.079809 77.0349732,143.686155 C77.051151,143.501011 76.99363,143.323058 76.8678029,143.161282 L75.3686623,141.385341 L77.142825,139.882623 C77.2920201,139.758594 77.376504,139.593223 77.3926818,139.391902 C77.4250374,139.000045 77.1320399,138.651328 76.7383806,138.617175 M82.4119266,142.480744 C82.142297,142.768346 81.8079563,142.922932 81.410702,142.933717 C81.0170428,142.948097 80.6737145,142.815081 80.3861096,142.54186 C80.0967071,142.270435 79.9421195,141.936099 79.9313343,141.542444 C79.9169541,141.145194 80.0517689,140.803667 80.323196,140.514268 C80.5946231,140.226666 80.9289638,140.07208 81.3244206,140.059498 C81.7180798,140.046915 82.0614081,140.181728 82.3508106,140.453152 C82.640213,140.724576 82.7948006,141.058913 82.8073834,141.454366 C82.8199661,141.84802 82.6851513,142.191345 82.4119266,142.480744 M81.2812798,138.623287 C80.4831762,138.646654 79.8162924,138.946839 79.2716406,139.523839 C78.7287863,140.102638 78.4681444,140.789287 78.4933098,141.585584 C78.5166777,142.381881 78.8168653,143.048757 79.3956702,143.593403 C79.9726775,144.138049 80.6593342,144.39689 81.4556403,144.373523 C82.2537439,144.348358 82.9206278,144.046376 83.463482,143.469375 C84.0081338,142.892374 84.2669782,142.207523 84.2436103,141.409428 C84.2184449,140.613131 83.9182573,139.946254 83.34125,139.401609 C82.7624451,138.856963 82.0757884,138.598122 81.2812798,138.623287 M90.5306535,142.034962 L87.6905551,142.450186 L87.5845008,141.74017 L89.7181697,141.429201 C90.1082338,141.37168 90.3814585,141.004988 90.3239375,140.614928 C90.2664165,140.223071 89.9015178,139.949849 89.5096561,140.005572 L87.3777848,140.320137 L87.273528,139.608322 L90.1172215,139.193098 C90.5072856,139.135577 90.7805103,138.770683 90.7229893,138.378825 C90.6654683,137.986968 90.2987721,137.715544 89.9069104,137.771267 L86.3549898,138.290747 C85.9649257,138.348268 85.691701,138.71496 85.7474245,139.106817 L86.3729651,143.370512 C86.4304861,143.760572 86.7971824,144.033793 87.1872465,143.976273 L90.7409646,143.456792 C91.1310287,143.399272 91.4024559,143.03258 91.3467324,142.64252 C91.2892114,142.250663 90.9243127,141.979239 90.5306535,142.034962 M98.5212165,138.899744 L98.7728708,137.675639 L99.7021941,138.502494 L98.5212165,138.899744 Z M102.538697,139.08309 L98.7926436,135.761291 C98.5823325,135.58154 98.346856,135.540197 98.0862141,135.626477 C97.8255721,135.712758 97.6655919,135.887116 97.6044759,136.160338 L96.6104414,141.065744 C96.5906686,141.186177 96.6014538,141.312003 96.6409994,141.427044 C96.7668266,141.802723 97.1784611,142.007639 97.5523475,141.883611 C97.818382,141.791938 97.9747672,141.6032 98.0340857,141.304813 L98.1922684,140.528288 L100.953275,139.606165 L101.541068,140.132836 C101.769354,140.335955 102.012021,140.38988 102.279853,140.300004 C102.655537,140.174179 102.860455,139.764346 102.734628,139.388667 C102.68969,139.259246 102.628574,139.160383 102.538697,139.08309 L102.538697,139.08309 Z M106.013324,132.352132 L103.079754,133.73262 C102.723843,133.899789 102.567458,134.331191 102.738223,134.688896 L104.573502,138.594886 C104.74247,138.952591 105.173877,139.107177 105.529788,138.938211 C105.891092,138.769245 106.04568,138.33964 105.876712,137.981935 L104.343418,134.724846 L106.622687,133.655327 C106.980396,133.486361 107.136781,133.056756 106.96961,132.697254 C106.798845,132.33955 106.369235,132.184964 106.013324,132.352132 M113.851097,132.831349 L111.386683,134.32508 L111.014594,133.708534 L112.860658,132.588685 C113.200391,132.383768 113.308243,131.939783 113.103324,131.600054 C112.900203,131.262122 112.454416,131.150676 112.114682,131.359188 L110.268618,132.477239 L109.894732,131.860693 L112.357349,130.368759 C112.693487,130.163843 112.804934,129.719858 112.600016,129.378331 C112.3933,129.042197 111.94931,128.930751 111.613171,129.137465 L108.532204,131.00328 C108.192471,131.208197 108.086416,131.653979 108.291335,131.991911 L110.52926,135.687593 C110.734179,136.023727 111.179967,136.133375 111.516105,135.930257 L114.597072,134.064441 C114.935008,133.857727 115.044657,133.411944 114.837941,133.07581 C114.633023,132.734283 114.187235,132.626432 113.851097,132.831349 M118.185123,125.167483 C117.944254,124.856514 117.487681,124.798993 117.174911,125.041657 C116.865736,125.284321 116.808215,125.737294 117.050881,126.048263 L117.933469,127.182492 L115.950793,128.726554 L115.070003,127.594122 C114.827336,127.283153 114.372561,127.22743 114.061588,127.468296 C113.750615,127.71096 113.693094,128.163933 113.933963,128.4767 L116.583523,131.875792 C116.82619,132.186761 117.27737,132.244282 117.590141,132.001618 C117.902911,131.758954 117.958634,131.304184 117.71417,130.993214 L116.83338,129.858985 L118.816056,128.314924 L119.698644,129.449153 C119.943108,129.760122 120.394288,129.817643 120.705261,129.573181 C121.019829,129.330517 121.071957,128.877545 120.832886,128.566575 L118.185123,125.167483 Z M122.384155,122.165641 L123.403355,121.15544 C123.685567,120.876826 123.689162,120.41846 123.408747,120.138049 C123.133725,119.859435 122.675355,119.85584 122.39494,120.134454 L119.33015,123.166854 C119.049735,123.445468 119.04614,123.902036 119.324758,124.182447 C119.603375,124.462859 120.059948,124.466454 120.340362,124.18784 L121.363157,123.175841 L123.890485,125.730104 C124.167305,126.010515 124.625675,126.01411 124.90609,125.733699 C125.186505,125.456882 125.1901,125.000315 124.909685,124.719903 L122.384155,122.165641 Z M130.164047,117.724532 C129.854872,117.47288 129.400097,117.521413 129.152037,117.828787 C129.022615,117.985171 128.970487,118.163124 128.99026,118.357255 C129.029805,118.75091 128.929144,119.10502 128.677489,119.410596 C128.42943,119.717971 128.104077,119.890532 127.70862,119.931874 C127.311366,119.97142 126.960848,119.870759 126.65347,119.620905 C126.346092,119.369254 126.173529,119.043904 126.135781,118.650249 C126.09264,118.254797 126.195099,117.902485 126.444956,117.595111 C126.694813,117.287736 127.020166,117.115175 127.415623,117.07563 C127.606161,117.055858 127.773331,116.965982 127.899159,116.809599 C128.149015,116.502224 128.104077,116.047454 127.796699,115.7976 C127.652897,115.678965 127.471346,115.626837 127.268225,115.637622 C126.473717,115.723902 125.824808,116.076214 125.330487,116.68557 C124.823584,117.305712 124.61507,118.006741 124.694161,118.797645 C124.776848,119.586752 125.123771,120.233856 125.743919,120.737159 C126.365865,121.240462 127.065104,121.450771 127.857815,121.369883 C128.645134,121.287197 129.292245,120.942075 129.795553,120.320137 C130.298862,119.701793 130.509173,118.997169 130.426487,118.208062 C130.410309,118.015728 130.320432,117.850357 130.164047,117.724532 M133.639752,113.66791 L130.609116,111.726599 L131.387446,110.516874 C131.601353,110.184335 131.504286,109.734957 131.169945,109.522851 C130.837402,109.308947 130.389817,109.40781 130.174113,109.74035 L127.848109,113.376713 C127.634203,113.707455 127.734864,114.155035 128.06561,114.368939 C128.399951,114.581045 128.847536,114.48398 129.057847,114.15144 L129.836178,112.939918 L132.863219,114.879432 C133.19756,115.091538 133.645145,114.994473 133.859051,114.661933 C134.072957,114.327596 133.974093,113.881814 133.639752,113.66791 M136.667873,106.539343 L135.731359,108.482452 L135.086046,108.169685 L136.031547,106.203209 C136.116031,106.04323 136.324544,105.976722 136.497107,106.059408 C136.680455,106.145688 136.754154,106.357794 136.667873,106.539343 M134.722944,105.604638 L133.788228,107.547746 L133.141117,107.236777 L134.075833,105.295466 C134.163912,105.11212 134.376021,105.038422 134.555774,105.1265 C134.737325,105.21278 134.811023,105.423089 134.722944,105.604638 M137.122648,104.7652 C136.764939,104.594437 136.389255,104.549499 135.995596,104.621399 C135.806855,104.26729 135.535428,104.003056 135.179517,103.830495 C134.739122,103.620186 134.289739,103.595021 133.824179,103.753202 C133.353226,103.911383 133.013493,104.207972 132.795992,104.644767 L131.53772,107.260145 C131.366955,107.616052 131.517947,108.047454 131.873858,108.220015 L135.756524,110.087629 C136.112436,110.258392 136.54564,110.107401 136.716406,109.751494 L137.962095,107.161282 C138.176001,106.715499 138.202964,106.260729 138.041186,105.789781 C137.875813,105.318833 137.568435,104.979104 137.122648,104.7652 M139.092022,100.509594 C138.9626,100.883476 138.714541,101.1549 138.360427,101.329259 C138.002719,101.503617 137.634225,101.526985 137.258541,101.397564 C136.884655,101.269941 136.615025,101.023682 136.438867,100.665978 C136.266304,100.310071 136.241139,99.9433784 136.368763,99.5694962 C136.501781,99.1956141 136.744447,98.920595 137.103953,98.748034 C137.461662,98.5736755 137.826561,98.5485103 138.200447,98.6761336 C138.574334,98.8073518 138.847558,99.0518132 139.023716,99.4113153 C139.196279,99.7690199 139.219647,100.133915 139.092022,100.509594 M138.6714,97.3190132 C137.916437,97.0565766 137.184842,97.1015144 136.471223,97.4484339 C135.757603,97.7953534 135.270472,98.3435941 135.00983,99.0985485 C134.747391,99.8535029 134.790532,100.583292 135.14105,101.296904 C135.487973,102.012313 136.034423,102.497641 136.791183,102.760077 C137.546146,103.018919 138.275943,102.975779 138.989563,102.630657 C139.70498,102.28194 140.192111,101.735496 140.452753,100.978744 C140.713395,100.225588 140.668457,99.4922033 140.321533,98.7785917 C139.97461,98.06498 139.428161,97.5778547 138.6714,97.3190132 M141.970947,72.2901182 L141.936794,72.0186941 C141.868488,71.5243787 141.40832,71.1756617 140.924785,71.2511571 C140.434059,71.3194625 140.088933,71.7724352 140.157239,72.264953 L140.184202,72.4842493 C140.509555,75.0474992 140.67313,77.6449018 140.67313,80.2009617 C140.67313,82.8037568 140.504162,85.4263245 140.168024,87.994967 C140.105111,88.4874848 140.450236,88.93866 140.944557,89.0033703 C140.982306,89.0087629 141.023649,89.0105604 141.061397,89.0105604 C141.505387,89.0105604 141.891856,88.6798185 141.951175,88.2268458 C142.2963,85.5827079 142.470661,82.8810497 142.470661,80.2009617 C142.470661,77.5694064 142.301693,74.8965083 141.970947,72.2901182 M19.0505893,88.8205635 C19.5395176,88.7558531 19.8792509,88.2507527 19.8163373,87.7600324 C19.4927818,85.1949849 19.327409,82.5993799 19.327409,80.04332 C19.327409,77.4782726 19.4927818,74.8934526 19.8181348,72.3643554 C19.8810484,71.8718375 19.5323275,71.4206624 19.0416016,71.3577495 C18.5418881,71.3110142 18.097898,71.6435537 18.0349844,72.134274 C17.7006437,74.7406642 17.5298783,77.4009796 17.5298783,80.04332 C17.5298783,82.6748753 17.6988462,85.3477733 18.0349844,87.9991012 L18.9409399,87.9865187 L18.0493647,88.1087494 C18.1104807,88.5527345 18.480772,88.8295511 18.9139769,88.8295511 C18.9589152,88.8295511 19.0038535,88.8277536 19.0505893,88.8205635 M54.4026244,109.658563 L54.3864466,68.0443985 C54.8573996,68.6717297 55.4487872,69.3260235 56.200155,69.9803173 L56.200155,100.671011 C56.200155,102.668045 60.8665446,109.309846 64.085922,110.643599 C64.5388997,110.83054 64.936154,110.904238 65.2776848,110.904238 C66.0218625,110.904238 66.5107908,110.559116 66.7750278,110.294882 C66.9296154,110.140296 67.023087,109.933582 67.0356697,109.716083 C67.2316006,106.654923 68.0872252,104.485328 69.5755805,103.270211 C71.7937334,101.460118 75.1281527,101.923875 77.5602117,102.258212 C77.872982,102.301353 78.1533968,102.337303 78.432014,102.371456 C78.4787498,102.378646 78.5254856,102.384038 78.5704239,102.389431 C78.7897226,102.414596 78.9802609,102.423583 79.1761917,102.437963 C79.309209,102.445153 79.4314411,102.468521 79.5680534,102.468521 C79.5806361,102.468521 79.5914213,102.464926 79.604004,102.464926 C79.6165867,102.464926 79.634562,102.468521 79.6471447,102.468521 C80.3409916,102.468521 81.1642606,102.357075 82.0378605,102.240237 C84.4591343,101.914888 87.4735932,101.508651 89.5371583,103.16236 C91.0255137,104.355907 91.9188864,106.566845 92.1921111,109.735856 C92.2100864,109.946165 92.303558,110.145688 92.452753,110.294882 C92.832032,110.672359 93.6804665,111.225992 95.087933,110.647194 C98.1203671,109.390734 102.935952,102.570979 102.935952,100.671011 L102.935952,70.2948816 C103.678332,69.676538 104.266124,69.0545994 104.733482,68.4542309 L104.733482,109.656765 C104.729887,110.39015 104.379369,127.633667 79.5680534,127.633667 C54.7567379,127.633667 54.4044219,110.39015 54.4026244,109.658563 L54.4026244,109.658563 Z M46.0063588,47.4539163 C47.1226253,43.8517054 53.85258,39.5556554 79.5680534,39.5556554 C105.281729,39.5556554 112.011684,43.8499079 113.129748,47.4539163 C114.382627,51.4947198 108.907349,56.6517773 105.901877,58.9202355 C104.269719,57.2215881 98.5931177,54.8344942 79.5680534,54.8344942 C60.5411915,54.8344942 54.8645898,57.2215881 53.2342295,58.9202355 C50.2287582,56.6553723 44.7516824,51.5019099 46.0063588,47.4539163 L46.0063588,47.4539163 Z M54.3846491,62.9214937 C54.3864466,62.9502539 54.4026244,62.9664315 54.3990293,62.9987867 L54.3846491,62.9969892 L54.3846491,62.9214937 Z M83.1631147,60.2270256 C83.1631147,62.2096796 81.5507297,63.8220465 79.5680534,63.8220465 C77.5853771,63.8220465 75.9729921,62.2096796 75.9729921,60.2270256 C75.9729921,58.2443715 77.5853771,56.6320047 79.5680534,56.6320047 C81.5507297,56.6320047 83.1631147,58.2443715 83.1631147,60.2270256 L83.1631147,60.2270256 Z M104.733482,63.1389925 C103.435665,63.3403137 98.9130782,63.7519436 83.563964,63.8148564 C84.4231837,62.8585809 84.9606453,61.6093111 84.9606453,60.2270256 C84.9606453,58.8591201 84.4339688,57.6224329 83.590927,56.6715499 C102.95213,57.0598122 104.733482,60.2288231 104.733482,60.2288231 L104.733482,60.2270256 L104.733482,63.1389925 Z M54.4026244,60.379814 C54.4026244,60.3438637 55.8765995,57.0670022 75.5541675,56.6715499 C74.7129231,57.6224329 74.1808541,58.8591201 74.1808541,60.2270256 C74.1808541,61.6057161 74.7219108,62.8531883 75.5757378,63.8076664 C59.3152756,63.6782456 56.200155,62.7740979 54.4026244,62.4379634 L54.4026244,60.379814 Z M79.5680534,73.9330427 C59.3745942,73.9330427 55.3822786,66.9425246 54.5967577,64.3343369 C58.0713844,65.1863569 66.4263069,65.6195569 79.5680534,65.6195569 C95.1706194,65.6195569 101.736999,65.3535254 104.505196,64.9347054 C103.640584,67.4763852 99.4828954,73.9330427 79.5680534,73.9330427 L79.5680534,73.9330427 Z M84.8204379,99.1575069 C84.4825022,98.7980048 83.9144825,98.7818272 83.5513813,99.1179616 C83.5352035,99.1305442 81.8724877,100.651238 79.6058015,100.667416 C79.397288,100.665618 79.1510263,100.647643 78.8706115,100.615288 C78.8580288,100.61349 78.8454461,100.61349 78.8346609,100.61349 C78.8041029,100.609895 78.7645572,100.602705 78.7322016,100.59911 C76.9742167,100.306116 75.8597477,99.1844695 75.8291897,99.1521143 C75.4876588,98.7926122 74.9232342,98.7764346 74.5619305,99.1179616 C74.2707306,99.3929807 74.2150071,99.8118007 74.38038,100.156923 C72.358158,100.119175 70.1849434,100.451714 68.4395412,101.87714 C66.6348204,103.349301 65.5742773,105.781333 65.2794823,109.106727 C65.1914033,109.124702 65.0224354,109.08336 64.8013392,108.993484 C62.121221,107.92037 58.0246486,101.794455 57.9976857,100.671011 L57.9976857,71.3248551 C61.8246284,73.810812 68.3640449,75.955242 79.5680534,75.955242 C90.7720619,75.955242 97.3114784,73.9438278 101.138421,71.578304 L101.138421,100.663821 C101.064722,101.747719 96.8728809,108.058779 94.3275775,109.015054 C94.1478244,109.081562 93.9572862,109.094145 93.9375133,109.101335 C93.5654245,105.632139 92.4905012,103.227071 90.660615,101.758504 C88.9745312,100.406777 86.9181562,100.10839 84.9714305,100.15872 C85.1278157,99.8333708 85.0810799,99.436121 84.8204379,99.1575069 L84.8204379,99.1575069 Z M106.531013,109.658563 L106.531013,60.6907833 C108.431003,59.3084977 116.696049,52.8877904 114.84639,46.9218532 C112.935615,40.7545949 101.397266,37.758145 79.5680534,37.758145 C57.7406388,37.758145 46.2004921,40.7545949 44.289717,46.9218532 C42.440058,52.8877904 50.7033063,59.3067002 52.6050938,60.6889858 L52.6050938,109.658563 C52.6050938,109.861682 52.6428419,114.71496 56.0221995,119.605986 C59.1175473,124.087179 65.7144847,129.431178 79.5680534,129.431178 C106.221838,129.431178 106.531013,109.856289 106.531013,109.658563 L106.531013,109.658563 Z M92.2561032,86.2909271 C92.2561032,86.7852424 91.8516588,87.1896823 91.3573379,87.1896823 C90.8630169,87.1896823 90.4585725,86.7852424 90.4585725,86.2909271 C90.4585725,85.7966117 90.8630169,85.3921718 91.3573379,85.3921718 C91.8516588,85.3921718 92.2561032,85.7966117 92.2561032,86.2909271 M91.3573379,83.5946614 C88.4219703,83.5946614 85.585467,85.4640723 85.4668299,85.5431627 C85.0533979,85.8181818 84.941951,86.3772076 85.2169732,86.7888375 C85.3913337,87.0494765 85.6753435,87.1896823 85.9647459,87.1896823 C86.1373089,87.1896823 86.3098718,87.1411495 86.4626619,87.0386914 C86.4788397,87.0297039 87.4207458,86.4113603 88.6969925,85.93502 C88.6808147,86.0536557 88.6610419,86.1686964 88.6610419,86.2909271 C88.6610419,87.7774682 89.87078,88.9871927 91.3573379,88.9871927 C92.8438957,88.9871927 94.0536338,87.7774682 94.0536338,86.2909271 C94.0536338,86.1704939 94.033861,86.0536557 94.0176832,85.938615 C95.2921324,86.4131578 96.2376336,87.0297039 96.2538113,87.0386914 C96.6654458,87.3137105 97.2262754,87.2022649 97.4977025,86.7870399 C97.7727247,86.3754101 97.6612778,85.8181818 97.2478458,85.5431627 C97.1292087,85.4640723 94.2927054,83.5946614 91.3573379,83.5946614 M68.8873061,86.2909271 C68.8873061,86.7852424 68.4846592,87.1896823 67.9885407,87.1896823 C67.4924223,87.1896823 67.0897754,86.7852424 67.0897754,86.2909271 C67.0897754,85.7966117 67.4924223,85.3921718 67.9885407,85.3921718 C68.4846592,85.3921718 68.8873061,85.7966117 68.8873061,86.2909271 M67.9885407,83.5946614 C65.0531732,83.5946614 62.2166698,85.4640723 62.0980328,85.5431627 C61.6846008,85.8181818 61.5731539,86.3772076 61.8481761,86.7888375 C62.020739,87.0494765 62.3065464,87.1896823 62.5959488,87.1896823 C62.7685118,87.1896823 62.9410747,87.1411495 63.0938648,87.0386914 C63.1100426,87.0297039 64.0519486,86.4113603 65.3281954,85.93502 C65.3120176,86.0536557 65.2922448,86.1686964 65.2922448,86.2909271 C65.2922448,87.7774682 66.5019829,88.9871927 67.9885407,88.9871927 C69.4750986,88.9871927 70.6848367,87.7774682 70.6848367,86.2909271 C70.6848367,86.1704939 70.6650639,86.0536557 70.6488861,85.938615 C71.9233353,86.4131578 72.8688364,87.0297039 72.8832167,87.0386914 C73.2966487,87.3137105 73.8538832,87.2022649 74.1289054,86.7870399 C74.4039276,86.3754101 74.2924807,85.8181818 73.8790487,85.5431627 C73.7604116,85.4640723 70.9239083,83.5946614 67.9885407,83.5946614 M98.1543405,79.9092257 C98.6001281,80.124927 99.1375897,79.9397834 99.3550909,79.4940008 C99.5707946,79.0482182 99.389244,78.5125601 98.9416589,78.2950613 C98.7061824,78.1764257 93.020593,75.4657799 84.6764557,78.2483261 C84.2055027,78.4047095 83.9520509,78.9134049 84.108436,79.3843527 C84.2342632,79.7618299 84.5847817,79.9991012 84.9604656,79.9991012 C85.0557347,79.9991012 85.1510038,79.9847212 85.2444754,79.952366 C92.84803,77.4160787 98.1004146,79.8822631 98.1543405,79.9092257 M74.4598308,78.2486856 C66.1085034,75.4625444 60.6206424,78.1821777 60.3905585,78.3008134 C59.9483659,78.5255022 59.7740055,79.0647553 59.9986968,79.5051454 C60.2215906,79.9491305 60.7608498,80.123489 61.2030423,79.9023952 C61.2551707,79.8790275 66.2954466,77.4218308 73.8918111,79.9527255 C73.9852827,79.9850807 74.0823494,79.9994607 74.175821,79.9994607 C74.5515049,79.9994607 74.9020233,79.7621894 75.0278505,79.3847122 C75.1842357,78.9137644 74.9307838,78.405069 74.4598308,78.2486856 M82.6918021,81.9574889 C82.2550022,81.722015 81.7103504,81.9341212 81.4748739,82.3709163 C81.3814023,82.5434773 80.5599308,84.1881993 80.4341037,85.4734193 C80.275921,87.0750011 80.4233185,92.8575922 80.4287111,93.0930661 C80.4430913,93.5819889 80.8421431,94.3800836 81.3274764,94.3800836 L81.3526418,94.3800836 C81.8487603,94.3800836 82.2406219,93.5478362 82.2262417,93.0517234 C82.2244442,92.994203 82.0752491,86.9455804 82.2226466,85.4572417 C82.2999405,84.6735272 82.8499848,83.528513 83.0549033,83.1492383 C83.2903798,82.7124433 83.1286021,82.1929627 82.6918021,81.9574889 M74.9681725,107.245046 C76.3990069,107.435582 78.1318264,107.674651 79.5680534,106.472116 C80.9899001,107.672853 82.6867691,107.442772 84.0942355,107.245046 C84.180517,107.232463 84.2596084,107.223475 84.3422948,107.21269 C84.3386997,107.216285 84.3351046,107.216285 84.3297121,107.21988 C84.265001,107.282793 82.7065419,108.760347 79.5680534,108.760347 C76.4493377,108.760347 74.8926762,107.304363 74.8099898,107.225273 C74.8639157,107.232463 74.9142466,107.237856 74.9681725,107.245046 M85.5969712,108.496113 C85.9456921,108.147396 85.9456921,107.584775 85.5987687,107.232463 C85.5412477,107.174943 85.471144,107.14079 85.4046354,107.103042 C86.6880723,107.038332 87.7180573,107.363681 88.6581658,109.173774 C88.8864522,109.617759 89.431104,109.788523 89.8697015,109.556644 C90.3100965,109.32836 90.4808619,108.785512 90.250778,108.345122 C88.4280819,104.830989 85.7767242,105.203074 83.8479738,105.46551 C82.1529025,105.700984 81.1516779,105.77648 80.2870656,104.626073 C79.9491299,104.1731 79.1887744,104.1731 78.8490411,104.626073 C77.9844289,105.77648 76.9544438,105.702782 75.2090416,105.463713 C73.2515307,105.203074 70.569615,104.836382 68.8709485,108.370287 C68.6570424,108.817867 68.8457831,109.355323 69.2915707,109.569227 C69.4173978,109.630342 69.5504151,109.659102 69.6816349,109.659102 C70.0159756,109.659102 70.3377335,109.470364 70.4923212,109.150407 C71.3641235,107.331326 72.4012987,107.031142 73.7170911,107.108435 C73.6577726,107.144385 73.5930615,107.173145 73.5409331,107.225273 C73.1886171,107.577585 73.1886171,108.145598 73.5409331,108.496113 C73.6236196,108.580596 75.6458415,110.557857 79.5680534,110.557857 C83.4902652,110.557857 85.5124872,108.580596 85.5969712,108.496113" id="logo_big"></path>
            </g>
        </g>
    </g>
</svg>
