<?xml version="1.0" encoding="UTF-8"?>
<svg width="183px" height="30px" viewBox="0 0 183 30" version="1.1" xmlns="http://www.w3.org/2000/svg" xmlns:xlink="http://www.w3.org/1999/xlink">
    <!-- Generator: Sketch Beta 43.2 (39056) - http://www.bohemiancoding.com/sketch -->
    <title>logo</title>
    <desc>Created with Sketch Beta.</desc>
    <defs></defs>
    <g id="Page-1" stroke="none" stroke-width="1" fill="none" fill-rule="evenodd">
        <g id="logo" fill="#000000">
            <path d="M15,28.8888889 C7.34111111,28.8888889 1.11111111,22.6588889 1.11111111,15 C1.11111111,7.34111111 7.34111111,1.11111111 15,1.11111111 C22.6588889,1.11111111 28.8888889,7.34111111 28.8888889,15 C28.8888889,22.6588889 22.6588889,28.8888889 15,28.8888889 L15,28.8888889 Z M15,0 C6.71555556,0 0,6.71555556 0,15 C0,23.2844444 6.71555556,30 15,30 C23.2844444,30 30,23.2844444 30,15 C30,6.71555556 23.2844444,0 15,0 L15,0 Z M19.8377778,16.0577778 C20.0544444,16.29 20.0544444,16.6666667 19.8377778,16.8988889 C19.7288889,17.0155556 19.5866667,17.0733333 19.4444444,17.0733333 C19.3022222,17.0733333 19.16,17.0155556 19.0511111,16.8988889 C18.8911111,16.73 18.5511111,16.4788889 18.3333333,16.4788889 C18.1155556,16.4788889 17.7755556,16.73 17.6144444,16.9011111 C17.3966667,17.1288889 17.0455556,17.13 16.8288889,16.8966667 C16.6133333,16.6633333 16.6133333,16.29 16.8288889,16.0577778 C16.9033333,15.9788889 17.57,15.2888889 18.3333333,15.2888889 C19.0977778,15.2888889 19.7633333,15.9788889 19.8377778,16.0577778 L19.8377778,16.0577778 Z M10.1622222,16.8966667 C9.94666667,16.6633333 9.94666667,16.29 10.1622222,16.0577778 C10.2366667,15.9788889 10.9022222,15.2888889 11.6666667,15.2888889 C12.43,15.2888889 13.0966667,15.9788889 13.1711111,16.0577778 C13.3877778,16.29 13.3877778,16.6666667 13.1711111,16.8988889 C13.0622222,17.0155556 12.92,17.0733333 12.7777778,17.0733333 C12.6355556,17.0733333 12.4933333,17.0155556 12.3844444,16.8988889 C12.2244444,16.73 11.8844444,16.4788889 11.6666667,16.4788889 C11.4488889,16.4788889 11.1088889,16.73 10.9477778,16.9011111 C10.73,17.1288889 10.3788889,17.13 10.1622222,16.8966667 L10.1622222,16.8966667 Z M21.5444444,8.71333333 C21.4966667,8.70444444 21.4233333,8.69111111 21.3633333,8.68 C21.3066667,8.67 21.2666667,8.66222222 21.1988889,8.65111111 C21.0411111,8.62333333 20.8544444,8.59333333 20.6388889,8.56111111 C20.5877778,8.55333333 20.5255556,8.54555556 20.4711111,8.53777778 C20.2955556,8.51222222 20.11,8.48666667 19.9033333,8.46 C19.8088889,8.44777778 19.7088889,8.43666667 19.61,8.42444444 C19.4177778,8.40222222 19.2211111,8.38 19.0077778,8.35777778 C18.8855556,8.34555556 18.7611111,8.33333333 18.6322222,8.32222222 C18.4144444,8.30222222 18.1877778,8.28333333 17.9522222,8.26555556 C17.8144444,8.25555556 17.6788889,8.24555556 17.5344444,8.23555556 C17.2733333,8.21888889 16.9988889,8.20666667 16.7188889,8.19444444 C16.5844444,8.18777778 16.4566667,8.18111111 16.3177778,8.17666667 C15.8944444,8.16222222 15.4577778,8.15222222 15,8.15222222 C14.5422222,8.15222222 14.1055556,8.16222222 13.6822222,8.17666667 C13.5433333,8.18111111 13.4155556,8.18777778 13.2811111,8.19444444 C13.0011111,8.20666667 12.7266667,8.21888889 12.4655556,8.23555556 C12.3211111,8.24555556 12.1855556,8.25555556 12.0477778,8.26555556 C11.8122222,8.28333333 11.5855556,8.30222222 11.3677778,8.32222222 C11.2388889,8.33333333 11.1144444,8.34555556 10.9922222,8.35777778 C10.7788889,8.38 10.5822222,8.40222222 10.39,8.42444444 C10.2911111,8.43666667 10.1911111,8.44777778 10.0966667,8.46 C9.89,8.48666667 9.70444444,8.51222222 9.52888889,8.53777778 C9.47444444,8.54555556 9.41222222,8.55333333 9.36111111,8.56111111 C9.14555556,8.59333333 8.95888889,8.62333333 8.80111111,8.65111111 C8.73333333,8.66222222 8.69333333,8.67 8.63666667,8.68 C8.57666667,8.69111111 8.50333333,8.70444444 8.45555556,8.71333333 C7.74111111,8.17111111 6.62,7.07 6.82111111,6.34222222 C6.93444444,5.93 7.85888889,4.58444444 15,4.58444444 C22.1411111,4.58444444 23.0655556,5.93 23.1788889,6.34222222 C23.38,7.07 22.2588889,8.17111111 21.5444444,8.71333333 L21.5444444,8.71333333 Z M16.9388889,9.39333333 C16.9677778,9.39444444 17,9.39555556 17.03,9.39666667 C17.0577778,9.39777778 17.0844444,9.4 17.1122222,9.40222222 C17.3677778,9.41555556 17.6122222,9.43222222 17.85,9.45 C17.9188889,9.45555556 17.9877778,9.46 18.0555556,9.46555556 C18.3011111,9.48555556 18.54,9.50666667 18.7644444,9.52888889 C18.8066667,9.53333333 18.8444444,9.53666667 18.8855556,9.54111111 C19.08,9.56111111 19.2644444,9.58111111 19.4411111,9.60222222 C19.4944444,9.60888889 19.5488889,9.61444444 19.6,9.62111111 C19.7911111,9.64444444 19.9733333,9.66777778 20.14,9.69111111 C20.18,9.69666667 20.2155556,9.70222222 20.2533333,9.70777778 C20.3922222,9.72666667 20.5211111,9.74666667 20.6388889,9.76444444 C20.6722222,9.77 20.7077778,9.77555556 20.74,9.78 C20.8733333,9.80111111 20.9944444,9.82111111 21.0955556,9.83888889 C21.1011111,9.84 21.1055556,9.84111111 21.1111111,9.84111111 L21.1111111,10.7044444 C20.4811111,10.9311111 18.9811111,11.3933333 16.9711111,11.6066667 C17.1266667,11.2822222 17.2222222,10.92 17.2222222,10.5311111 C17.2222222,10.1166667 17.1133333,9.73222222 16.9388889,9.39333333 L16.9388889,9.39333333 Z M13.8888889,10.5311111 C13.8888889,9.87555556 14.3866667,9.34222222 15,9.34222222 C15.6133333,9.34222222 16.1111111,9.87555556 16.1111111,10.5311111 C16.1111111,11.1866667 15.6133333,11.7211111 15,11.7211111 C14.3866667,11.7211111 13.8888889,11.1866667 13.8888889,10.5311111 L13.8888889,10.5311111 Z M13.0288889,11.6066667 C11.0188889,11.3933333 9.51888889,10.9311111 8.88888889,10.7044444 L8.88888889,9.84111111 C8.89444444,9.84111111 8.89888889,9.84 8.90444444,9.83888889 C9.00777778,9.82111111 9.13,9.80111111 9.26444444,9.77888889 C9.29222222,9.77444444 9.32333333,9.77 9.35222222,9.76555556 C9.47777778,9.74666667 9.61555556,9.72555556 9.76444444,9.70444444 C9.79444444,9.70111111 9.82222222,9.69666667 9.85333333,9.69222222 C10.0244444,9.66888889 10.2111111,9.64444444 10.4088889,9.62 C10.4544444,9.61444444 10.5022222,9.60888889 10.5488889,9.60333333 C10.7333333,9.58222222 10.9277778,9.56 11.1322222,9.54 C11.1655556,9.53666667 11.1966667,9.53222222 11.2311111,9.52888889 C11.4588889,9.50666667 11.7011111,9.48555556 11.9511111,9.46555556 C12.0144444,9.46 12.08,9.45555556 12.1455556,9.45 C12.3877778,9.43222222 12.6366667,9.41555556 12.8966667,9.40111111 C12.9211111,9.4 12.9444444,9.39777778 12.9688889,9.39666667 C12.9988889,9.39555556 13.0311111,9.39444444 13.0611111,9.39333333 C12.8866667,9.73222222 12.7777778,10.1166667 12.7777778,10.5311111 C12.7777778,10.92 12.8733333,11.2822222 13.0288889,11.6066667 L13.0288889,11.6066667 Z M21.1111111,18.2611111 C21.1111111,18.2911111 21.0833333,21.2355556 19.4444444,21.2355556 C18.5188889,21.2355556 18.0933333,20.8955556 17.5555556,20.4633333 C17.2322222,20.2033333 16.8733333,19.9333333 16.4122222,19.7344444 C16.5655556,19.4333333 16.6444444,19.11 16.6666667,18.8577778 L16.6666667,15.1588889 C17.2444444,15.0355556 18.4333333,14.8844444 19.8911111,15.2722222 C20.1922222,15.3533333 20.49,15.1544444 20.5644444,14.8377778 C20.6377778,14.5188889 20.4555556,14.1955556 20.1588889,14.1166667 C17.7811111,13.4866667 16.0111111,14.1033333 15.9355556,14.13 C15.7088889,14.2111111 15.5555556,14.4377778 15.5555556,14.6944444 L15.5588889,18.7922222 C15.5411111,18.9477778 15.45,19.4522222 15,19.4522222 C14.55,19.4522222 14.4588889,18.9477778 14.4444444,18.8577778 L14.4444444,14.6944444 C14.4444444,14.4377778 14.2911111,14.2111111 14.0644444,14.13 C13.99,14.1033333 12.2166667,13.4877778 9.80888889,14.1166667 C9.51111111,14.1944444 9.32888889,14.5155556 9.40111111,14.8344444 C9.47333333,15.1533333 9.77111111,15.3522222 10.0711111,15.2722222 C11.5433333,14.8877778 12.75,15.0377778 13.3333333,15.1611111 L13.3366667,18.9166667 C13.3577778,19.1433333 13.4322222,19.4477778 13.5811111,19.7366667 C13.1233333,19.9355556 12.7666667,20.2044444 12.4444444,20.4633333 C11.9066667,20.8955556 11.4811111,21.2355556 10.5555556,21.2355556 C8.91666667,21.2355556 8.88888889,18.2911111 8.88888889,18.2611111 L8.88888889,11.9544444 C9.98555556,12.3177778 12.1922222,12.91 15,12.91 C17.8077778,12.91 20.0144444,12.3177778 21.1111111,11.9544444 L21.1122222,18.2533333 C21.1122222,18.2566667 21.1111111,18.2588889 21.1111111,18.2611111 L21.1111111,18.2611111 Z M21.1111111,21.7777778 C21.1111111,21.9744444 20.6477778,26.5888889 14.9988889,26.5888889 C9.38333333,26.5888889 8.90444444,21.9722222 8.88888889,21.8311111 L8.88888889,21.6677778 C9.29888889,22.1144444 9.83222222,22.4255556 10.5555556,22.4255556 C11.8522222,22.4255556 12.5211111,21.8877778 13.1111111,21.4144444 C13.6488889,20.9822222 14.0744444,20.6411111 15,20.6411111 C15.9255556,20.6411111 16.3511111,20.9822222 16.8888889,21.4144444 C17.4788889,21.8877778 18.1466667,22.4255556 19.4433333,22.4255556 C20.1677778,22.4255556 21.1111111,22.1144444 21.1111111,21.6655556 L21.1111111,21.7777778 Z M15,3.39555556 C9.18222222,3.39555556 6.24333333,4.22444444 5.75444444,6.00777778 C5.32111111,7.59 7.07555556,9.11888889 7.77777778,9.65555556 L7.78,18.2544444 C7.78,18.2577778 7.77777778,18.26 7.77777778,18.2622222 L7.77777778,18.2944444 L7.77777778,21.8833333 C7.77777778,21.9422222 8.34555556,27.7777778 14.9988889,27.7777778 C21.6522222,27.7777778 22.2144444,21.9422222 22.2222222,21.8311111 L22.2222222,9.65555556 C22.9244444,9.11888889 24.6788889,7.59 24.2455556,6.00777778 C23.7566667,4.22444444 20.8177778,3.39555556 15,3.39555556 L15,3.39555556 Z" id="Page-1"></path>
            <path d="M42.08,15.775 C42.08,16.802 42.444,17.673 43.159,18.401 C43.887,19.116 44.758,19.48 45.785,19.48 C46.812,19.48 47.683,19.116 48.398,18.401 C49.126,17.673 49.49,16.802 49.49,15.775 L49.49,10.9 C49.49,10.471 49.139,10.12 48.71,10.12 C48.281,10.12 47.93,10.471 47.93,10.9 L47.93,15.775 C47.93,16.36 47.722,16.867 47.293,17.296 C46.877,17.712 46.37,17.92 45.785,17.92 C45.2,17.92 44.693,17.712 44.264,17.296 C43.848,16.867 43.64,16.36 43.64,15.775 C43.64,15.346 43.289,14.995 42.86,14.995 C42.431,14.995 42.08,15.346 42.08,15.775 Z M53.13975,18.323 L57.65075,10.497 C57.97575,9.99 58.67775,9.99 59.00275,10.497 L63.51375,18.323 C63.57875,18.466 63.60475,18.583 63.60475,18.7 C63.60475,19.129 63.25375,19.48 62.82475,19.48 C62.52575,19.48 62.27875,19.324 62.09675,18.999 L61.25175,17.53 L55.38875,17.53 L54.54375,18.999 C54.36175,19.324 54.12775,19.48 53.82875,19.48 C53.39975,19.48 53.04875,19.129 53.04875,18.7 C53.04875,18.557 53.07475,18.44 53.13975,18.323 Z M60.35475,15.97 L58.32675,12.447 L56.28575,15.97 L60.35475,15.97 Z M76.3934999,18.7 C76.3934999,19.129 76.7444999,19.48 77.1734999,19.48 C77.6024999,19.48 77.9534999,19.129 77.9534999,18.7 L77.9534999,10.9 C77.9534999,10.224 77.1084999,9.86 76.6144999,10.354 L72.6234999,14.345 L68.6194999,10.341 C68.4504999,10.198 68.2684999,10.12 68.0734999,10.12 C67.6444999,10.12 67.2934999,10.471 67.2934999,10.9 L67.2934999,18.7 C67.2934999,19.129 67.6444999,19.48 68.0734999,19.48 C68.5024999,19.48 68.8534999,19.129 68.8534999,18.7 L68.8534999,12.785 L72.0644999,16.009 C72.2074999,16.152 72.4024999,16.23 72.6234999,16.23 C72.8444999,16.23 73.0264999,16.152 73.1694999,16.009 L76.3934999,12.785 L76.3934999,18.7 Z M82.1622499,18.7 C82.1622499,19.129 82.5132499,19.48 82.9422499,19.48 L89.4422499,19.48 C89.8712499,19.48 90.2222499,19.129 90.2222499,18.7 C90.2222499,18.271 89.8712499,17.92 89.4422499,17.92 L83.7222499,17.92 L83.7222499,15.58 L88.1422499,15.58 C88.5712499,15.58 88.9222499,15.229 88.9222499,14.8 C88.9222499,14.371 88.5712499,14.02 88.1422499,14.02 L83.7222499,14.02 L83.7222499,11.68 L89.4422499,11.68 C89.8712499,11.68 90.2222499,11.329 90.2222499,10.9 C90.2222499,10.471 89.8712499,10.12 89.4422499,10.12 L82.9422499,10.12 C82.5132499,10.12 82.1622499,10.471 82.1622499,10.9 L82.1622499,18.7 Z M97.5379998,17.92 C96.7319998,17.92 95.8869998,17.751 95.0159998,17.426 C94.6129998,17.283 94.1969998,17.465 94.0279998,17.894 C93.8719998,18.297 94.1059998,18.765 94.5089998,18.908 C95.4059998,19.285 96.4069998,19.48 97.5379998,19.48 L97.9279998,19.48 C99.1109998,19.48 100.06,19.233 100.788,18.752 C101.529,18.271 101.893,17.595 101.893,16.75 C101.893,15.853 101.529,15.164 100.814,14.709 C100.099,14.254 99.1369998,14.02 97.9279998,14.02 C96.3289998,14.02 95.5229998,13.63 95.5229998,12.85 C95.5229998,12.07 96.3289998,11.68 97.9279998,11.68 C98.8119998,11.68 99.6569998,11.849 100.463,12.174 C100.931,12.317 101.256,12.148 101.438,11.693 C101.594,11.29 101.386,10.9 100.957,10.705 C100.06,10.315 99.0589998,10.12 97.9279998,10.12 C96.7449998,10.12 95.7959998,10.367 95.0549998,10.848 C94.3269998,11.329 93.9629998,12.005 93.9629998,12.85 C93.9629998,13.747 94.3269998,14.436 95.0419998,14.891 C95.7569998,15.346 96.7189998,15.58 97.9279998,15.58 C99.5269998,15.58 100.333,15.97 100.333,16.75 C100.333,17.53 99.5269998,17.92 97.9279998,17.92 L97.5379998,17.92 Z M114.9385,18.7 C114.9385,19.129 115.2895,19.48 115.7185,19.48 C116.1475,19.48 116.4985,19.129 116.4985,18.7 L116.4985,11.68 L119.6185,11.68 C120.0475,11.68 120.3985,11.329 120.3985,10.9 C120.3985,10.471 120.0475,10.12 119.6185,10.12 L111.8185,10.12 C111.3895,10.12 111.0385,10.471 111.0385,10.9 C111.0385,11.329 111.3895,11.68 111.8185,11.68 L114.9385,11.68 L114.9385,18.7 Z M124.08725,18.7 L124.08725,10.9 C124.08725,10.471 124.43825,10.12 124.86725,10.12 L128.83225,10.12 C129.65125,10.133 130.35325,10.445 130.93825,11.043 C131.52325,11.628 131.82225,12.343 131.82225,13.175 C131.82225,13.825 131.64025,14.41 131.26325,14.943 C130.88625,15.463 130.40525,15.827 129.80725,16.048 L131.92625,18.154 C132.06925,18.323 132.14725,18.505 132.14725,18.7 C132.18625,19.376 131.25025,19.74 130.82125,19.259 L127.79225,16.23 L125.64725,16.23 L125.64725,18.7 C125.64725,19.129 125.29625,19.48 124.86725,19.48 C124.43825,19.48 124.08725,19.129 124.08725,18.7 Z M128.83225,11.68 L125.64725,11.68 L125.64725,14.67 L128.76725,14.67 C129.17025,14.67 129.52125,14.527 129.82025,14.228 C130.11925,13.929 130.26225,13.578 130.26225,13.175 C130.26225,12.772 130.11925,12.434 129.83325,12.148 C129.56025,11.849 129.22225,11.693 128.83225,11.68 Z M135.667,18.323 L140.178,10.497 C140.503,9.99 141.205,9.99 141.53,10.497 L146.041,18.323 C146.106,18.466 146.132,18.583 146.132,18.7 C146.132,19.129 145.781,19.48 145.352,19.48 C145.053,19.48 144.806,19.324 144.624,18.999 L143.779,17.53 L137.916,17.53 L137.071,18.999 C136.889,19.324 136.655,19.48 136.356,19.48 C135.927,19.48 135.576,19.129 135.576,18.7 C135.576,18.557 135.602,18.44 135.667,18.323 Z M142.882,15.97 L140.854,12.447 L138.813,15.97 L142.882,15.97 Z M152.60275,19.103 C152.92775,19.61 153.62975,19.61 153.95475,19.103 L158.46575,11.277 C158.53075,11.16 158.55675,11.03 158.55675,10.9 C158.55675,10.471 158.20575,10.12 157.77675,10.12 C157.46475,10.12 157.21775,10.276 157.04875,10.601 L153.27875,17.153 L149.49575,10.601 C149.32675,10.276 149.07975,10.12 148.78075,10.12 C148.35175,10.12 148.00075,10.471 148.00075,10.9 C148.00075,11.056 148.02675,11.186 148.09175,11.277 L152.60275,19.103 Z M162.2455,18.7 C162.2455,19.129 162.5965,19.48 163.0255,19.48 L169.5255,19.48 C169.9545,19.48 170.3055,19.129 170.3055,18.7 C170.3055,18.271 169.9545,17.92 169.5255,17.92 L163.8055,17.92 L163.8055,15.58 L168.2255,15.58 C168.6545,15.58 169.0055,15.229 169.0055,14.8 C169.0055,14.371 168.6545,14.02 168.2255,14.02 L163.8055,14.02 L163.8055,11.68 L169.5255,11.68 C169.9545,11.68 170.3055,11.329 170.3055,10.9 C170.3055,10.471 169.9545,10.12 169.5255,10.12 L163.0255,10.12 C162.5965,10.12 162.2455,10.471 162.2455,10.9 L162.2455,18.7 Z M174.254249,18.7 C174.254249,19.129 174.605249,19.48 175.034249,19.48 L181.534249,19.48 C181.963249,19.48 182.314249,19.129 182.314249,18.7 C182.314249,18.271 181.963249,17.92 181.534249,17.92 L175.814249,17.92 L175.814249,10.9 C175.814249,10.471 175.463249,10.12 175.034249,10.12 C174.605249,10.12 174.254249,10.471 174.254249,10.9 L174.254249,18.7 Z" id="James-Travel"></path>
        </g>
    </g>
</svg>