<?xml version="1.0" encoding="UTF-8"?>
<svg width="786px" height="1141px" viewBox="0 0 786 1141" version="1.1" xmlns="http://www.w3.org/2000/svg" xmlns:xlink="http://www.w3.org/1999/xlink">
    <!-- Generator: Sketch Beta 43.2 (39056) - http://www.bohemiancoding.com/sketch -->
    <title>map-shengen</title>
    <desc>Created with Sketch Beta.</desc>
    <defs></defs>
    <g id="web" stroke="none" stroke-width="1" fill="none" fill-rule="evenodd">
        <g id="1420/content-copy" transform="translate(-634.000000, -337.000000)">
            <g id="map-shengen" transform="translate(634.000000, 338.000000)">
                <path d="M147.029488,358.779688 C150.105504,352.626815 154.206857,354.677773 158.308211,353.652294 C158.308211,353.652294 160.358888,354.677773 162.409565,353.652294 C164.460241,353.652294 167.536257,349.550378 169.586934,348.524899 C170.612272,351.601336 166.510918,356.72873 167.536257,358.779688 C169.586934,363.907083 174.713626,359.805167 175.738964,365.958041 C176.764302,373.136393 165.48558,377.238309 170.612272,386.467619 C173.688287,389.544056 178.814979,390.569534 180.865656,394.67145 C183.941671,397.747887 182.916333,401.849802 185.992348,404.926239 C188.043025,408.002676 193.169717,405.951718 196.245732,410.053634 C200.347086,416.206507 197.271071,416.206507 194.195055,419.282944 C191.11904,422.359381 188.043025,422.359381 185.992348,426.461296 C182.916333,430.563212 185.992348,433.639649 178.814979,434.665128 C176.764302,434.665128 175.738964,431.588691 173.688287,431.588691 C171.63761,431.588691 169.586934,434.665128 167.536257,434.665128 C162.409565,436.716085 157.282873,438.767043 152.15618,441.84348 C144.978812,445.945396 133.700089,449.021832 142.928135,437.741564 C143.953473,436.716085 150.105504,431.588691 151.130842,430.563212 C155.232196,428.512254 160.358888,429.537733 163.434903,426.461296 C157.282873,420.308423 139.85212,427.486775 148.054827,415.181028 C151.130842,411.079113 156.257534,411.079113 158.308211,405.951718 C162.409565,397.747887 159.333549,397.747887 156.257534,393.645971 C155.232196,392.620492 155.232196,388.518577 154.206857,387.493098 C153.181519,386.467619 150.105504,387.493098 149.080165,386.467619 C143.953473,379.289266 147.029488,379.289266 147.029488,372.110914 C147.029488,370.059956 149.080165,370.059956 149.080165,366.98352 C149.080165,365.958041 142.416069,369.546613 142.416069,367.495655 C141.390731,362.36826 146.00415,356.72873 150.105504,354.677773 M125.498589,388.518577 C128.574605,389.544056 134.726635,389.544056 138.827989,390.569534 C139.853327,390.569534 141.904004,389.544056 143.954681,391.595013 C148.056035,395.696929 141.904004,396.722408 141.904004,400.824324 C141.904004,406.977197 146.005358,411.079113 138.827989,418.257465 C136.777312,420.308423 133.701297,421.333902 130.625282,423.38486 C128.574605,425.435817 127.549266,431.588691 121.397236,430.563212 C110.118513,429.537733 122.422574,420.308423 123.447913,417.231986 C127.549266,408.002676 116.270544,409.028155 116.270544,399.798845 C116.270544,395.696929 121.397236,386.467619 125.498589,387.493098 M1210.28972,434.66392 C1211.31506,442.867751 1221.56844,446.969667 1228.74581,446.969667 C1232.84717,446.969667 1240.02454,442.867751 1242.07521,445.944188 C1247.20191,451.071582 1233.87251,454.148019 1231.82183,457.224456 C1229.77115,461.326371 1233.87251,468.504724 1231.82183,471.581161 C1225.6698,479.784992 1223.61912,469.530203 1220.54311,466.453766 C1213.36574,459.275414 1215.41641,464.402808 1215.41641,470.555682 C1215.41641,475.683076 1218.49243,472.606639 1214.39108,476.708555 C1213.36574,477.734034 1208.23905,477.734034 1207.21371,479.784992 C1202.08702,475.683076 1199.011,454.148019 1209.26438,456.198977 C1211.31506,447.995146 1202.08702,441.842272 1209.26438,434.66392 M1222.85223,483.629632 C1231.05494,499.011816 1224.64446,502.34432 1226.69514,518.751983 C1227.72048,525.930335 1231.82183,534.134166 1231.82183,541.312519 C1230.79649,548.490871 1220.54311,555.669223 1221.56844,544.388955 C1212.3404,549.51635 1215.41641,563.873055 1201.06168,554.643745 C1199.011,558.74566 1203.11235,566.949491 1199.011,570.025928 C1192.85897,576.178802 1191.83363,560.796618 1192.85897,556.694702 C1187.73228,557.720181 1183.63092,558.74566 1179.52957,560.796618 C1177.47889,561.822097 1173.37754,563.873055 1171.32686,565.924013 C1169.27619,566.949491 1166.20017,562.847576 1165.17483,569.000449 C1165.17483,571.051407 1169.27619,574.127844 1169.27619,577.204281 C1170.30152,581.306196 1169.27619,582.331675 1169.27619,586.433591 C1168.25085,590.535506 1168.25085,596.68838 1168.25085,600.790296 C1163.12416,601.815774 1161.07348,593.611943 1159.0228,590.535506 C1157.99746,587.45907 1152.87077,583.357154 1151.84543,579.255238 C1150.82009,567.97497 1159.0228,556.694702 1169.27619,550.541829 C1177.47889,545.414434 1189.78295,548.490871 1192.85897,539.261561 C1193.88431,535.159645 1193.88431,511.57363 1201.06168,524.904856 C1210.28972,519.777462 1215.41641,491.064052 1210.28972,482.861429 C1212.3404,480.810471 1215.41641,480.810471 1219.51777,481.83595 L1222.85223,483.629632 Z M1177.47889,572.075678 C1179.52957,568.999241 1183.63092,567.973762 1186.70694,567.973762 C1188.75762,573.101157 1189.78295,583.355946 1183.63092,583.355946 C1175.42822,584.381425 1174.40288,572.075678 1181.58025,568.999241 M489.776328,914.324735 C495.928359,917.401172 490.441772,928.937508 494.543125,936.11586 C499.669817,943.294212 500.110628,940.217776 500.110628,949.447086 L500.110628,965.854749 C500.110628,981.236932 497.61914,988.415285 485.315079,996.619116 C476.087034,1002.77199 460.487156,1012.0013 454.335125,1021.23061 C448.183095,1029.43444 453.711952,1029.43444 456.787967,1037.63827 C459.863982,1047.89306 452.888299,1049.94402 444.685592,1054.04593 C437.508223,1057.12237 438.633801,1060.19881 435.557785,1068.40264 C433.507109,1075.58099 428.43114,1079.68291 425.355125,1087.88674 C417.152418,1101.21796 412.051087,1113.52371 396.671011,1120.70206 C392.569657,1122.75302 387.45625,1123.7785 382.329558,1124.80398 C376.177527,1127.88042 372.082212,1133.00781 365.930182,1135.05877 C356.702136,1138.13521 352.604406,1135.05877 344.401698,1135.05877 C335.173653,1135.05877 331.073507,1145.31356 325.946815,1134.03329 C322.870799,1128.9059 322.872007,1120.70206 322.872007,1115.57467 C321.846669,1107.37084 319.795992,1103.26892 316.719976,1096.09057 C314.6693,1088.91222 314.6693,1087.88674 309.542608,1081.73387 C304.415916,1076.60647 302.365239,1072.50456 302.365239,1066.35168 C301.3399,1050.9695 297.238547,1041.74019 294.162531,1027.38469 C291.086516,1018.15538 290.061178,1015.07894 284.934486,1006.87511 C282.883809,1001.74772 279.807794,993.543887 279.807794,987.391014 C279.807794,974.059788 290.061178,965.855956 295.18787,954.575688 C298.263885,946.371857 296.213208,944.320899 293.137193,937.142547 C292.111855,936.117068 290.061178,932.015152 289.035839,929.964194 C289.035839,926.887758 292.111855,924.8368 292.111855,921.760363 C292.111855,918.683926 284.934486,901.250785 281.85847,898.174348 C274.681102,890.995996 266.478394,886.89408 262.377041,876.639291 C260.326364,872.537375 259.301025,868.43546 258.275687,864.333544 C258.275687,858.180671 260.326364,858.180671 262.377041,852.027797 C263.402379,847.925882 261.351702,844.849445 262.377041,840.747529 C263.402379,837.671092 266.478394,835.620135 266.478394,832.543698 C266.478394,822.288909 256.22501,828.441782 249.047641,829.467261 C236.74358,831.518219 225.464858,824.339867 230.59155,811.008641 C229.566211,813.059599 216.236812,815.110556 213.160797,816.136035 C207.008766,817.161514 202.907413,815.110556 196.755382,815.110556 C189.578013,814.085078 187.527336,818.186993 181.375306,821.26343 C170.096583,827.416303 162.919215,821.26343 151.640492,820.237951 C142.412446,818.186993 142.412446,823.314388 135.235077,826.390824 C126.007032,830.49274 126.007032,821.26343 119.855001,815.110556 C110.626956,805.881246 100.886844,804.855767 94.734814,792.55002 C90.6334603,784.346189 86.5321067,774.0914 78.3293994,767.938527 C73.2027073,764.86209 66.0253384,762.811132 65,755.63278 C65,752.556343 65.8055368,735.123201 67.8562136,733.072244 C68.881552,729.995807 71.3730398,731.021286 73.7884424,726.91937 L73.7884424,719.741018 C73.7884424,714.613623 70.6399651,707.742069 70.6399651,707.742069 L65.5132731,707.742069 C64.4879346,690.831934 76.7919956,672.210251 87.0453797,659.904504 C92.1720718,652.726152 98.3241023,646.753251 104.476133,641.625856 C112.67884,635.472983 109.089552,631.973793 111.140229,622.744482 C113.190905,615.56613 115.241582,607.150922 119.342936,600.998049 C124.469628,592.794217 134.723012,591.663654 140.875043,584.485302 C142.925719,581.408865 144.976396,575.202845 148.052411,574.177366 C155.22978,572.126409 152.153765,576.201751 154.204442,577.22723 L156.255119,580.29038 C157.280457,580.29038 160.356472,579.258862 161.381811,579.258862 C163.432488,579.258862 165.483164,580.280717 167.533841,581.306196 C171.635195,581.306196 175.736549,581.304988 178.812564,578.228552 C183.939256,576.177594 187.015271,570.023512 193.167302,568.998034 C198.293994,567.972555 203.420686,568.998034 207.522039,567.972555 C211.623393,566.947076 214.699408,564.896118 219.8261,564.896118 C224.952792,564.896118 230.079484,566.947076 235.206177,565.921597 C240.332869,564.896118 241.358207,560.794202 247.510237,560.794202 C251.611591,560.794202 253.662268,562.84516 257.763622,562.84516 C263.915652,562.84516 265.966329,558.743244 270.067683,556.692287 C271.093021,560.794202 269.042344,565.921597 269.042344,570.023512 C268.017006,580.278302 257.763622,595.660485 272.118359,598.736922 C278.27039,599.762401 285.447759,595.660485 291.599789,598.736922 C294.675804,599.762401 294.675804,603.864317 296.726481,604.889795 C300.827835,607.966232 299.802497,606.940753 303.90385,607.966232 C308.005204,608.991711 311.081219,606.940753 314.157234,610.01719 C317.23325,612.068148 318.7779,614.341353 318.258588,617.195542 C317.23325,622.835072 329.537311,622.322937 332.613326,613.093627 C335.689341,603.864317 340.816033,581.30378 356.196109,595.660485 C358.246786,597.711443 357.221448,600.78788 362.34814,602.838838 C364.398817,603.864317 366.449493,603.864317 369.525509,603.864317 C375.677539,604.889795 379.778893,604.889795 385.930923,607.966232 C398.234984,614.119106 402.336338,615.144585 416.691076,612.068148 C428.995137,610.01719 440.273859,612.068148 446.42589,597.711443 C448.476566,591.55857 449.501905,586.431175 449.501905,579.252823 C449.501905,573.099949 451.552582,568.998034 452.57792,563.870639 C448.476566,563.870639 442.324536,561.819681 437.197844,564.896118 C432.071152,567.972555 432.071152,574.125428 424.893783,573.099949 C417.716414,572.07447 419.767091,564.896118 414.640399,564.896118 C407.46303,564.896118 411.564384,567.972555 407.46303,570.023512 C401.310999,572.07447 397.209646,568.998034 390.032277,565.921597 C384.905585,563.870639 381.82957,565.921597 383.880246,557.717766 C381.82957,554.641329 378.753554,553.61585 375.677539,552.590371 C377.728216,544.38654 373.626862,542.083138 369.525509,535.930264 C366.449493,531.828349 371.576185,533.80925 365.424155,532.601383 C366.449493,532.601383 355.170771,532.601383 356.196109,532.601383 C344.917387,536.224984 359.272124,543.108617 361.322801,548.236011 C363.373478,554.388885 360.297463,553.490232 358.246786,556.566668 C357.221448,559.643105 356.196109,561.244737 356.196109,566.372131 C350.044079,564.321173 351.069417,570.249384 349.01874,574.351299 C347.993402,574.351299 344.917387,573.213489 343.892048,573.213489 C342.86671,568.086094 338.765356,554.699306 332.613326,555.724785 C330.562649,548.546433 332.613326,540.314821 328.511972,533.136468 C326.461295,529.034553 325.435957,524.918143 323.38528,520.817435 C322.359942,518.766477 317.23325,511.580877 315.182573,509.52992 C310.055881,506.453483 305.954527,509.526296 301.853173,507.475338 C295.701143,504.398901 297.75182,502.346736 294.675804,497.219341 C291.599789,492.091947 287.498436,495.167176 284.42242,492.090739 C281.346405,489.014302 281.346405,483.886908 277.245051,481.83595 C272.631632,487.47548 285.447759,505.420757 291.599789,513.624588 C296.726481,519.777462 320.309265,525.416992 316.207911,539.261561 C305.442462,527.981293 305.954527,554.643745 296.726481,555.669223 C297.75182,547.465392 303.90385,542.466031 295.701143,534.2622 C288.523774,525.03289 273.143698,530.032251 268.017006,517.726504 C265.966329,514.393999 262.890314,513.752622 260.839637,511.701664 C254.687606,507.599748 255.712945,501.896201 250.586253,498.819765 C245.459561,495.743328 238.282192,499.556563 234.180838,502.633 C232.130161,504.683958 231.104823,509.667616 228.028808,509.667616 C223.927454,509.667616 222.902116,504.46775 220.851439,504.46775 C212.648731,502.416792 214.699408,507.507951 213.67407,514.686303 C211.623393,523.915613 210.598055,521.846537 202.395347,525.948453 C196.243317,530.050369 195.217978,534.142621 193.167302,541.320974 C191.116625,549.524805 188.04061,550.545452 182.913917,556.698326 C177.787225,563.876678 179.837902,564.899741 169.584518,565.92522 C164.457826,566.950699 157.280457,569.000449 152.153765,569.000449 C143.951058,570.025928 144.976396,564.898534 139.849704,562.847576 C132.672335,561.822097 130.621658,569.000449 126.520305,561.822097 C125.494966,560.796618 125.494966,555.669223 124.469628,552.592787 C121.393613,547.465392 121.393613,551.567308 118.317597,549.51635 C113.190905,546.439913 113.190905,552.592787 114.216244,544.388955 C115.241582,532.083208 131.646997,523.879377 118.317597,510.548151 C123.44429,506.446236 130.621658,507.471715 130.621658,499.267883 C136.773689,499.267883 141.900381,499.267883 148.052411,500.293362 C154.204442,501.318841 165.483164,507.471715 170.609857,505.420757 C176.761887,503.369799 174.71121,490.038573 174.71121,484.911179 C175.736549,474.656389 174.71121,477.732826 166.508503,474.656389 C175.736549,461.325164 156.255119,463.376121 148.052411,461.325164 C148.052411,449.019417 165.483164,456.197769 170.609857,453.121332 C173.685872,451.070374 170.609857,445.94298 173.685872,443.892022 C176.761887,441.841064 180.863241,446.968459 182.913917,449.019417 C182.913917,447.993938 184.964594,445.94298 185.989933,443.892022 C192.141963,445.94298 193.167302,439.790106 195.217978,436.71367 C196.243317,433.637233 196.243317,432.611754 198.293994,430.560796 C199.319332,429.535317 203.420686,429.535317 205.471363,428.509838 C212.648731,422.356965 213.67407,410.051218 223.927454,406.974781 C228.028808,405.949302 234.180838,409.025739 238.282192,403.898345 C239.30753,401.847387 237.256853,393.643555 239.30753,389.54164 C240.332869,386.465203 244.434222,386.465203 245.459561,382.363287 C246.484899,380.31233 243.408884,377.235893 243.408884,374.159456 C244.434222,370.057541 248.535576,363.904667 252.63693,364.930146 C253.662268,369.032062 256.738283,376.210414 256.738283,381.337809 C256.738283,387.490682 251.611591,386.465203 256.738283,393.643555 C263.915652,401.847387 279.295728,389.54164 282.371744,401.847387 C289.549112,399.796429 299.802497,387.972621 305.954527,388.9981 C309.030542,388.9981 310.055881,396.111227 314.157234,399.734828 L328.511972,399.734828 C343.892048,396.111227 325.435957,386.947142 323.38528,381.819747 C323.38528,380.794268 324.410618,369.78577 324.410618,368.760292 C326.461295,362.607418 326.461295,364.281521 332.613326,363.256043 C337.740018,363.256043 338.765356,366.144052 341.841371,361.016658 C343.892048,357.940221 340.816033,350.667655 341.841371,347.591218 C345.942725,335.285471 356.196109,343.442196 363.373478,339.34028 C366.449493,337.289322 368.50017,329.062541 365.424155,325.986105 C363.373478,323.935147 357.221448,326.989842 354.145432,328.015321 C344.917387,331.091758 332.613326,347.796555 330.562649,332.094287 L323.38528,332.094287 C322.359942,323.639219 313.131896,317.748453 315.182573,307.493664 C316.207911,303.391748 319.283926,298.782529 320.309265,294.680613 C322.359942,289.553218 321.334603,289.299566 325.435957,285.197651 C332.613326,278.019298 346.968064,273.790557 340.816033,261.48481 C337.740018,255.331936 327.486634,252.192691 321.334603,257.320085 C316.207911,262.44748 318.258588,270.619906 317.23325,276.771572 C315.182573,286.000882 309.030542,284.959701 305.954527,291.112574 C304.929189,294.189011 305.954527,298.282472 305.954527,301.358909 C304.929189,304.435345 301.853173,307.508158 300.827835,310.584595 C297.75182,317.762948 295.701143,321.862447 301.853173,326.989842 C308.005204,333.142715 317.23325,333.141508 306.979865,342.370818 C301.853173,347.498212 297.75182,347.498212 295.701143,355.700836 C294.675804,360.82823 297.75182,369.032062 292.625128,373.133977 C290.574451,375.184935 286.473097,374.159456 284.42242,375.184935 C281.346405,377.235893 280.321067,382.363287 277.245051,383.388766 C266.991667,388.516161 269.042344,378.261372 268.017006,372.108498 C265.966329,363.904667 261.864975,363.904667 260.839637,355.700836 C259.814298,350.573441 267.503733,346.471526 257.763622,340.318652 C251.51256,336.370136 244.434222,343.395089 241.358207,348.522483 C233.1555,359.802751 227.003469,374.159456 217.775424,354.675357 C212.648731,346.471526 212.648731,344.420568 215.724747,335.191258 C216.750085,331.089342 219.8261,324.936468 210.598055,326.987426 C211.623393,312.630721 214.699408,309.554285 227.003469,302.375932 C229.054146,301.350453 232.130161,299.299496 234.180838,298.274017 C236.231515,296.223059 235.206177,292.121143 237.256853,290.070185 C242.383545,284.942791 247.510237,285.96827 251.611591,278.789917 C257.763622,269.560607 258.78896,256.229381 264.940991,245.974592 C268.017006,240.847198 274.169036,236.745282 273.143698,230.592409 C272.118359,222.388577 265.966329,226.490493 272.118359,218.286662 C273.143698,217.261183 276.219713,217.261183 277.245051,215.210225 C278.27039,214.184746 277.245051,212.133788 278.27039,211.108309 C279.295728,209.057351 279.295728,207.006394 281.346405,204.955436 C285.447759,199.828041 294.675804,201.878999 299.802497,197.777083 C301.853173,195.726126 300.827835,192.649689 304.929189,189.573252 C306.979865,188.547773 311.081219,187.522294 313.131896,186.496815 C317.23325,184.445858 319.283926,179.318463 323.38528,177.267505 C326.461295,176.242026 336.714679,178.292984 339.790695,178.292984 C345.942725,179.318463 346.968064,180.343942 353.120094,179.318463 C373.626862,178.292984 355.170771,188.547773 362.34814,196.751605 C370.550847,195.726126 370.550847,186.496815 379.778893,192.649689 C381.82957,194.700647 380.804231,198.802562 383.880246,200.85352 C385.930923,201.878999 390.032277,200.85352 392.082954,200.85352 C405.412353,202.904478 416.691076,209.057351 428.995137,216.235704 C443.349874,224.439535 440.273859,239.821719 424.893783,244.949113 C414.640399,249.051029 394.965737,244.32827 394.965737,244.32827 C391.889721,249.455664 395.160177,252.127466 397.210853,257.25486 C398.236192,260.331297 397.210853,266.48417 399.26153,268.535128 C400.286869,268.535128 413.616268,277.764439 413.616268,277.764439 C425.920329,277.764439 403.362884,260.331297 418.74296,260.331297 C423.869652,260.331297 430.021683,268.535128 434.123036,265.458692 C438.22439,262.382255 435.148375,251.101987 442.325744,245.974592 C446.427097,242.898156 453.604466,244.949113 456.680481,241.872677 C459.756497,238.79624 457.70582,226.490493 455.655143,223.414056 C453.604466,218.286662 444.900563,220.613013 448.477774,213.159267 C454.629805,200.341385 457.70582,207.006394 461.807173,212.133788 C464.883189,217.261183 460.781835,223.414056 465.908527,227.515972 C475.136573,235.719803 476.161911,222.388577 479.237926,217.261183 C483.33928,211.108309 489.491311,213.159267 496.66868,207.006394 C502.82071,201.878999 502.82071,197.777083 512.048756,198.802562 C514.099433,203.929957 511.023417,207.006394 513.074094,211.108309 C521.276801,210.08283 526.403493,199.828041 536.656878,198.802562 C537.682216,205.980915 540.758231,210.08283 544.859585,201.878999 C547.9356,194.700647 543.834246,190.598731 539.732893,185.471337 C537.682216,183.420379 522.30214,174.191069 531.530186,172.140111 C534.606201,171.114632 538.707554,176.242026 541.78357,177.267505 C547.9356,180.343942 553.062292,180.343942 559.214323,181.369421 C566.391692,183.420379 570.493045,185.471337 576.645076,188.547773 C579.721091,190.598731 582.797106,190.598731 585.873121,192.649689 C588.949137,194.700647 592.025152,199.828041 595.101167,200.85352 C600.227859,201.878999 602.278536,199.828041 601.253198,194.700647 C601.253198,186.496815 593.05049,186.496815 588.949137,182.3949 C587.923798,181.369421 588.949137,177.267505 587.923798,175.216547 C585.873121,173.16559 581.771768,174.191069 579.721091,172.140111 C577.670414,170.089153 573.56906,161.885322 572.543722,159.834364 C571.518384,153.68149 576.645076,146.503138 578.695753,141.375743 C579.721091,136.248349 579.721091,131.120954 579.721091,125.99356 C579.721091,121.891644 576.645076,113.687813 579.721091,111.636855 C586.89846,106.50946 586.89846,119.840686 585.873121,122.917123 C589.974475,123.942602 597.151844,122.917123 600.227859,124.968081 C606.37989,130.095475 602.278536,136.248349 604.329213,142.401222 C606.37989,147.528617 611.506582,149.579575 613.557259,155.732448 C616.633274,161.885322 614.582597,165.987237 618.683951,172.140111 C623.810643,179.318463 627.911996,189.573252 629.962673,198.802562 C630.988012,203.929957 630.988012,212.133788 628.937335,217.261183 C625.86132,222.388577 618.683951,221.363098 616.633274,226.490493 C626.886658,227.515972 630.988012,227.515972 633.038688,216.235704 C634.064027,211.108309 634.064027,204.955436 636.114704,199.828041 C637.140042,191.62421 637.140042,183.420379 645.342749,188.547773 C651.49478,191.62421 652.520118,202.904478 661.748164,200.85352 C661.748164,196.751605 657.64681,189.573252 656.621472,186.496815 C651.49478,178.292984 650.469441,180.343942 642.266734,178.292984 C629.962673,175.216547 621.759966,169.063674 627.911996,155.732448 C617.658612,151.630532 618.683951,146.503138 618.683951,137.273828 C617.658612,130.095475 616.633274,122.917123 616.633274,114.713292 C623.810643,121.891644 621.759966,135.22287 626.886658,143.426701 C628.937335,147.528617 638.16538,155.732448 638.16538,145.477659 C638.16538,140.350264 629.962673,139.324786 630.988012,132.146433 C632.01335,133.171912 635.089365,132.146433 637.140042,132.146433 C637.140042,125.99356 629.962673,124.968081 628.937335,118.815207 C627.911996,110.611376 629.962673,109.585897 634.064027,114.713292 C638.16538,118.815207 638.16538,125.99356 643.292073,129.069996 C648.418765,131.120954 656.621472,125.99356 660.722826,130.095475 C664.824179,134.197391 660.722826,140.350264 662.773502,144.45218 C664.824179,148.554096 667.900194,147.528617 669.950871,149.579575 C673.026887,152.656011 672.001548,151.630532 674.052225,155.732448 C675.077563,156.757927 673.026887,159.834364 674.052225,160.859843 C676.102902,163.936279 678.153579,161.885322 680.204255,162.9108 C684.305609,165.987237 689.432301,173.16559 692.508316,162.9108 C682.254932,164.961758 681.229594,148.554096 678.153579,142.401222 C677.12824,140.350264 675.077563,137.273828 674.052225,136.248349 C674.052225,135.22287 674.052225,130.095475 673.026887,130.095475 C668.925533,123.942602 665.849518,127.019039 659.697487,122.917123 C655.596133,119.840686 655.596133,112.662334 652.520118,110.611376 C647.393426,107.534939 641.241396,113.687813 638.16538,106.50946 C634.064027,97.2801502 656.621472,105.483981 663.798841,105.483981 C664.824179,108.560418 664.824179,112.662334 664.824179,115.738771 C669.950871,116.764249 674.052225,108.560418 672.001548,104.458503 C669.950871,97.2801502 663.798841,100.356587 659.697487,97.2801502 C655.596133,95.2291923 653.545457,90.1017978 654.570795,84.9744032 C655.596133,80.8724876 656.621472,80.8724876 658.672149,78.8215298 C659.697487,77.7960509 661.748164,77.7960509 662.773502,75.745093 C663.798841,74.7196141 662.773502,71.6431774 663.798841,70.6176985 C668.925533,65.4903039 674.052225,66.5157828 678.153579,62.4138672 C683.280271,58.3119516 682.527873,51.1335992 688.679903,48.0571624 C691.755918,47.0316835 693.350084,47.0316835 698.180889,46.0062046 C703.011695,50.1081203 711.237348,41.904289 708.161333,36.7768944 C713.288025,35.7514155 720.840989,36.7768944 720.840989,30.624021 C720.840989,28.5730631 714.87736,23.4456686 713.852022,20.3692318 C711.801345,17.2927951 711.895545,14.2163584 711.895545,11.1399216 C712.920884,-7.31869876 730.398737,-0.140346379 732.449414,13.1908795 C737.576106,12.1654006 741.700406,8.06348491 746.827098,13.1908795 C748.877775,15.2418373 748.889852,22.4201897 750.940529,26.5221053 C751.965867,23.4456686 755.047921,13.1908795 757.098598,12.1654006 C764.275967,7.038006 767.354397,16.2673162 771.455751,18.318274 C777.607782,21.3947108 779.659666,17.2927951 785.811697,17.2927951 C795.039742,18.318274 790.938389,23.4456686 791.963727,29.598542 C792.989065,36.7768944 798.115757,40.8788101 799.141096,48.0571624 C800.166434,55.2355148 796.065081,59.3374305 795.039742,66.5157828 C794.014404,69.5922196 795.039742,73.6941352 794.014404,75.745093 C792.989065,79.8470087 789.91305,80.8724876 787.862373,82.9234454 C785.811697,88.05084 784.786358,96.2546713 786.837035,100.356587 C789.91305,96.2546713 788.887712,91.1272767 791.963727,87.0253611 C795.039742,81.8979665 800.166434,81.8979665 801.191773,75.745093 C802.217111,73.6941352 799.141096,67.5412618 805.293126,65.4903039 C811.445157,64.464825 814.521172,70.6176985 815.54651,74.7196141 C818.622526,69.5922196 823.235945,72.6046394 826.825233,73.6941352 C829.003926,71.9632621 825.799895,70.6176985 825.799895,69.5922196 C829.901248,62.4138672 835.02794,56.2609937 843.230648,56.2609937 C856.560047,56.2609937 851.433355,64.464825 854.50937,72.6686563 C858.610724,72.6686563 868.864108,69.5922196 872.965462,67.5412618 C878.092154,64.464825 876.041477,67.5412618 876.041477,61.3883883 C876.041477,58.3119516 868.864108,51.1335992 877.066815,48.0571624 C881.168169,47.0316835 888.345538,53.184557 893.47223,52.1590781 C898.598922,52.1590781 905.776291,48.0571624 910.902983,51.1335992 C912.95366,52.1590781 911.928321,56.2609937 915.004337,58.3119516 C917.055013,60.3629094 922.181705,59.3374305 925.257721,61.3883883 C933.460428,67.5412618 931.409751,73.6941352 926.283059,78.8215298 C932.43509,81.8979665 943.713812,98.3056291 950.891181,93.1782345 C965.245919,84.9744032 942.688474,71.6431774 942.688474,64.464825 C949.865843,63.4393461 952.941858,72.6686563 959.093888,72.6686563 C964.22058,72.6686563 966.271257,61.3883883 973.448626,64.464825 C979.600657,67.5412618 973.448626,74.7196141 983.70201,73.6941352 C989.854041,73.6941352 992.930056,67.5412618 985.752687,65.4903039 C986.778025,64.464825 989.854041,63.4393461 991.904717,63.4393461 C991.904717,55.2355148 985.752687,60.3629094 982.676672,56.2609937 C979.600657,53.184557 984.727349,48.0571624 985.752687,44.9807257 C980.625995,43.9552468 973.448626,39.8533312 979.600657,35.7514155 C983.70201,32.6749788 989.854041,37.8023733 994.980733,37.8023733 C999.082086,37.8023733 1003.18344,32.6749788 1008.31013,32.6749788 C1013.43682,32.6749788 1016.51284,40.8788101 1021.63953,36.7768944 C1019.58885,39.8533312 1015.4875,42.9297679 1015.4875,48.0571624 C1028.8169,55.2355148 1023.69021,35.7514155 1027.79156,30.624021 C1030.86758,27.5475842 1043.17164,26.5221053 1046.24765,28.5730631 C1049.32367,31.6494999 1048.29833,38.8278522 1047.27299,41.904289 C1051.37435,42.9297679 1055.4757,41.904289 1058.55171,42.9297679 C1059.57705,42.9297679 1059.57705,46.0062046 1060.60239,46.0062046 C1062.65307,47.0316835 1064.70374,44.9807257 1067.77976,46.0062046 C1069.83044,46.0062046 1067.77976,50.1081203 1070.85578,50.1081203 C1073.93179,50.1081203 1077.00781,48.0571624 1079.05848,47.0316835 C1084.18517,44.9807257 1089.37587,45.4940691 1091.42655,41.3921535 L1095.4639,40.8147931 C1099.02058,41.0068439 1108.7933,37.8023733 1113.91999,37.8023733 C1128.27473,36.7768944 1133.40142,41.904289 1132.37608,56.2609937 C1137.50277,56.2609937 1142.62946,54.2100359 1146.73082,60.3629094 C1152.88285,56.2609937 1150.83217,49.0826414 1159.03488,47.0316835 C1165.18691,46.0062046 1172.36428,50.1081203 1176.46563,42.9297679 C1177.49097,38.8278522 1174.41495,25.4966264 1185.69368,29.598542 C1191.84571,32.6749788 1188.76969,40.8788101 1187.74435,46.0062046 C1193.89638,44.9807257 1195.94706,49.0826414 1200.04842,52.1590781 C1215.42849,42.9297679 1200.04842,35.7514155 1197.99774,25.4966264 C1194.92172,14.2163584 1205.17511,16.2673162 1213.37781,17.2927951 C1225.68188,19.3437529 1237.98594,16.2673162 1250.28879,18.318274 C1255.41548,19.3437529 1257.46616,21.3947108 1261.56751,23.4456686 C1267.71954,26.5221053 1269.77022,24.4711475 1277.97293,24.4711475 C1288.22631,24.4711475 1298.4797,27.5475842 1305.65706,35.7514155 C1308.73308,39.8533312 1320.0118,52.1590781 1325.13849,41.904289 C1329.23985,34.7259366 1317.96113,27.5475842 1326.16383,20.3692318 C1327.18917,21.3947108 1330.26519,25.4966264 1331.29052,25.4966264 C1334.36654,26.5221053 1337.44255,25.4966264 1339.49323,26.5221053 C1346.6706,28.5730631 1347.69594,32.6749788 1347.69594,40.8788101 C1346.6706,43.9552468 1344.61992,43.9552468 1345.64526,48.0571624 C1345.64526,50.1081203 1347.69594,55.2355148 1348.72128,57.2864726 C1349.74662,60.3629094 1349.74662,61.3883883 1352.82263,65.4903039 C1354.87331,69.5922196 1358.97466,69.5922196 1360,75.745093 C1354.87331,77.7960509 1344.61992,78.8215298 1339.49323,76.770572 C1336.41722,75.745093 1337.44255,71.6431774 1332.31586,71.6431774 C1330.26519,71.6431774 1329.23985,76.770572 1325.13849,76.770572 C1321.03714,76.770572 1308.73308,67.5412618 1307.70774,78.8215298 C1307.70774,82.9234454 1312.83443,82.9234454 1314.88511,84.9744032 C1317.96113,88.05084 1320.0118,93.1782345 1322.06248,97.2801502 C1334.36654,124.968081 1302.58105,97.2801502 1300.53037,113.687813 C1299.50503,123.942602 1309.75842,113.687813 1314.88511,115.738771 C1323.08782,119.840686 1313.98779,117.276385 1327.31719,112.150198 C1331.16251,114.970567 1337.44255,111.638063 1339.49323,114.713292 C1341.54391,116.764249 1339.49323,118.815207 1340.51857,121.891644 C1343.59459,128.044518 1357.94932,138.299307 1342.56925,140.350264 C1336.41722,140.350264 1334.36654,137.273828 1329.23985,143.426701 C1326.16383,147.528617 1326.16383,155.732448 1323.08782,160.859843 C1318.98646,167.012716 1312.83443,169.063674 1311.80909,177.267505 C1310.78376,182.3949 1313.85977,187.522294 1314.88511,192.649689 C1308.73308,195.726126 1300.53037,181.369421 1293.353,187.522294 C1290.27699,189.573252 1292.32766,198.802562 1289.25165,199.828041 C1286.17563,201.878999 1285.1503,198.802562 1285.1503,195.726126 C1275.92225,198.802562 1271.8209,223.414056 1275.92225,231.617888 C1280.0236,240.847198 1285.1503,230.592409 1290.27699,233.668845 C1295.40368,236.745282 1292.32766,243.923634 1293.353,249.051029 C1294.37834,253.152945 1300.53037,257.25486 1299.50503,262.382255 C1298.4797,269.560607 1293.353,266.48417 1292.32766,272.637044 C1291.30233,279.815396 1302.58105,282.891833 1304.63173,286.993749 C1307.70774,293.146622 1296.42902,297.248538 1294.37834,304.42689 C1292.32766,310.579764 1296.42902,314.681679 1295.40368,320.834553 C1294.37834,321.860032 1292.32766,324.936468 1292.32766,326.987426 C1291.30233,331.089342 1292.32766,335.191258 1291.30233,338.267694 C1290.27699,344.420568 1287.20097,348.522483 1286.17563,353.649878 C1286.17563,355.700836 1283.09962,373.133977 1278.99827,364.930146 C1277.97293,361.853709 1283.09962,352.624399 1284.12496,348.522483 C1285.1503,340.318652 1283.09962,338.267694 1277.97293,333.1403 C1270.79556,325.961947 1273.87157,320.834553 1269.77022,313.6562 C1266.6942,308.528806 1256.31522,306.477848 1252.21387,302.375932 C1245.0365,294.172101 1242.86022,283.917312 1242.86022,274.688002 L1242.86022,261.356776 C1242.86022,258.280339 1245.0365,256.229381 1245.0365,254.178424 C1244.01116,252.127466 1243.56189,245.974592 1243.56189,244.949113 C1243.56189,235.719803 1245.9,242.898156 1251.0267,237.770761 C1254.10271,234.694324 1252.19575,226.490493 1252.19575,222.388577 C1253.22109,211.108309 1258.42024,200.85352 1262.5216,191.62421 C1263.54693,188.547773 1265.63384,189.573252 1265.63384,185.471337 L1262.57594,180.343942 C1260.52527,176.242026 1258.48304,172.140111 1257.4577,169.063674 C1256.43237,165.987237 1257.46254,158.808885 1254.38652,156.757927 C1248.23449,152.656011 1243.11021,161.885322 1244.13555,167.012716 C1245.16089,171.114632 1251.31413,173.16559 1251.31413,177.267505 C1251.31413,181.369421 1246.18864,185.471337 1243.11263,188.547773 C1241.06195,192.649689 1240.03661,199.828041 1235.93526,191.62421 C1234.90992,189.573252 1235.93526,182.3949 1235.93526,179.318463 C1227.73255,176.242026 1230.80857,186.496815 1226.70721,188.547773 C1220.55518,192.649689 1216.45383,184.445858 1212.35248,193.675168 C1209.27646,200.85352 1209.27646,215.210225 1209.27646,223.414056 C1216.45383,225.465014 1219.52985,223.414056 1216.45383,230.592409 C1214.40315,236.745282 1204.14977,243.923634 1199.02308,245.974592 C1195.94706,241.872677 1196.9724,236.745282 1201.07375,232.643366 C1199.02308,230.592409 1186.71902,226.490493 1183.643,228.541451 C1179.54165,230.592409 1180.56699,235.719803 1178.51631,237.770761 C1175.44029,240.847198 1171.33894,239.821719 1167.23759,239.821719 C1160.06022,240.847198 1160.06022,242.898156 1153.90819,245.974592 C1146.73082,249.051029 1144.68014,243.923634 1139.55345,251.101987 C1131.35074,261.356776 1130.3254,275.713481 1125.19871,288.019228 C1121.09736,297.248538 1119.04668,309.554285 1114.94533,318.783595 C1118.02134,318.783595 1121.09736,316.732637 1124.17337,317.758116 C1130.3254,320.834553 1126.22405,328.012905 1130.3254,330.063863 C1135.4521,334.165779 1139.55345,329.038384 1141.60413,326.987426 C1145.70548,322.885511 1141.04134,319.809074 1150.26938,321.860032 C1167.70014,326.987426 1163.14952,347.497004 1169.18802,361.852501 C1174.01883,379.285643 1183.079,393.642348 1175.90164,411.074281 C1167.69893,427.481944 1175.66976,472.601808 1147.98683,472.601808 C1149.01217,470.55085 1148.38416,468.499892 1148.38416,466.448935 C1136.0801,464.397977 1135.25282,482.856597 1134.22749,490.03495 C1133.20215,495.162344 1131.2505,498.238781 1128.17449,503.366175 C1125.09847,510.544528 1123.09731,511.570007 1127.19866,516.697401 C1136.42671,525.926711 1144.65357,527.977669 1145.67891,542.334374 C1145.67891,547.461769 1145.69099,552.589163 1141.58963,555.6656 C1140.56429,557.716558 1126.2156,564.89491 1125.19026,564.89491 C1119.03823,562.843952 1125.19388,556.691079 1124.16854,552.589163 C1123.1432,548.487247 1120.0684,547.461769 1119.04306,544.385332 C1119.04306,542.334374 1120.0696,540.283416 1120.0696,537.206979 C1120.0696,535.156022 1121.09494,524.901232 1119.04427,522.850275 C1112.89223,520.799317 1109.81622,536.181501 1106.7402,524.901232 C1104.68953,518.748359 1111.8669,501.315218 1096.48682,505.417133 C1086.23344,507.468091 1086.23344,523.875754 1074.95471,523.875754 C1072.90404,519.773838 1087.25877,493.111386 1073.92938,498.238781 C1066.75201,501.315218 1070.85336,509.519049 1066.75201,514.646443 C1062.65065,519.773838 1055.47328,516.697401 1052.39727,525.926711 C1060.59998,527.977669 1060.59998,538.232458 1066.75201,538.232458 C1073.92938,538.232458 1080.08141,526.95219 1088.28411,531.054106 C1101.61351,537.206979 1082.13208,544.817748 1077.00539,549.945143 C1072.90404,554.047058 1065.72667,565.212579 1073.92938,568.836179 C1087.25877,567.628313 1087.25877,581.734989 1087.25877,589.93882 C1095.46148,589.93882 1098.5375,603.565973 1092.38547,607.667889 C1099.56284,612.795284 1097.51216,621.659818 1094.43614,627.812691 C1093.4108,629.863649 1092.38547,631.732219 1092.38547,633.783177 C1092.38547,633.783177 1089.30945,634.718066 1088.28411,635.743545 C1087.25877,639.845461 1089.30945,643.901477 1087.25877,648.003393 C1085.2081,653.130787 1081.10674,657.209754 1079.05607,662.337148 C1077.00539,666.439064 1074.95471,670.528901 1071.8787,673.605338 C1067.77734,676.681774 1061.62531,677.701214 1056.49862,679.752172 C1051.37193,682.828608 1051.37193,685.902629 1045.2199,686.928108 C1038.04253,687.953587 1038.04253,686.9269 1031.8905,690.003337 L1024.71313,693.078566 C1025.73847,693.078566 1022.66245,698.205961 1023.68779,697.180482 C1023.68779,697.180482 1026.76381,702.307876 1022.66245,701.282397 C1018.5611,700.256918 1020.61178,697.180482 1018.5611,694.104045 C1015.48509,688.97665 1017.53576,686.925693 1009.33306,691.027608 C1007.28238,692.053087 1005.2317,695.129524 1003.18102,696.155003 C1001.13035,697.180482 997.028994,697.310931 994.978317,698.33641 C984.724933,703.463805 986.77561,712.572328 991.902302,721.027396 C996.003656,734.313931 1014.45975,736.27913 1019.58644,748.583669 C1027.78915,767.042289 1021.63712,773.642074 1007.28238,784.922342 C1003.18102,789.024257 996.003656,795.913929 989.851625,794.888451 C982.674256,793.862972 987.800948,791.66707 986.77561,788.590633 C985.750272,783.390766 983.699595,785.405488 982.674256,783.35453 C978.572903,780.278094 978.572903,782.310934 975.496887,776.15806 C973.446211,772.056144 975.496887,771.02221 972.420872,766.920295 C966.268842,760.767421 957.040796,762.813548 956.015458,753.584238 C948.838089,758.711632 944.736735,780.244273 948.838089,787.422626 C950.888766,790.499063 953.964781,791.523334 956.015458,795.625249 C958.066134,798.701686 958.066134,802.802394 961.14215,805.878831 C965.243503,811.006225 972.420872,811.006225 977.547564,815.108141 C982.674256,819.210056 983.699595,822.286493 983.699595,828.439367 C983.699595,831.515803 982.674256,834.59224 983.699595,837.668677 C984.724933,840.745113 987.800948,842.796071 988.826287,845.872508 C993.952979,863.30565 968.319519,845.872508 964.218165,839.719635 C958.066134,830.490324 958.066134,818.184577 950.888766,808.955267 C942.686058,798.700478 935.508689,798.700478 938.584705,783.318294 C940.635381,775.114463 943.711397,765.885153 941.66072,757.681322 C939.610043,746.401054 933.458013,735.120786 928.33132,724.865997 C924.229967,731.01887 925.255305,735.120786 916.02726,738.197222 C908.849891,740.24818 905.773875,740.24818 903.723199,733.069828 C901.672522,721.78956 905.773875,715.636686 898.596507,705.381897 C894.495153,700.254503 889.368461,696.152587 886.292446,691.025192 C884.241769,685.897798 885.267107,677.693967 877.0644,678.719446 C877.0644,678.719446 871.937708,682.821361 870.912369,683.84684 C867.836354,684.872319 864.760339,682.821361 862.709662,683.84684 C858.608308,684.872319 860.658985,688.974235 856.557632,689.999714 C852.456278,691.025192 851.43094,684.872319 847.329586,687.948756 C846.304247,688.974235 844.253571,696.152587 843.228232,697.178066 C841.177555,700.254503 837.076202,700.254503 835.025525,702.30546 C830.924171,708.458334 835.025525,715.636686 828.873494,719.738602 C821.696126,724.865997 819.645449,723.840518 815.544095,732.044349 C814.518757,736.146265 815.544095,738.197222 811.442741,740.24818 C807.341388,742.299138 805.290711,737.171743 801.189357,739.222701 C795.037327,742.299138 797.088004,765.885153 797.088004,772.038026 C797.088004,780.241858 800.164019,780.241858 795.037327,786.394731 C792.98665,790.496647 782.733266,801.776915 777.606574,798.700478 C776.581235,798.700478 775.555897,792.547605 774.530559,791.522126 C773.50522,787.42021 769.403867,789.471168 766.327851,787.42021 C762.226498,784.343773 761.201159,779.216379 760.175821,774.088984 C759.150482,769.987069 759.150482,765.885153 758.125144,761.783237 C757.099806,757.681322 755.049129,756.655843 752.998452,753.579406 C750.947775,749.47749 750.947775,747.426533 749.922437,744.350096 C747.87176,737.171743 740.205272,731.01887 738.154595,723.840518 C736.103918,718.713123 735.614799,711.534771 735.614799,706.407376 L735.614799,679.744924 C727.16089,680.770403 733.027903,694.101629 725.850534,698.203545 C720.723842,701.279982 707.126333,696.152587 705.075656,689.999714 C703.024979,680.770403 723.909758,684.872319 712.631036,677.693967 C705.453667,673.592051 697.440569,679.744924 696.41523,668.464656 C689.237861,669.490135 689.332062,662.311783 691.382739,657.184388 C683.180031,659.235346 676.049763,659.235346 668.872394,659.235346 C658.61901,658.209867 647.364441,659.235346 637.111057,659.235346 C633.009704,659.235346 626.86975,659.235346 622.768396,657.184388 C618.667043,655.133431 618.673081,651.031515 616.622404,647.955078 C607.394359,638.725768 603.296628,644.878641 593.043244,646.929599 C586.891214,648.980557 586.892421,645.90412 581.765729,642.827684 C578.689714,640.776726 571.513553,638.725768 569.462876,636.67481 C566.386861,632.572895 561.260169,613.088795 551.007992,617.190711 C538.703931,621.292627 555.109346,635.649331 558.185361,640.776726 C564.337392,648.980557 564.337392,658.209867 565.36273,666.413699 C568.438745,663.337262 568.438745,647.955078 574.590776,658.209867 C577.666791,663.337262 572.540099,672.566572 581.768145,673.592051 C580.742806,673.592051 592.825858,668.208589 597.148221,669.490135 C600.224236,666.413699 598.173559,657.184388 605.350928,657.184388 C611.502959,657.184388 610.47762,665.38822 614.578974,668.464656 C618.680328,672.566572 623.80702,672.566572 627.908373,675.643009 C637.136419,681.795882 632.009727,684.872319 629.95905,692.050671 C628.933712,694.101629 630.984388,698.203545 629.95905,700.254503 C628.933712,704.356418 624.832358,703.330939 623.80702,706.407376 C621.756343,709.483813 623.80702,711.534771 622.781681,714.611207 C621.756343,719.738602 622.781681,716.662165 617.654989,719.738602 C612.528297,722.815039 610.47762,723.840518 606.376267,728.967912 C601.249575,734.095307 601.249575,733.069828 594.072206,734.095307 C590.99619,735.120786 583.818821,735.120786 579.717468,736.146265 C575.616114,738.197222 574.344405,742.299138 570.243051,745.375575 C563.065682,751.528448 543.589083,750.502969 535.135174,756.655843 C526.681265,757.681322 526.153499,760.757758 516.925454,760.757758 C515.900115,748.452011 516.536574,740.24818 509.359205,729.993391 C504.232513,723.840518 502.499461,718.713123 499.423446,712.56025 C496.347431,705.381897 490.354817,702.30546 486.253463,695.127108 C482.15211,687.948756 487.35851,685.897798 485.307833,679.744924 C483.257156,672.566572 470.99295,670.515614 465.866258,666.413699 C458.688889,660.260825 460.758889,655.133431 457.682873,647.955078 C454.606858,641.802205 445.388474,637.700289 447.439151,631.547416 C441.6132,623.599652 438.731625,628.02286 433.089244,627.4455 C428.98789,635.649331 443.345044,650.006036 446.421059,657.184388 C451.547751,666.413699 457.700989,676.668488 461.802343,684.872319 C464.878358,689.999714 464.878358,693.07615 465.903696,699.229024 C467.954373,705.381897 475.131742,710.509292 478.207757,716.662165 C480.258434,721.78956 479.233096,727.942433 483.334449,733.069828 C487.435803,739.222701 492.562495,743.324617 497.689187,747.426533 C502.815879,752.553927 505.891894,757.681322 509.993248,763.834195 C513.069263,768.96159 520.246632,778.1909 525.373324,781.267337 C533.576032,785.369252 547.930769,774.088984 557.158815,772.038026 C561.260169,771.012548 570.488214,764.859674 574.589568,767.936111 C576.640245,771.012548 570.488214,783.318294 569.462876,786.394731 C567.412199,791.522126 565.361522,797.674999 564.336184,802.802394 C562.285507,808.955267 564.336184,814.082662 560.23483,819.210056 C558.184153,824.337451 555.108138,825.36293 551.006785,828.439367 C547.930769,831.515803 545.880093,836.643198 541.778739,840.745113 C534.60137,847.923466 530.500016,848.948945 522.297309,854.076339 C517.170617,857.152776 517.170617,860.229213 514.094602,864.331128 C509.993248,869.458523 504.866556,870.484002 499.739864,874.585918 C491.537157,881.76427 486.410465,895.095496 486.410465,906.375764 C485.194309,910.062173 489.776328,913.299256 489.776328,914.324735 Z M386.955054,515.16341 C386.442989,513.625796 384.904377,513.112453 384.392312,512.086974 C383.366973,506.959579 387.468327,508.498401 390.031069,505.9341 C393.107084,502.857663 390.543135,499.781227 391.056408,496.192654 C392.081746,492.090739 395.669827,492.604082 397.720503,489.014302 C399.257907,485.937865 397.208438,482.349293 399.77118,479.784992 C400.796519,478.247377 402.847195,478.247377 403.872534,477.221899 C405.923211,475.684284 405.923211,473.119983 408.485953,472.094504 C413.099372,469.531411 412.074033,474.145462 415.150049,475.683076 C418.226064,477.220691 421.814145,473.632118 423.864821,476.195212 C427.452902,480.297127 421.302079,480.809263 419.251402,482.348085 C415.663322,485.936657 419.763468,485.424522 421.302079,488.500959 C422.840691,491.577395 420.790014,494.140489 424.378094,495.165968 C427.966175,495.678103 429.504787,491.064052 432.580802,489.526438 C435.656817,488.500959 439.758171,490.038573 442.834186,486.963344 C449.498282,478.759513 432.068736,481.83595 433.094075,476.19642 C433.60614,471.582368 437.707494,472.607847 440.783509,471.582368 C444.884863,470.044754 447.960878,466.454974 452.062232,464.917359 C454.112908,463.891881 461.290277,462.354266 462.315616,466.454974 C463.340954,470.043546 456.163585,472.607847 453.600843,474.145462 C454.626181,477.221899 456.164793,479.272856 454.626181,482.861429 C453.088778,486.450001 449.499489,487.47548 453.600843,490.551916 C455.65152,492.089531 459.752874,493.11501 462.315616,495.165968 C465.391631,497.216925 467.954373,499.780019 471.030388,502.34432 C473.593131,503.881934 477.694484,504.395278 479.745161,506.446236 C482.309111,508.497194 482.821176,512.599109 483.333242,515.675546 C484.35858,524.904856 478.20655,522.853898 471.029181,522.340555 C464.365085,522.340555 458.72512,526.954606 452.573089,522.85269 C449.497074,521.315076 447.95967,517.725296 444.883655,516.699817 C441.80764,515.162202 439.244898,516.699817 436.168882,516.187681 C428.479448,515.675546 425.915498,514.136724 419.763468,519.776254 C416.175387,522.339347 414.636776,522.339347 411.048695,522.85269 C406.435276,523.364826 403.359261,525.929127 398.744634,525.929127 C393.617942,525.929127 384.903169,526.441263 385.928508,519.776254 L386.955054,515.16341 Z M533.063966,474.144254 C538.190658,472.093296 541.778739,463.377329 547.930769,463.377329 C551.51885,463.377329 549.981446,465.428287 552.544188,466.453766 C555.620204,467.479245 559.721557,464.916152 562.797572,463.890673 C564.334976,469.018067 569.974941,482.861429 560.746896,482.349293 C558.696219,482.349293 554.0828,478.760721 552.032123,480.298335 C549.468173,481.83595 551.006785,486.451209 549.981446,488.502167 C548.956108,489.527645 546.905431,488.502167 546.905431,491.06526 C546.905431,493.116218 548.956108,493.116218 549.981446,494.141697 C554.0828,496.70479 554.594865,496.70479 556.645542,501.320049 C558.696219,505.935308 559.208284,503.883142 563.309638,505.421965 C567.923057,506.959579 566.385653,508.498401 565.87238,512.086974 C565.359107,518.239847 568.435122,523.367242 568.435122,529.520115 C568.947188,534.64751 569.972526,532.596552 573.561814,535.672989 C576.637829,538.749425 575.099218,541.312519 576.124556,544.902299 C577.149895,550.029693 582.788652,552.592787 581.763314,558.233525 C581.250041,562.847576 578.175233,563.360919 573.560607,563.873055 C570.484591,563.873055 566.383238,564.38519 562.795157,562.847576 C559.207076,561.309961 557.1564,557.208046 553.055046,555.669223 C548.441627,554.643745 544.852339,556.694702 542.801662,550.541829 C541.26305,546.953257 541.776323,538.236082 543.827,534.64751 C546.903016,529.00798 555.105723,528.494636 546.903016,522.855106 C542.801662,520.292013 537.67497,518.241055 536.137566,513.625796 C535.624293,511.062703 536.137566,509.52388 534.598955,506.960787 C533.573616,504.909829 531.010874,502.858871 529.472263,500.807913 C527.933651,498.756956 527.421586,495.680519 525.884182,494.142904 C524.34557,492.091947 521.270763,493.117426 519.732151,490.554332 C516.656136,486.452417 521.270763,479.787408 524.858843,477.73645 C526.396247,476.710971 527.934859,476.710971 529.985536,476.198835 C532.549485,474.661221 534.086889,472.610263 536.137566,470.559305 M615.601897,468.504724 C620.215316,469.016859 617.652574,476.708555 618.165847,479.784992 C618.165847,484.912386 619.703251,493.116218 611.501751,491.06526 C605.862994,489.527645 606.375059,480.810471 606.888332,476.708555 C607.400397,472.606639 607.400397,473.632118 610.476413,472.094504 C612.527089,471.069025 614.577766,472.094504 615.089832,468.505932 M927.813217,352.114679 C927.813217,349.551586 928.838555,346.987285 929.351828,344.424191 C929.863893,341.347755 928.838555,336.733703 929.863893,334.169402 C931.401297,330.067487 934.477312,332.118444 936.015924,335.194881 C937.041262,338.271318 936.015924,341.347755 936.529197,343.910848 C937.041262,349.550378 944.731904,356.216595 942.167954,362.369468 C941.142616,364.932562 940.117278,363.394947 939.091939,364.932562 C937.041262,366.470176 937.041262,366.470176 936.015924,369.034477 C935.503859,370.572092 934.990586,372.62305 933.965247,373.648529 C931.91457,376.211622 931.401297,374.674007 929.351828,375.699486 C927.301151,376.724965 924.225136,379.288059 922.687732,381.85236 C920.637055,385.440932 921.662394,388.005233 916.535702,389.542848 C906.795591,393.644763 912.434348,382.364495 915.510363,378.775923 C917.56104,376.724965 920.637055,375.187351 922.174459,372.62305 C923.199798,370.572092 923.713071,366.98352 924.225136,364.419218 C925.76254,360.830646 928.838555,354.164429 928.32649,352.113471 M126.010655,518.239847 C126.755807,517.866616 127.500958,517.765155 128.247318,517.737375 M131.791921,520.133782 C131.905445,520.192968 132.027423,520.246114 132.162685,520.290805 C133.700089,520.80294 135.750766,518.75319 137.289377,518.75319 C139.85212,518.75319 145.492085,520.290805 144.978812,523.880585 C144.466746,525.418199 141.902796,525.931543 140.877458,527.469157 C139.340054,529.006772 139.340054,530.545594 139.340054,532.596552 C139.340054,533.622031 139.85212,535.159645 139.340054,535.672989 C138.827989,537.723946 137.80265,538.236082 137.289377,539.261561 C136.777312,540.799175 136.264039,540.28704 136.264039,542.337998 C136.264039,543.363476 138.22293,544.901091 138.22293,546.439913 C138.22293,547.977528 137.800235,549.003007 136.592534,549.51635 L136.592534,553.104922 C136.592534,554.037395 136.637219,554.781441 136.543018,555.436105 M136.081676,557.617513 C135.855836,558.254058 135.574441,558.929256 135.237493,559.771139 M175.225691,502.857663 C175.850073,503.35772 176.421315,503.872272 176.956327,504.391654 M180.452622,508.056322 C182.690493,510.333151 185.082949,512.085766 189.580429,512.085766 C191.631106,512.085766 193.681782,511.060287 195.732459,511.57363 C197.783136,512.599109 197.783136,515.162202 199.833813,515.675546 C200.615196,515.936445 202.984706,515.799956 205.261223,515.601866 M207.787734,515.362708 C208.912104,515.250377 209.785272,515.162202 210.087197,515.162202 M203.423101,431.715517 C203.990721,431.942596 204.607856,432.440237 205.253976,433.092485 M208.185067,436.589259 C209.586001,438.373279 210.968819,440.115023 212.137874,440.816793 C213.163212,441.328929 214.188551,440.816793 215.213889,441.328929 C216.751293,442.354408 216.751293,443.379887 217.776631,444.405365 C219.827308,446.968459 220.852646,447.481802 224.440727,447.993938 C228.542081,448.506073 232.643434,447.993938 236.231515,449.531552 C237.768919,450.043688 237.898143,453.633468 238.410208,455.171082 C238.410208,456.196561 239.30753,457.734176 239.30753,459.272998 C239.30753,461.323956 240.332869,462.86157 239.819596,464.912528 C238.794257,468.5011 237.256853,466.963486 235.206177,468.5011 C233.1555,470.038715 234.180838,471.577537 232.643434,473.115151 C231.106031,475.166109 225.979339,475.166109 226.491404,478.754681 C227.003469,482.856597 233.1555,478.754681 233.1555,484.907555 C233.1555,487.470648 232.130161,488.496127 232.643434,491.572564 C232.82459,492.296076 232.941737,493.146414 233.084245,494.012455 M233.580611,496.244593 C233.828189,497.021251 234.173592,497.720606 234.695319,498.242404 M235.207384,483.8857 C236.069683,483.8857 236.830535,483.827722 237.511678,483.711767 M241.132367,482.064237 C242.312291,481.047213 243.267583,479.602604 244.43543,477.732826 C248.612869,472.162145 248.298866,475.1033 248.629777,478.366956 M248.963102,480.359936 C249.180488,481.170415 249.518645,481.885472 250.074187,482.348085 C250.804847,482.038871 251.535506,481.816624 252.262542,481.624573 M256.919438,480.252436 C257.903715,479.807941 258.872291,479.190721 259.815506,478.24617 C261.35291,476.708555 260.840845,474.144254 262.378248,473.118775 C264.940991,471.067817 265.454264,472.093296 268.017006,472.606639 C270.579748,473.118775 271.093021,473.632118 273.655763,473.632118 C274.659363,473.632118 276.865833,474.370125 278.276428,476.433161 M279.275197,478.652013 C279.451522,479.329626 279.552969,480.089374 279.552969,480.938505 M228.373003,444.495956 C228.504642,444.627613 228.939414,443.849747 229.445441,442.522301 M230.703866,438.37811 C231.685727,434.254453 232.1676,429.028013 230.080692,425.947953 C229.436987,424.99857 227.004677,424.410339 227.004677,423.896995 C226.492612,420.308423 230.080692,422.359381 232.643434,421.333902 C235.71945,419.282944 234.180838,418.257465 234.694111,415.181028 C234.840243,414.595213 235.238784,414.135016 235.636118,413.727965 M236.53344,411.924619 C236.324508,411.540518 235.777419,411.106894 234.695319,410.565769 M223.928662,422.358173 C223.107425,422.358173 222.46372,422.785758 221.842962,423.247163 M219.664268,424.366855 C218.897378,424.420001 217.980733,424.058849 216.751293,422.871516 C216.652261,422.776095 216.573761,422.684297 216.512168,422.59733 M216.281497,421.397919 C216.262174,420.929266 216.091888,420.397805 214.957856,419.601821 M239.96452,392.980437 C240.835272,392.592711 241.555062,392.375295 242.160121,392.281082 M245.460768,393.463583 C245.78564,393.760719 246.099642,394.028865 246.486107,394.158107 C248.366498,394.695607 249.402705,394.106168 250.478767,393.350044 M251.999263,392.336644 C252.600699,392.000857 253.295127,391.720632 254.175541,391.595013 M284.935693,405.951718 C285.545583,406.561691 285.95137,407.199445 286.211026,407.860148 M286.363196,412.453665 C286.237595,413.18684 286.084217,413.927263 285.961032,414.667685 C285.448966,419.795079 288.011709,421.332694 289.037047,425.43461 C289.549112,427.485567 288.060017,430.157369 289.742345,431.715517 C293.198786,434.919988 294.677012,437.227013 295.189078,438.765835 C296.214416,440.30345 298.265093,440.30345 300.31577,440.30345 C301.341108,440.30345 302.878512,439.791314 304.417123,439.791314 C307.493138,439.791314 307.493138,440.816793 310.055881,441.842272 C313.131896,443.379887 316.719976,445.944188 319.795992,446.969667 C322.358734,447.481802 322.038693,443.829213 326.845344,446.328289 C333.558956,445.911575 342.353437,452.097061 345.429452,448.507281 C347.480129,446.456323 346.45479,442.867751 348.505467,440.816793 C351.581483,437.228221 353.118886,437.740357 353.118886,432.612962 C353.118886,427.998911 352.093548,423.896995 352.606821,419.795079 C352.606821,418.257465 353.118886,415.181028 352.606821,414.155549 C351.581483,412.104592 349.530806,412.104592 348.505467,410.566977 C347.993402,409.029363 347.981325,400.953565 354.144225,398.774574 C357.386903,397.628308 357.22024,394.672658 358.757644,392.109565 C359.269709,390.57195 359.782982,390.058607 361.320386,388.520992 C361.832451,388.008857 370.548432,380.317161 372.085835,378.779547 C375.673916,376.216453 374.136512,374.165495 373.111174,371.089059 C371.060497,366.475008 370.548432,362.373092 370.035159,357.757833 C369.523093,354.681396 370.035159,351.604959 369.523093,348.528523 C369.523093,348.016387 370.548432,346.990908 370.548432,346.477565 C370.548432,346.130907 369.843134,345.783041 369.387831,345.436384 M368.930112,343.247729 C368.939773,342.545958 369.137836,341.945649 370.037574,341.346547 C369.012236,340.321068 367.474832,340.321068 365.93622,339.808932 M343.892048,358.779688 C344.545415,358.562272 345.290566,358.25185 346.050211,357.966794 M350.342381,357.339911 C352.605613,357.679322 354.106786,358.779688 356.708175,358.779688 C357.384487,358.779688 361.408548,360.788371 364.804604,362.303036 M366.831127,363.170284 C367.732072,363.53506 368.496547,363.803206 369.012236,363.907083 M325.435957,382.877839 C325.903337,382.19781 326.374341,381.591461 326.848967,381.051544 M330.859743,377.901427 C335.075829,375.817857 339.762918,376.604179 345.429452,375.187351 C350.042871,373.649736 351.068209,376.21283 355.169563,377.750444 C356.798752,378.293984 357.277002,377.816877 357.976261,378.046372 M359.882014,379.724098 C360.279347,380.192751 360.750351,380.785813 361.321594,381.532275 M335.689341,395.183586 C336.615648,394.998782 337.341476,394.946844 337.987597,395.004821 M340.431984,395.768193 C340.712171,395.901059 341.008058,396.049626 341.328098,396.209065 C342.006827,396.434936 342.983857,396.861313 343.953641,397.354122 M345.082842,397.965303 C345.877509,398.423084 346.573145,398.891737 346.966856,399.285501 M286.666329,431.715517 C286.060063,432.301332 285.45742,432.776024 284.86927,433.158918 M281.116942,434.602319 C279.670116,434.82215 278.485361,434.66392 277.758325,434.66392 C274.170244,434.66392 273.656971,435.176055 271.094229,437.227013 C270.582163,437.739149 270.06889,439.277971 269.043552,439.790106 C269.01819,439.815472 268.991621,439.840837 268.965051,439.864994 M267.106399,440.57522 C266.42284,440.69963 265.682519,440.836119 264.942198,441.330137 C265.275524,441.996879 265.771889,442.582695 266.381778,443.112948 M269.949328,445.328176 C272.980658,446.836801 276.487823,448.181157 278.27039,450.559447 C280.321067,452.610405 281.85847,454.148019 279.807794,456.198977 C278.782455,457.224456 276.219713,457.224456 275.194375,458.249935 C274.169036,459.275414 274.682309,460.300893 274.169036,460.813028 C271.664264,464.153988 262.910845,462.733536 260.89036,467.491324 M260.474911,469.544697 C260.456796,470.221103 260.530465,470.982059 260.711621,471.837228 M243.115412,464.914944 C243.879887,464.914944 244.658855,464.937893 245.424537,464.975337 M248.868901,465.209663 C250.268627,465.323203 251.434059,465.427079 252.126072,465.427079 C252.84707,465.607051 253.440051,465.534579 254.01854,465.452444 M255.723814,465.407753 C256.304718,465.518877 256.959293,465.808765 257.763622,466.452558 M282.885017,456.711112 C283.7449,456.615691 284.497298,456.520269 285.180857,456.438135 M290.329287,456.398275 C291.156563,456.556505 292.058716,456.818613 293.138401,457.224456 C295.701143,457.736591 297.75182,457.224456 299.802497,457.736591 C301.853173,458.248727 303.390577,460.299685 304.929189,460.299685 C309.030542,459.274206 307.491931,454.146811 311.593284,453.121332 C312.398821,452.919619 312.927794,452.084983 313.42899,451.113858 M314.664469,448.835821 C315.129434,448.161831 315.692223,447.636409 316.463944,447.481802 M301.034352,462.671935 C301.396662,463.396655 301.541586,464.145533 301.57661,464.901657 M301.202222,470.308069 C301.00899,473.244393 301.309708,476.776196 297.75182,477.220691 C296.214416,477.220691 295.189078,475.169733 293.650466,475.169733 C292.113062,474.657597 291.599789,475.681868 290.062385,475.681868 C289.415058,475.552627 288.768937,475.34125 288.138517,475.122626 M285.544375,474.352007 C284.718307,474.226389 283.982817,474.329058 283.397082,474.914873 M283.397082,490.038573 C283.899486,489.619443 284.567345,489.200314 285.33665,488.7836 M289.604667,486.786996 C292.133593,485.693876 294.66252,484.64424 295.948722,483.68157 M297.538057,481.957944 C298.238523,481.401118 298.35084,482.127046 299.539218,480.938505 M306.979865,463.377329 C307.54507,464.05615 308.011242,464.660084 308.437561,465.167388 M311.941102,466.788345 C312.549784,466.660311 313.269574,466.38371 314.157234,465.940423 C315.694638,464.914944 316.207911,462.863986 318.258588,462.35185 C320.82133,461.839715 322.872007,463.377329 325.435957,463.377329 C327.998699,462.865194 328.511972,461.839715 331.074714,460.814236 C332.612118,459.788757 334.662795,460.3021 336.713472,459.788757 C337.947742,459.29474 338.825741,458.562772 339.518962,457.594063 M340.515315,455.795549 C340.803956,455.142093 341.066027,454.422205 341.328098,453.634676 M340.816033,460.502606 C341.743548,460.57991 342.497153,460.699489 343.098589,460.862551 M344.870286,464.029577 C344.50073,465.097332 343.743501,466.412699 342.86671,467.99138 C341.329306,470.042338 339.790695,473.630911 338.253291,475.681868 C336.202614,477.732826 333.126599,477.732826 330.563857,479.783784 C328.001114,481.834742 328.001114,482.346877 324.411826,482.860221 C320.823746,483.372356 319.285134,483.8857 316.209119,482.348085 C315.18378,481.83595 314.158442,482.860221 313.133104,481.83595 C311.5957,481.323814 312.107765,478.759513 310.570361,478.247377 C309.6042,477.764231 308.182736,477.73645 306.73591,477.895888 M304.618809,478.235299 C303.758926,478.410439 302.97392,478.607322 302.366446,478.758305 M319.283926,486.962136 C319.283926,487.813682 319.271849,488.583094 319.233203,489.269162 M317.186149,493.315516 C316.27675,493.506359 314.979679,493.274448 313.131896,492.602874 C310.569154,492.090739 304.417123,487.47548 302.366446,489.526438 C299.290431,491.577395 302.366446,496.191447 303.391785,497.730269 C303.742018,498.342657 304.045151,498.940551 304.306015,499.508249 M305.219037,501.789909 C305.731102,503.285248 305.873611,504.177862 305.873611,503.883142 M321.847876,495.679311 C322.550758,496.220435 323.099055,496.749481 323.516919,497.268864 M324.542258,500.926284 C324.214971,502.64991 322.90703,504.308311 321.618413,505.981207 M320.446943,507.555057 C319.989224,508.210929 319.582229,508.87284 319.283926,509.544414 M334.15073,483.8857 C334.15073,484.702218 334.242515,485.464382 334.416424,486.173399 M336.692941,490.177478 C339.053997,492.5147 342.754394,493.627145 346.45479,493.627145 C347.992194,495.16476 347.992194,499.780019 349.530806,501.317633 C355.682836,502.855248 361.834867,502.855248 367.986897,501.317633 C373.078566,500.044542 377.117119,494.555995 382.811431,496.960858 M384.836746,498.117994 C385.407989,498.527461 385.997347,499.017855 386.606028,499.600047 M350.044079,505.292723 C349.684184,505.832639 349.44989,506.586348 349.254242,507.447557 M348.244604,511.961355 C348.168519,512.199305 348.08398,512.434839 347.993402,512.663126 C347.408875,514.415741 345.160135,515.232259 342.859464,515.610321 M340.56,515.863973 C339.666301,515.920743 338.858349,515.931614 338.252083,515.931614 M333.49374,538.963218 C334.188168,538.606897 334.889843,538.278357 335.566155,537.943778 M339.029843,535.606556 C339.814849,534.727229 340.303968,533.615991 340.303968,532.083208 C339.791902,526.955814 334.480432,526.571712 335.305292,520.033529 L333.49374,515.819282 C333.49374,511.148461 331.487748,509.679695 329.405671,507.454804 M328.051838,505.850757 C327.629142,505.277021 327.220939,504.633228 326.845344,503.883142 M342.811156,530.213431 C343.451237,529.74357 344.087696,529.309946 344.721739,528.910142 M348.742177,526.812078 C354.036739,524.59685 359.433956,524.413254 365.898782,524.81185 C367.672895,524.921766 370.219937,525.354183 371.875695,524.4664 C373.647393,523.517017 373.553192,520.95634 375.164266,520.289597 C376.438391,519.761759 378.507183,520.707519 380.177434,520.795693 M382.205165,520.035945 C382.551775,519.579371 382.777615,518.880016 382.835585,517.840043 M350.556144,515.16341 C351.012655,515.848271 351.342358,516.533131 351.589936,517.224031 M352.62856,522.646145 C352.748122,523.37932 352.897877,524.130613 353.118886,524.904856 M347.981325,461.838507 C357.721436,464.914944 364.910882,458.249935 374.138928,461.326371 C384.904377,462.863986 384.904377,476.708555 386.442989,485.937865 C387.980392,487.47548 391.056408,487.47548 393.601034,487.020114 M370.79118,456.327011 C375.213782,451.903803 374.247621,453.986165 379.777685,456.198977 C383.365766,458.249935 382.340427,459.787549 386.955054,458.76207 C392.081746,457.736591 391.568473,458.76207 393.61915,463.376121 C395.156554,466.964694 396.695165,475.168525 395.669827,476.194004 C394.132423,477.731618 394.644488,476.706139 392.593811,477.731618 C389.517796,479.269233 388.940515,478.757097 388.940515,483.371148 M355.682836,421.332694 C358.245578,421.332694 369.012236,421.332694 373.113589,422.358173 C381.828362,424.921266 389.005731,424.921266 397.721711,421.332694 C402.848403,419.281736 398.74705,417.744122 401.309792,414.667685 C404.897872,411.591248 410.024564,416.718643 413.613853,416.205299 C416.689868,416.205299 419.765883,411.591248 422.841898,415.17982 C424.892575,417.230778 423.353964,421.332694 424.892575,424.409131 C426.429979,427.485567 429.505994,427.485567 431.556671,430.048661 C432.582009,432.099619 431.556671,433.637233 433.607348,434.662712 C435.144752,435.688191 438.220767,435.688191 439.759378,435.688191 C441.810055,435.688191 446.936747,433.637233 448.474151,434.150576 C450.011555,434.662712 448.474151,436.71367 449.499489,437.739149 C451.036893,438.764628 453.600843,438.764628 455.138247,438.764628 C458.726327,439.276763 462.315616,438.764628 465.391631,440.815585 C466.929035,441.841064 468.467646,442.3532 468.467646,444.404158 C469.492985,447.99273 467.442308,446.967251 465.391631,449.531552 C462.827681,452.607989 462.229869,460.107634 461.716596,462.158592 M377.323636,374.712659 C379.886378,375.224795 382.341635,371.597571 385.929716,376.21283 C387.467119,378.775923 386.441781,381.340224 389.517796,383.391182 C394.131215,386.467619 400.283246,386.467619 404.897872,388.518577 C407.460614,389.544056 414.125918,392.620492 414.637983,396.209065 C415.150049,397.234543 417.86013,405.374358 417.393958,411.719282 M700.801601,672.694606 C702.340213,670.131513 705.622745,668.531089 708.69876,667.50561 C712.286841,666.480131 715.723959,668.499685 718.799974,667.987549 C723.413393,667.987549 724.106613,665.920889 722.56921,662.332317 C722.055937,661.306838 720.60911,657.70981 720.095837,657.197675 C718.558434,655.660061 715.527103,656.168572 714.501765,654.62975 C713.476427,653.092136 715.55005,651.550898 714.011438,650.013283 C712.9861,648.987804 710.946292,648.986596 709.920954,647.961118 C706.844939,645.91016 706.850977,644.371337 708.388381,641.294901 C709.925785,637.706328 713.005423,634.628684 716.593504,634.628684 C718.130907,635.140819 718.133323,636.679642 720.184,636.679642 C720.696065,636.679642 724.798626,635.654163 725.310692,635.140819 C729.412045,633.603205 728.386707,631.552247 730.437384,627.450331 C732.488061,623.348416 736.077349,624.887238 738.640091,621.810801 C740.690768,619.759844 739.665429,615.657928 740.690768,613.094835 C741.202833,611.55722 742.741445,611.55722 743.25351,610.018398 C743.765575,608.480783 742.741445,606.941961 742.741445,605.404347 C743.25351,599.764817 745.304187,602.841253 749.405541,600.790296 C752.481556,598.227202 751.968283,595.150765 756.582909,594.637422 C759.658925,594.125287 764.272344,593.099808 766.836294,593.099808 C771.962986,593.099808 771.962986,596.176244 772.475051,600.27816 C772.987116,602.841253 772.987116,607.456512 775.551066,608.994127 C778.627081,610.019606 782.215162,607.968648 785.80445,610.019606 C789.392531,612.070564 790.931142,615.147 790.417869,619.248916 C790.417869,622.325353 786.316516,627.964883 786.829789,630.529184 C788.367192,635.656578 797.595238,631.041319 801.184527,633.092277 C804.260542,635.143235 805.797946,639.245151 808.873961,640.782765 C811.949976,642.833723 815.025991,641.808244 818.614072,641.808244 C822.20336,641.808244 823.740764,643.345859 826.816779,644.884681 C829.892794,645.91016 832.96881,644.884681 836.044825,645.91016 C841.171517,647.447774 849.374224,650.524211 849.374224,641.808244 C849.374224,639.757286 846.771628,636.807676 848.348886,635.143235 C850.655595,632.708176 852.962305,638.219672 853.475578,640.27063 C855.012982,643.347066 856.03832,645.91016 860.139674,646.423503 C862.702416,646.935639 865.266366,645.398024 868.342381,644.885889 C871.418396,644.373753 874.494411,645.911368 876.031815,642.322795 C877.569219,639.759702 875.006477,637.195401 877.569219,634.632307 C878.594557,634.120172 881.670573,634.632307 883.207976,633.606829 C884.233315,632.58135 885.258653,630.530392 886.283992,628.992777 C887.30933,627.455163 886.796057,627.455163 888.846734,625.916341 C889.872072,625.404205 891.922749,625.916341 892.948087,624.890862 C896.024103,622.839904 894.998764,619.251332 899.612183,619.251332 C902.688199,619.251332 904.738875,622.327768 907.814891,623.353247 C911.916244,624.378726 912.941583,622.841112 914.478986,627.455163 C914.991052,628.480642 913.965713,629.506121 914.478986,630.5316 C914.991052,632.582557 916.529663,633.608036 917.041729,635.145651 C918.579132,638.734223 917.041729,640.273045 913.965713,641.298524 C910.377633,642.836139 907.301618,643.349482 905.763006,647.451398 C904.737668,648.476877 905.249733,650.527834 904.737668,651.553313 C904.225602,653.090928 902.174926,654.116407 901.661652,655.655229 C898.073572,661.294759 899.610976,667.960976 896.53496,673.088371 C894.484284,676.676943 891.408268,677.702422 890.38293,681.804337 C889.870865,684.367431 890.896203,686.931732 888.845526,688.98269 C885.257446,687.445075 887.308122,680.266723 884.232107,677.190286 C881.669365,674.627193 878.59335,673.088371 879.105415,668.474319 C879.618688,664.372404 884.744172,661.80931 879.105415,658.732874 C875.517334,657.195259 870.902708,659.245009 867.314627,657.195259 C865.26395,656.16978 865.777223,655.144301 863.726547,654.118822 C861.67587,653.606687 859.625193,653.606687 857.574516,653.606687 C855.523839,653.606687 852.961097,653.094551 851.422486,655.144301 C849.371809,658.220738 851.935759,658.732874 852.447824,661.80931 C852.961097,663.860268 852.447824,665.397883 852.961097,667.44884 C853.473162,671.037413 853.057713,670.525277 856.133728,673.088371 C860.235082,676.676943 858.794294,679.75338 858.794294,684.880774 L858.794294,683.589564 M1101.08816,502.462691 C1106.21485,499.899598 1104.1678,493.11501 1106.21848,487.987615 C1110.31983,477.732826 1113.90791,497.216925 1120.57322,486.450001 C1122.62389,482.861429 1119.03581,481.322606 1120.06115,477.734034 C1121.08649,475.683076 1123.13717,476.708555 1124.1625,475.170941 C1125.18784,474.145462 1125.18784,471.582368 1125.70111,471.069025 C1128.26386,468.505932 1131.33987,471.069025 1132.87848,465.429495 C1133.39055,461.840923 1132.87848,457.739007 1132.36642,454.66257 C1130.82781,447.484218 1129.2904,441.844688 1138.00518,440.819209 C1142.10653,439.79373 1143.13187,440.307073 1144.15721,434.666336 C1145.18254,429.025598 1144.66927,422.873932 1144.66927,417.233194 C1145.18254,410.568185 1142.61859,397.749095 1134.41589,406.978405 C1132.36521,409.029363 1131.33987,412.105799 1127.75179,412.617935 C1123.13717,413.643414 1123.13717,411.080321 1120.06236,410.054842 C1116.47428,408.517227 1116.98634,411.080321 1114.93567,407.491748 C1113.39826,404.415312 1114.93567,401.338875 1110.83431,399.80126 C1108.78363,398.775781 1106.22089,399.80126 1104.17022,398.775781 C1101.60747,397.238167 1100.06886,393.648387 1097.50612,392.110773 C1092.8927,389.034336 1085.71533,392.622908 1082.63932,389.034336 C1081.10191,386.983378 1081.10191,383.906941 1079.5633,381.855983 C1077.51262,378.267411 1074.43661,377.626034 1071.87387,374.549597 L1070.33526,372.114538 C1069.82319,370.06358 1067.25924,369.551444 1065.72184,367.500487 C1063.67116,364.937393 1063.15909,361.347613 1061.62048,358.78452 C1058.0312,352.631646 1053.93105,345.453294 1046.24041,348.529731 C1042.65233,350.067345 1041.62699,351.092824 1037.01236,350.580688 C1032.91101,350.580688 1025.22157,349.555209 1022.14556,352.631646 C1020.60815,354.169261 1019.58282,358.78452 1020.60815,360.835478 C1022.14556,364.42405 1026.24691,363.398571 1027.27225,367.500487 C1027.78552,370.576923 1025.73485,373.65336 1025.22157,376.729797 C1024.7083,379.806233 1024.19624,383.394806 1024.7083,385.959107 C1025.73364,389.035544 1027.27104,391.086501 1026.24691,394.162938 C1024.7083,397.239375 1019.58282,399.290333 1016.5068,399.802468 C1014.45612,399.802468 1011.38011,399.290333 1009.84271,400.314604 C1006.25462,402.877697 1005.74135,411.594872 1005.74135,415.183444 C1006.25342,417.746537 1007.27876,421.848453 1009.32943,423.387275 C1011.89217,424.92489 1019.06954,424.92489 1021.12022,422.87514 C1023.68296,420.824182 1022.14556,416.722266 1026.75898,416.722266 C1029.32172,417.234402 1034.44841,421.336318 1035.98702,422.87514 C1038.0377,424.926098 1041.62578,430.565628 1039.06304,433.129929 C1037.01236,435.180887 1031.88567,433.642064 1029.32293,435.180887 C1027.27225,436.206366 1021.12022,439.794938 1020.09488,441.845896 C1017.01887,445.434468 1020.09488,449.536384 1015.99353,451.587341 C1014.96819,452.61282 1012.91751,451.587341 1011.3789,452.61282 C1009.8415,453.124956 1009.32822,454.663778 1007.79082,455.689257 C1006.76548,456.201393 1004.71481,456.201393 1003.1774,456.714736 C1000.61466,458.25235 1001.12672,459.277829 998.050709,458.25235 C994.462629,457.226872 992.924017,454.150435 989.335937,457.226872 C986.773195,459.277829 986.773195,463.379745 987.798533,465.942838 C989.335937,469.019275 992.925225,469.531411 992.411952,473.633326 C991.898679,477.221899 986.773195,478.247377 984.722518,480.811679 C982.671841,482.349293 983.185114,483.374772 980.621164,484.400251 C979.595826,484.912386 978.058422,484.912386 977.033084,484.912386 C972.93173,485.937865 969.855715,487.47548 966.267634,489.526438 C959.090265,493.11501 950.887558,498.755748 942.684851,498.755748 C934.995416,498.755748 928.843386,492.090739 922.178082,489.526438 C916.026052,486.963344 908.848683,487.988823 902.696652,489.526438 C895.519284,491.577395 885.779173,495.679311 879.627142,489.526438 C873.988385,484.399043 873.475112,476.195212 866.811016,472.093296 C861.172258,468.504724 855.532293,468.504724 849.380263,467.479245 C842.202894,466.453766 833.488121,466.453766 836.050863,456.71232 C837.076202,454.661362 838.10154,455.174706 837.588267,453.123748 C837.076202,450.047311 831.94951,445.43326 829.898833,443.382302 C825.797479,439.79373 818.108045,435.178471 812.46808,438.254908 C809.392065,434.152992 806.316049,428.513462 801.189357,425.949161 C797.601277,423.898203 797.601277,424.411546 797.088004,428.000119 C797.088004,431.588691 797.600069,432.102034 796.062665,434.665128 C794.524054,437.228221 792.98665,437.228221 793.498715,440.304658 C793.498715,442.867751 795.549392,444.918709 795.037327,447.48301 C793.498715,455.173498 787.347893,449.533968 783.758604,447.48301 C773.50522,440.818001 772.993155,459.788757 773.50522,465.94163 C774.017286,474.145462 770.429205,470.043546 764.790448,472.094504 C761.202367,473.632118 755.562402,480.298335 762.227705,481.323814 C761.202367,481.83595 760.690302,483.374772 759.664963,483.886908 C761.202367,484.912386 763.766317,491.577395 763.253044,494.653832 C761.71564,500.293362 755.050336,495.679311 750.436917,494.653832 C747.872968,494.141697 744.79816,493.628353 741.722145,494.141697 C739.159403,494.653832 736.083387,496.70479 733.007372,496.70479 C728.393953,496.70479 720.191246,487.988823 715.576619,493.116218 C712.500604,496.70479 716.089892,499.269091 709.424589,499.781227 C705.836508,499.781227 701.735154,497.730269 699.171204,499.781227 C697.632593,500.806706 695.069851,506.959579 696.095189,509.010537 C697.120528,511.061495 697.120528,510.036016 699.171204,510.548151 C701.733947,511.060287 704.297897,510.548151 706.348573,513.111245 C708.39925,516.699817 706.860639,519.264118 703.272558,519.776254 C699.684478,520.288389 697.633801,518.750775 694.044512,520.288389 C690.456432,522.339347 691.48177,525.927919 688.405755,528.49222 C685.843013,530.029835 682.766998,531.055314 680.203048,532.594136 C675.076356,536.182708 677.127032,536.182708 680.203048,540.797967 C684.304401,545.925362 678.152371,552.590371 683.279063,555.666808 C689.943159,560.280859 698.145866,553.61585 701.735154,547.97632 C702.760493,546.438705 704.297897,541.311311 706.348573,540.797967 C710.449927,540.285832 709.936654,546.950841 709.936654,549.001799 C709.936654,556.180151 716.60075,560.794202 723.266053,555.666808 C725.828796,553.61585 726.342069,549.513934 728.392745,547.97632 C731.980826,545.413226 734.031503,549.513934 737.107518,550.539413 C740.695599,551.564892 742.23421,549.513934 744.284887,553.102506 C745.310225,556.178943 743.772822,558.229901 745.823498,560.792994 C750.95019,567.458003 764.535623,562.715918 767.098365,571.431885 C768.123703,575.533801 768.011387,577.618579 769.549998,581.720495 C771.087402,584.796931 771.8398,584.379009 770.046364,590.274607 M793.614655,615.386158 C798.621784,612.837559 800.672461,616.683407 803.236411,619.247708 C804.773815,620.785322 806.824492,622.324145 809.388442,622.83628 C812.464457,624.373895 817.077876,623.348416 820.153891,624.887238 C822.716633,625.912717 822.204568,628.47581 824.255245,630.014633 C826.305921,631.552247 830.407275,631.040112 832.457952,632.06559 C835.020694,633.091069 836.559306,634.628684 839.635321,634.628684 C842.198063,634.628684 844.24874,633.091069 847.324755,633.091069 M855.015397,636.68085 C855.015397,631.553455 861.679493,630.527976 865.268781,630.527976 C868.344796,630.527976 869.370135,631.040112 871.932877,632.06559 C873.983554,633.091069 873.983554,634.628684 876.546296,633.603205 M366.448286,324.426749 C368.754995,324.426749 378.752347,315.96685 381.828362,313.659824 C384.135071,311.352798 386.441781,309.045773 387.211087,305.199925 C387.980392,300.585874 384.904377,299.816463 384.135071,295.201204 C383.365766,292.124767 387.211087,289.04833 384.904377,286.741305 C381.828362,283.664868 377.983041,287.510716 374.907026,282.895457 C371.83101,277.511994 374.907026,268.282684 373.369622,262.129811 C371.062912,256.746348 369.524301,257.51576 371.062912,252.131089 C371.832218,247.517038 372.600316,245.978216 371.062912,241.364165 C368.756203,234.44188 361.065561,227.520803 359.528157,220.598519 C358.758851,216.752671 359.528157,208.292772 362.604172,205.985746 C364.141576,204.448132 367.217591,205.985746 369.525509,203.678721 C371.062912,201.371695 371.832218,195.988233 371.832218,195.218822 M357.989546,205.985746 C353.376127,202.139898 348.7615,191.372974 341.072066,199.832873 C337.226745,204.446924 342.609469,209.831594 337.226745,213.676234 C334.920035,215.213849 331.84402,214.445645 330.305409,215.213849 C326.460088,216.751463 326.460088,219.059696 322.615974,218.290285 C318.770653,217.520874 314.92654,207.523361 311.081219,214.444437 C307.235898,220.597311 317.23325,221.366722 320.309265,224.443159 C324.922684,228.289007 323.38528,234.44188 324.922684,239.055931 C326.460088,241.362957 333.381424,248.285241 329.536103,249.822856 M259.559473,339.039521 C262.635489,333.656059 268.018213,329.0408 269.556825,322.887926 C271.863534,314.428027 268.787519,308.275154 268.019421,300.584666 C267.250115,296.738818 264.1741,285.971893 266.482017,282.126046 C268.019421,279.81902 272.634048,280.588431 274.940757,278.280198 C276.478161,275.973172 275.710063,270.58971 275.710063,267.513273 C275.710063,263.667425 274.940757,261.3604 278.016773,257.514552 C281.092788,254.438115 283.399497,255.976937 284.938109,251.361678 C285.707415,249.054653 284.168803,245.978216 285.707415,242.901779 C288.014124,239.825342 291.090139,240.594754 293.396849,236.748906 C295.703558,231.365443 291.859445,225.21257 301.855589,225.21257 C304.162298,224.443159 309.447199,222.713493 310.215297,221.174671 M608.873793,776.752882 C609.065817,780.405471 605.028472,784.636628 603.683093,787.713065 C602.337713,790.4054 601.568408,795.019451 598.108343,795.596812 C593.494924,796.366223 588.688273,795.980913 584.266879,794.059197 C582.344218,793.289786 576.769469,790.598659 576.769469,787.906324 L608.873793,776.752882 Z M23.8490463,264.169166 L23.0158513,261.667929 C30.5224668,265.005096 24.6835514,270.844812 28.8547667,274.181979 C33.0259821,276.685837 38.8648976,270.011502 39.6994026,265.839716 C46.3728232,265.839716 51.3772336,264.170477 58.0506541,262.502548 C60.5528593,261.667929 64.7240747,260 67.2262799,260 C74.7328954,261.667929 71.3961852,264.170477 72.2306902,268.342264 C73.8997004,275.851218 82.2408211,279.188386 75.5674005,285.86272 C73.8997004,288.365269 69.7284851,289.199888 67.2262799,291.702436 C65.5572697,293.371675 66.3917748,296.708842 63.8895696,299.21139 C59.7183542,303.381867 51.3759235,302.548558 46.3715131,304.216487 C38.8648976,305.884415 37.1958874,307.553654 31.3569719,303.381867 C28.0202616,301.712628 28.8534567,299.21008 23.8490463,299.21008 C20.512336,299.21008 15.5066156,302.547248 13.0044104,299.21008 C10.5022052,295.872913 17.1756257,294.204984 16.3411207,290.033197 C14.6734205,286.69603 11.3367103,285.86141 8,285.86141 C8.83319503,280.021695 21.345531,282.524243 19.6778309,275.849908 C18.0101308,270.010192 11.3367103,275.015288 8,273.34736 C8.83450508,269.175573 12.1712154,271.678121 13.8389155,269.175573 C15.5079256,267.506334 14.6734205,263.335857 17.1756257,262.501238 C19.6778309,261.666618 22.1813462,262.501238 23.8490463,264.169166 Z" id="Shape" stroke="#8F8F8F" stroke-linecap="round" stroke-linejoin="round"></path>
                <path d="M269.245051,475.83595 C264.631632,481.47548 277.447759,499.420757 283.599789,507.624588 C288.726481,513.777462 312.309265,519.416992 308.207911,533.261561 C297.442462,521.981293 297.954527,548.643745 288.726481,549.669223 C289.75182,541.465392 295.90385,536.466031 287.701143,528.2622 C280.523774,519.03289 265.143698,524.032251 260.017006,511.726504 C257.966329,508.393999 254.890314,507.752622 252.839637,505.701664 C246.687606,501.599748 247.712945,495.896201 242.586253,492.819765 C237.459561,489.743328 230.282192,493.556563 226.180838,496.633 C224.130161,498.683958 223.104823,503.667616 220.028808,503.667616 C215.927454,503.667616 214.902116,498.46775 212.851439,498.46775 C204.648731,496.416792 206.699408,501.507951 205.67407,508.686303 C203.623393,517.915613 202.598055,515.846537 194.395347,519.948453 C188.243317,524.050369 187.217978,528.142621 185.167302,535.320974 C183.116625,543.524805 180.04061,544.545452 174.913917,550.698326 C169.787225,557.876678 171.837902,558.899741 161.584518,559.92522 C156.457826,560.950699 149.280457,563.000449 144.153765,563.000449 C135.951058,564.025928 136.976396,558.898534 131.849704,556.847576 C124.672335,555.822097 122.621658,563.000449 118.520305,555.822097 C117.494966,554.796618 117.494966,549.669223 116.469628,546.592787 C113.393613,541.465392 113.393613,545.567308 110.317597,543.51635 C105.190905,540.439913 105.190905,546.592787 106.216244,538.388955 C107.241582,526.083208 123.646997,517.879377 110.317597,504.548151 C115.44429,500.446236 122.621658,501.471715 122.621658,493.267883 C128.773689,493.267883 133.900381,493.267883 140.052411,494.293362 C146.204442,495.318841 157.483164,501.471715 162.609857,499.420757 C168.761887,497.369799 166.71121,484.038573 166.71121,478.911179 C167.736549,468.656389 166.71121,471.732826 158.508503,468.656389 C167.736549,455.325164 148.255119,457.376121 140.052411,455.325164 C140.052411,443.019417 157.483164,450.197769 162.609857,447.121332 C165.685872,445.070374 162.609857,439.94298 165.685872,437.892022 C168.761887,435.841064 172.863241,440.968459 174.913917,443.019417 C174.913917,441.993938 176.964594,439.94298 177.989933,437.892022 C184.141963,439.94298 185.167302,433.790106 187.217978,430.71367 C188.243317,427.637233 188.243317,426.611754 190.293994,424.560796 C191.319332,423.535317 195.420686,423.535317 197.471363,422.509838 C204.648731,416.356965 205.67407,404.051218 215.927454,400.974781 C220.028808,399.949302 226.180838,403.025739 230.282192,397.898345 C231.30753,395.847387 229.256853,387.643555 231.30753,383.54164 C232.332869,380.465203 236.434222,380.465203 237.459561,376.363287 C238.484899,374.31233 235.408884,371.235893 235.408884,368.159456 C236.434222,364.057541 240.535576,357.904667 244.63693,358.930146 C245.662268,363.032062 248.738283,370.210414 248.738283,375.337809 C248.738283,381.490682 243.611591,380.465203 248.738283,387.643555 C255.915652,395.847387 271.295728,383.54164 274.371744,395.847387 C281.549112,393.796429 291.802497,381.972621 297.954527,382.9981 C301.030542,382.9981 302.055881,390.111227 306.157234,393.734828 L320.511972,393.734828 C335.892048,390.111227 317.435957,380.947142 315.38528,375.819747 C315.38528,374.794268 316.410618,363.78577 316.410618,362.760292 C318.461295,356.607418 318.461295,358.281521 324.613326,357.256043 C329.740018,357.256043 330.765356,360.144052 333.841371,355.016658 C335.892048,351.940221 332.816033,344.667655 333.841371,341.591218 C337.942725,329.285471 348.196109,337.442196 355.373478,333.34028 C358.449493,331.289322 360.50017,323.062541 357.424155,319.986105 C355.373478,317.935147 349.221448,320.989842 346.145432,322.015321 C336.917387,325.091758 324.613326,341.796555 322.562649,326.094287 L315.38528,326.094287 C314.359942,317.639219 305.131896,311.748453 307.182573,301.493664 C308.207911,297.391748 311.283926,292.782529 312.309265,288.680613 C314.359942,283.553218 313.334603,283.299566 317.435957,279.197651 C324.613326,272.019298 338.968064,267.790557 332.816033,255.48481 C329.740018,249.331936 319.486634,246.192691 313.334603,251.320085 C308.207911,256.44748 310.258588,264.619906 309.23325,270.771572 C307.182573,280.000882 301.030542,278.959701 297.954527,285.112574 C296.929189,288.189011 297.954527,292.282472 297.954527,295.358909 C296.929189,298.435345 293.853173,301.508158 292.827835,304.584595 C289.75182,311.762948 287.701143,315.862447 293.853173,320.989842 C300.005204,327.142715 309.23325,327.141508 298.979865,336.370818 C293.853173,341.498212 289.75182,341.498212 287.701143,349.700836 C286.675804,354.82823 289.75182,363.032062 284.625128,367.133977 C282.574451,369.184935 278.473097,368.159456 276.42242,369.184935 C273.346405,371.235893 272.321067,376.363287 269.245051,377.388766 C258.991667,382.516161 261.042344,372.261372 260.017006,366.108498 C257.966329,357.904667 253.864975,357.904667 252.839637,349.700836 C251.814298,344.573441 259.503733,340.471526 249.763622,334.318652 C243.51256,330.370136 236.434222,337.395089 233.358207,342.522483 C225.1555,353.802751 219.003469,368.159456 209.775424,348.675357 C204.648731,340.471526 204.648731,338.420568 207.724747,329.191258 C208.750085,325.089342 211.8261,318.936468 202.598055,320.987426 C203.623393,306.630721 206.699408,303.554285 219.003469,296.375932 C221.054146,295.350453 224.130161,293.299496 226.180838,292.274017 C228.231515,290.223059 227.206177,286.121143 229.256853,284.070185 C234.383545,278.942791 239.510237,279.96827 243.611591,272.789917 C249.763622,263.560607 250.78896,250.229381 256.940991,239.974592 C260.017006,234.847198 266.169036,230.745282 265.143698,224.592409 C264.118359,216.388577 257.966329,220.490493 264.118359,212.286662 C265.143698,211.261183 268.219713,211.261183 269.245051,209.210225 C270.27039,208.184746 269.245051,206.133788 270.27039,205.108309 C271.295728,203.057351 271.295728,201.006394 273.346405,198.955436 C277.447759,193.828041 286.675804,195.878999 291.802497,191.777083 C293.853173,189.726126 292.827835,186.649689 296.929189,183.573252 C298.979865,182.547773 303.081219,181.522294 305.131896,180.496815 C309.23325,178.445858 311.283926,173.318463 315.38528,171.267505 C318.461295,170.242026 328.714679,172.292984 331.790695,172.292984 C337.942725,173.318463 338.968064,174.343942 345.120094,173.318463 C345.74058,173.287435 353.441524,169.800864 355.373478,176.2302 C355.73584,177.436101 352.024386,183.161294 353.458263,190.628189 C353.686621,191.817356 359.411261,186.957113 364.081061,186.957113 C364.360227,188.203399 362.538875,196.212888 361.230408,198.955436 C348.542746,196.015226 346.145432,216.895225 364.081061,237.654606 C362.673233,243.900172 364.536186,249.442511 366.235632,257.694556 C366.848293,260.66947 364.277901,268.944908 366.235632,275.715727 C367.080855,278.638934 373.824769,276.060221 376.218725,280.578914 C377.2643,282.552481 375.97452,284.989568 376.218725,288.680613 C376.462929,292.371658 381.802943,295.978496 379.76174,300.06914 C374.904319,309.803578 368.392441,313.440559 362.421477,316.330776 C356.450513,319.220994 357.424155,334.318652 357.424155,334.318652 C357.424155,334.318652 361.930961,334.353872 362.421477,336.370818 C362.530344,336.818465 360.909739,350.849723 361.230408,353.586052 C361.551076,356.322381 366.235632,370.550432 366.235632,370.550432 C366.235632,370.550432 356.148972,378.619836 352.242207,383.54164 C350.908488,385.221879 350.275237,389.734485 347.970391,392.331205 C345.665544,394.927926 343.061828,393.861749 341.910929,395.847387 C339.100869,400.695565 339.796665,403.85866 339.796665,403.85866 L345.120094,408.528321 L345.120094,428.262998 L335.173016,443.019417 L330.254216,453.29467 C330.254216,453.29467 337.104623,454.538367 336.90464,455.325164 C329.091571,486.064221 296.929189,472.814998 296.929189,472.814998 L274.371744,483.645783 C274.371744,483.645783 269.54897,475.98793 269.245051,475.83595 Z M323,535 C331.233545,533.061606 331.181012,526.474834 333.45078,524.456352 C339.994733,518.636876 358.079477,517.621858 360.449185,518.636876 C362.818892,519.651895 360.449185,527.028379 360.449185,527.028379 C360.449185,527.028379 345.054536,524.72333 343.848394,528.931995 C343.285546,530.895974 357.780794,541.198183 353.755431,547.415377 C349.730067,553.63257 348.719127,561.176075 348.719127,561.176075 C348.719127,561.176075 342.770876,560 339.994733,568.039779 C335.300958,569.571081 336.88745,555.671971 324.183246,548.609407 C321.429473,543.255746 320.951252,540.339449 323,535 Z M15.8490463,258.169166 L15.0158513,255.667929 C22.5224668,259.005096 16.6835514,264.844812 20.8547667,268.181979 C25.0259821,270.685837 30.8648976,264.011502 31.6994026,259.839716 C38.3728232,259.839716 43.3772336,258.170477 50.0506541,256.502548 C52.5528593,255.667929 56.7240747,254 59.2262799,254 C66.7328954,255.667929 63.3961852,258.170477 64.2306902,262.342264 C65.8997004,269.851218 74.2408211,273.188386 67.5674005,279.86272 C65.8997004,282.365269 61.7284851,283.199888 59.2262799,285.702436 C57.5572697,287.371675 58.3917748,290.708842 55.8895696,293.21139 C51.7183542,297.381867 43.3759235,296.548558 38.3715131,298.216487 C30.8648976,299.884415 29.1958874,301.553654 23.3569719,297.381867 C20.0202616,295.712628 20.8534567,293.21008 15.8490463,293.21008 C12.512336,293.21008 7.50661558,296.547248 5.00441038,293.21008 C2.50220519,289.872913 9.17562574,288.204984 8.34112066,284.033197 C6.67342055,280.69603 3.33671027,279.86141 0,279.86141 C0.833195027,274.021695 13.345531,276.524243 11.6778309,269.849908 C10.0101308,264.010192 3.33671027,269.015288 0,267.34736 C0.834505082,263.175573 4.17121536,265.678121 5.83891547,263.175573 C7.50792563,261.506334 6.67342055,257.335857 9.17562574,256.501238 C11.6778309,255.666618 14.1813462,256.501238 15.8490463,258.169166 Z" id="Shape" fill-opacity="0.448680933" fill="#E7F0F0"></path>
            </g>
        </g>
    </g>
</svg>