<?xml version="1.0" encoding="UTF-8"?>
<svg width="1032px" height="377px" viewBox="0 0 1032 377" version="1.1" xmlns="http://www.w3.org/2000/svg" xmlns:xlink="http://www.w3.org/1999/xlink">
    <!-- Generator: Sketch Beta 43.2 (39056) - http://www.bohemiancoding.com/sketch -->
    <title>Group 16</title>
    <desc>Created with Sketch Beta.</desc>
    <defs></defs>
    <g id="Page-1" stroke="none" stroke-width="1" fill="none" fill-rule="evenodd">
        <g id="promo" transform="translate(0.000000, -4.000000)" fill-rule="nonzero">
            <g id="Group-16">
                <g id="1f61c" transform="translate(349.499062, 299.175758)">
                    <circle id="Oval" fill="#FFDD67" cx="20" cy="20" r="20"></circle>
                    <path d="M19.4666667,15.0666667 C19.4666667,18.7333333 16.4666667,21.7333333 12.8,21.7333333 C9.13333333,21.7333333 6.13333333,18.7333333 6.13333333,15.0666667 C6.13333333,11.4 9.13333333,8.4 12.8,8.4 C16.5333333,8.4 19.4666667,11.4 19.4666667,15.0666667" id="Shape" fill="#FFFFFF"></path>
                    <g id="Group" transform="translate(8.666667, 12.000000)" fill="#664E27">
                        <circle id="Oval" cx="4.13333333" cy="3.06666667" r="3"></circle>
                        <path d="M24,6.06666667 C22.7333333,3.33333333 20.8666667,2 19,2 C17.1333333,2 15.2666667,3.33333333 14,6.06666667 C13.8666667,6.33333333 14.5333333,6.86666667 14.8666667,6.6 C16.0666667,5.6 17.5333333,5.2 19,5.2 C20.4666667,5.2 21.9333333,5.6 23.1333333,6.6 C23.4666667,6.86666667 24.1333333,6.33333333 24,6.06666667" id="Shape"></path>
                        <path d="M21.9333333,12 L11.3333333,12 L0.733333333,12 C0.266666667,12 1.77635684e-15,12.3333333 1.77635684e-15,12.6666667 C1.77635684e-15,17.5333333 4,22.6666667 11.3333333,22.6666667 C18.6666667,22.6666667 22.6666667,17.5333333 22.6666667,12.6666667 C22.6666667,12.3333333 22.4,12 21.9333333,12" id="Shape"></path>
                    </g>
                    <path d="M26.1333333,28 L20,28 L13.8666667,28 C13.4,28 13.3333333,28.2 13.3333333,28.5333333 L13.3333333,31.2 C13.3333333,37.0666667 16.3333333,40 20,40 C23.6666667,40 26.6666667,37.0666667 26.6666667,31.2 L26.6666667,28.5333333 C26.6666667,28.2 26.6,28 26.1333333,28" id="Shape" fill="#FF717F"></path>
                    <polygon id="Shape" fill="#E2596C" points="21 28 20 37.2 19 28"></polygon>
                </g>
                <g id="1f632" transform="translate(656.326360, 24.169697) rotate(-11.000000) translate(-656.326360, -24.169697) translate(636.326360, 4.169697)">
                    <circle id="Oval" fill="#FFDD67" cx="20" cy="20" r="20"></circle>
                    <circle id="Oval" fill="#FFFFFF" cx="11.3333333" cy="18" r="7.33333333"></circle>
                    <path d="M14.6666667,18 C14.6666667,19.8666667 13.2,21.3333333 11.3333333,21.3333333 C9.46666667,21.3333333 8,19.8666667 8,18 C8,16.1333333 9.46666667,14.6666667 11.3333333,14.6666667 C13.2,14.6666667 14.6666667,16.1333333 14.6666667,18" id="Shape" fill="#664E27"></path>
                    <path d="M36,18 C36,22.0666667 32.7333333,25.3333333 28.6666667,25.3333333 C24.6,25.3333333 21.3333333,22.0666667 21.3333333,18 C21.3333333,13.9333333 24.6,10.6666667 28.6666667,10.6666667 C32.7333333,10.6666667 36,13.9333333 36,18" id="Shape" fill="#FFFFFF"></path>
                    <path d="M32,18 C32,19.8666667 30.5333333,21.3333333 28.6666667,21.3333333 C26.8,21.3333333 25.3333333,19.8666667 25.3333333,18 C25.3333333,16.1333333 26.8,14.6666667 28.6666667,14.6666667 C30.5333333,14.6666667 32,16.1333333 32,18" id="Shape" fill="#664E27"></path>
                    <g id="Group" transform="translate(6.666667, 5.333333)" fill="#917524">
                        <path d="M25.4666667,3.86666667 C23.3333333,2.06666667 20.4666667,1.26666667 17.6666667,1.8 C17.2666667,1.86666667 16.9333333,0.466666667 17.4,0.333333333 C20.6,-0.266666667 23.9333333,0.666666667 26.4,2.73333333 C26.8,3.06666667 25.7333333,4.13333333 25.4666667,3.86666667" id="Shape"></path>
                        <path d="M9,1.66666667 C6.2,1.2 3.33333333,1.93333333 1.2,3.73333333 C0.933333333,4 -0.133333333,2.93333333 0.266666667,2.6 C2.73333333,0.466666667 6.06666667,-0.4 9.26666667,0.2 C9.73333333,0.333333333 9.4,1.73333333 9,1.66666667" id="Shape"></path>
                    </g>
                    <circle id="Oval" fill="#664E27" cx="20" cy="31.3333333" r="6"></circle>
                    <path d="M16,29.3333333 C16.8,27.7333333 18.2666667,26.6666667 20,26.6666667 C21.7333333,26.6666667 23.2,27.7333333 24,29.3333333 L16,29.3333333" id="Shape" fill="#FFFFFF"></path>
                </g>
                <g id="1f4a5" transform="translate(378.181792, 4.169697)">
                    <polygon id="Shape" fill="#EF4E16" points="27.9375 22.125 40 15.4375 26.4375 16.0625 30.5 7.75 23.125 12.9375 24.0625 1.5 18.75 10.9375 10.6875 0 14.125 13.625 2.125 9.625 11.6875 18.375 0 20.6875 11.25 23.25 4.9375 34.4375 15.25 28.25 15.625 40 19.875 29.25 25.5625 37.75 25.25 27.5625 35 31.25"></polygon>
                    <polygon id="Shape" fill="#FFCE31" points="24.4375 21.125 31.5 17.8125 23.6875 17.625 25.75 12.9375 21.625 15.3125 21.75 9 19 14.25 14.8125 8.875 16.625 15.6875 9.625 13.9375 15.3125 18.8125 8.25 20.5 14.75 22 10.1875 29 17.1875 24.25 17.375 30.4375 19.875 24.8125 22.75 29 22.6875 23.9375 27.8125 26.1875"></polygon>
                    <polygon id="Shape" fill="#FFFFFF" points="21.8125 20.25 24.8125 18.875 21.5 18.8125 22.375 16.8125 20.625 17.8125 20.6875 15.125 19.5 17.375 17.75 15.125 18.5 18 15.5625 17.25 17.9375 19.3125 14.9375 20 17.6875 20.625 15.75 23.625 18.75 21.625 18.8125 24.25 19.875 21.8125 21.0625 23.625 21.0625 21.4375 23.25 22.4375"></polygon>
                </g>
                <g id="1f389" transform="translate(578.960900, 320.024242)">
                    <polygon id="Shape" fill="#F7B600" points="0 40 5.73333333 37.9310345 1.4 35.862069"></polygon>
                    <polygon id="Shape" fill="#FFDD7D" points="16.6 23.0344828 8.53333333 14.6206897 7.2 18.4827586"></polygon>
                    <polygon id="Shape" fill="#F7B600" points="7.2 18.4827586 5.73333333 22.8275862 23.6 31.4482759 24.4666667 31.1724138 16.6 23.0344828"></polygon>
                    <polygon id="Shape" fill="#FFDD7D" points="4.33333333 27.1724138 17.6666667 33.5862069 23.6 31.4482759 5.73333333 22.8275862"></polygon>
                    <polygon id="Shape" fill="#F7B600" points="2.86666667 31.5172414 11.6666667 35.7931034 17.6666667 33.5862069 4.33333333 27.1724138"></polygon>
                    <polygon id="Shape" fill="#FFDD7D" points="2.86666667 31.5172414 1.4 35.862069 5.73333333 37.9310345 11.6666667 35.7931034"></polygon>
                    <path d="M19.9333333,19.4482759 C24.4,24 26.7333333,29.1034483 25.1333333,30.7586207 C23.4666667,32.4137931 18.5333333,30.0689655 14,25.4482759 C9.53333333,20.8965517 7.2,15.7931034 8.8,14.137931 C10.4666667,12.4827586 15.4,14.8965517 19.9333333,19.4482759" id="Shape" fill="#493816"></path>
                    <path d="M14.3333333,7.93103448 C13.2666667,6.34482759 14.4,5.65517241 15.8666667,5.93103448 C14.4666667,4.20689655 15.3333333,2.96551724 17.5333333,3.44827586 C18.2,3.5862069 17.2666667,4.75862069 16.6666667,4.75862069 C18.4666667,6.13793103 17.4666667,7.65517241 15.5333333,7.31034483 C17.2666667,9.72413793 14.3333333,9.10344828 13,9.24137931 C12.6666667,11.0344828 14.6666667,13.1034483 14,13.1034483 C12.5333333,13.1034483 10.1333333,7.37931034 14.3333333,7.93103448" id="Shape" fill="#42ADE2"></path>
                    <path d="M28.3333333,11.2413793 C27.3333333,11.7241379 24.5333333,7.17241379 28,7.10344828 C26,5.24137931 26.2666667,4.34482759 28.9333333,4.27586207 C25.8666667,1.10344828 30.7333333,1.66533454e-15 31.2,1.65517241 C31.3333333,2.13793103 29.7333333,1.24137931 29.2,2.13793103 C28.6,3.17241379 32.9333333,5.86206897 28.4666667,5.65517241 C30.1333333,7.37931034 30.2,8.20689655 27.6,8.48275862 C27.9333333,9.03448276 29,10.9655172 28.3333333,11.2413793" id="Shape" fill="#FF8736"></path>
                    <path d="M29.4666667,22 L30.4666667,21.1034483 C30.4666667,21.1034483 31.4,22.5517241 32.0666667,23.1034483 C32.6,20.6206897 32.4666667,19.1724138 35.2,20.8275862 C33.6666667,16.5517241 36.2,18.137931 38.6666667,19.3103448 C38.5333333,18.2068966 38.6666667,18.3448276 39.7333333,18 C40.6666667,21.6551724 38.1333333,20.5517241 36.1333333,19.3793103 C37.3333333,22.6896552 36.0666667,22.4827586 33.5333333,21.3793103 C33.4666667,22.7586207 33.0666667,24.3448276 32.2666667,24.4827586 C31.3333333,24.7586207 29.4666667,22 29.4666667,22" id="Shape" fill="#ED4C5C"></path>
                    <path d="M22,11.7931034 C20.8,13.4482759 18.8666667,14.3448276 17.4666667,15.7931034 C16,17.3103448 15.1333333,21.4482759 15.1333333,21.4482759 C15.1333333,21.4482759 15.6666667,17.1034483 17.0666667,15.4482759 C18.3333333,13.9310345 20.2,12.8275862 21.2,11.1034483 C22.9333333,7.93103448 21.3333333,3.79310345 19.0666667,1.37931034 C19.5333333,0.965517241 20.2,0.413793103 20.5333333,1.77635684e-15 C22.7333333,2.82758621 24.6,8.27586207 22,11.7931034" id="Shape" fill="#C28FEF"></path>
                    <path d="M24.0666667,15.3103448 C22.3333333,16.6206897 21.0666667,18.5517241 19.8666667,20.3448276 C18.8,21.9310345 15.4,23.9310345 15.4,23.9310345 C15.4,23.9310345 18.6,21.6551724 19.6,20 C20.8,17.9310345 22,15.7931034 23.8666667,14.2758621 C27.6,11.3103448 33,11.5862069 37.2,13.1724138 C36.9333333,13.7931034 36.4666667,15.1034483 36.4666667,15.1034483 C36.4666667,15.1034483 27.6,12.6206897 24.0666667,15.3103448" id="Shape" fill="#FF8736"></path>
                    <g id="Group" transform="translate(0.666667, 5.517241)" fill="#42ADE2">
                        <path d="M30.8,9.44827586 C29.6666667,10.9655172 29.1333333,12.8275862 28.2666667,14.5517241 C27.4666667,16.137931 26.4,17.6551724 24.8666667,18.4827586 C23.1333333,19.3793103 19.3333333,19.1034483 19.3333333,19.1034483 C19.3333333,19.1034483 23.1333333,19.0344828 24.7333333,17.9310345 C26.3333333,16.8275862 27.2,14.8965517 27.8,13.1034483 C29,9.65517241 30.4666667,5.93103448 33.9333333,4.4137931 C34.1333333,5.03448276 34.6,6.34482759 34.6,6.34482759 C34.6,6.34482759 32.6666667,6.89655172 30.8,9.44827586" id="Shape"></path>
                        <polygon id="Shape" transform="translate(2.025640, 2.293034) rotate(-45.008103) translate(-2.025640, -2.293034) " points="0.69231944 0.913737352 3.35896056 0.913737352 3.35896056 3.67233161 0.69231944 3.67233161"></polygon>
                    </g>
                    <polygon id="Shape" fill="#FF8736" transform="translate(5.334013, 13.928979) rotate(-45.000000) translate(-5.334013, -13.928979) " points="4.00069279 12.5496822 6.66733388 12.5496822 6.66733388 15.3082764 4.00069279 15.3082764"></polygon>
                    <polygon id="Shape" fill="#ED4C5C" transform="translate(10.123973, 4.704800) rotate(-45.008103) translate(-10.123973, -4.704800) " points="8.79065277 3.32550287 11.4572939 3.32550287 11.4572939 6.08409713 8.79065277 6.08409713"></polygon>
                    <polygon id="Shape" fill="#C28FEF" transform="translate(30.688647, 28.065979) rotate(-45.000000) translate(-30.688647, -28.065979) " points="29.3553261 26.6866822 32.0219672 26.6866822 32.0219672 29.4452764 29.3553261 29.4452764"></polygon>
                    <polygon id="Shape" fill="#ED4C5C" transform="translate(26.487540, 34.752186) rotate(-45.000000) translate(-26.487540, -34.752186) " points="25.1542195 33.3728891 27.8208605 33.3728891 27.8208605 36.1314833 25.1542195 36.1314833"></polygon>
                    <polygon id="Shape" fill="#FF8736" transform="translate(34.737980, 36.280448) rotate(-45.000000) translate(-34.737980, -36.280448) " points="33.4046595 34.9011512 36.0713005 34.9011512 36.0713005 37.6597454 33.4046595 37.6597454"></polygon>
                    <g id="Group" transform="translate(31.333333, 4.137931)" fill="#42ADE2">
                        <polygon id="Shape" transform="translate(5.270640, 23.263021) rotate(-45.000000) translate(-5.270640, -23.263021) " points="3.93731945 21.8837236 6.60396055 21.8837236 6.60396055 24.6423178 3.93731945 24.6423178"></polygon>
                        <polygon id="Shape" transform="translate(2.123000, 2.636455) rotate(-45.000000) translate(-2.123000, -2.636455) " points="0.789679453 1.25715806 3.45632055 1.25715806 3.45632055 4.01575229 0.789679453 4.01575229"></polygon>
                    </g>
                    <polygon id="Shape" fill="#ED4C5C" transform="translate(13.248580, 18.477510) rotate(-45.000000) translate(-13.248580, -18.477510) " points="11.9152595 17.0982132 14.5819005 17.0982132 14.5819005 19.8568075 11.9152595 19.8568075"></polygon>
                </g>
                <g id="1f381" transform="translate(289.187419, 132.581818) rotate(12.000000) translate(-289.187419, -132.581818) translate(269.187419, 112.581818)">
                    <path d="M19.9333333,18.8666667 L19.9333333,40 C19.9333333,40 28.6666667,33.8666667 34.8,32.0666667 C34.8,32.0666667 35.0666667,19 38.8666667,12.4666667 L19.9333333,18.8666667" id="Shape" fill="#076170"></path>
                    <path d="M25.4,36.8 C25.4,36.8 25.7333333,18.0666667 26.4,17.1333333 C27.0666667,16.1333333 32.8,15.1333333 32.8,15.1333333 C32.8,15.1333333 30.4666667,32.6666667 31,33.8 C31.0666667,33.7333333 28.6666667,34.7333333 25.4,36.8" id="Shape" fill="#B3690E"></path>
                    <path d="M19.9333333,40 C19.9333333,40 13.8,34.8 4.26666667,32.0666667 C4.26666667,32.0666667 5,21.3333333 1.53333333,13.1333333 L19.9333333,18.8666667 L19.9333333,40 Z" id="Shape" fill="#3BAACF"></path>
                    <path d="M8.13333333,33.8 C8.13333333,33.8 13.7333333,36.0666667 14.1333333,36.8 C14.5333333,37.5333333 14.5333333,17.9333333 14.5333333,17.9333333 C14.5333333,17.9333333 6.86666667,15.8 6.2,15.8 C6.2,15.8 8.53333333,23.7333333 8.13333333,33.8" id="Shape" fill="#E9C243"></path>
                    <path d="M19.9333333,18.8666667 L19.9333333,22.4 L37.0666667,16.5333333 C37.5333333,15.0666667 38.1333333,13.6666667 38.8,12.4666667 L19.9333333,18.8666667" id="Shape" fill="#000000" opacity="0.3"></path>
                    <path d="M2.73333333,16.8 C2.4,15.5333333 2,14.3333333 1.46666667,13.1333333 L19.8666667,18.8666667 L19.8666667,22.4 L2.73333333,16.8" id="Shape" fill="#000000" opacity="0.3"></path>
                    <polygon id="Shape" fill="#4FC7E8" points="0 11.2666667 19 15.4666667 40 10.4 19.4 9.26666667"></polygon>
                    <polygon id="Shape" fill="#3BAACF" points="0 11.2666667 1.53333333 15.4666667 19 20.4 19 15.4666667"></polygon>
                    <path d="M19,20.4 C19,20.4 34.8666667,14.5333333 38.8,14.2666667 C38.8,14.2666667 39.0666667,11.9333333 40,10.4666667 L19,15.4666667 L19,20.4" id="Shape" fill="#076170"></path>
                    <g id="Group" transform="translate(5.333333, 10.000000)" fill="#F0AE11">
                        <polygon id="Shape" points="0.333333333 2.53333333 4.2 6.2 8.46666667 4.26666667 14.6666667 2.4 22.4 3.33333333 26.4666667 4.13333333 29.7333333 1.6"></polygon>
                        <polygon id="Shape" points="8.46666667 4.26666667 14.6666667 2.4 22.4 3.33333333 29.7333333 1.6 14.2666667 0.133333333 0.333333333 2.53333333"></polygon>
                    </g>
                    <polygon id="Shape" fill="#F8D048" points="5.66666667 12.5333333 5.66666667 17.2 13.4666667 19.3333333 13.8 14.2666667"></polygon>
                    <polygon id="Shape" fill="#C47116" points="27.7333333 13.3333333 27.8666667 17.8 34.5333333 15.8 35.0666667 11.6"></polygon>
                    <path d="M23.5333333,10.2 C23.5333333,10.2 23.5333333,5.53333333 28.0666667,1.46666667 C28.0666667,1.46666667 25.3333333,2.46666667 24,2.2 C22.4,1.93333333 21.8666667,8.8817842e-16 21.8666667,8.8817842e-16 C21.8666667,8.8817842e-16 18,8.4 19.1333333,9.46666667 C20.2666667,10.6 23.5333333,10.2 23.5333333,10.2" id="Shape" fill="#EA9F07"></path>
                    <path d="M17.6,12.9333333 C17.6,12.9333333 15,7.6 9.46666667,4.8 C9.46666667,4.8 13.8,4.4 14.8,3.86666667 C16.0666667,3.26666667 16.8,1.6 16.8,1.6 C16.8,1.6 21.6,10 21.2,11.2666667 C20.8,12.5333333 17.6,12.9333333 17.6,12.9333333" id="Shape" fill="#F8D048"></path>
                    <path d="M20.4,12.3333333 C20.4,12.3333333 16.3333333,13.9333333 11.1333333,13.9333333 C0.2,13.8666667 -1.33333333,6 9.46666667,6.73333333 C18.3333333,7.4 20.4,12.3333333 20.4,12.3333333" id="Shape" fill="#EA9F07"></path>
                    <path d="M19.6666667,12.2666667 C19.6666667,12.2666667 24.4666667,12.6666667 28.9333333,11.5333333 C38.2666667,9.13333333 34.8,2.06666667 26,5.06666667 C18.8,7.53333333 19.6666667,12.2666667 19.6666667,12.2666667" id="Shape" fill="#F0AE11"></path>
                    <g id="Group" transform="translate(8.666667, 6.666667)" fill="#824000">
                        <path d="M11.7333333,5.66666667 C11.7333333,5.66666667 9.2,6.66666667 5.93333333,6.66666667 C-0.866666667,6.66666667 -1.86666667,1.73333333 4.86666667,2.2 C10.4,2.6 11.7333333,5.66666667 11.7333333,5.66666667" id="Shape"></path>
                        <path d="M11.7333333,5.66666667 C11.7333333,5.66666667 15.0666667,5.93333333 18.2,5.13333333 C24.7333333,3.46666667 22.2666667,-1.46666667 16.2,0.6 C11.1333333,2.33333333 11.7333333,5.66666667 11.7333333,5.66666667" id="Shape"></path>
                    </g>
                </g>
                <g id="1f5fa" transform="translate(926.661088, 76.290909) rotate(10.000000) translate(-926.661088, -76.290909) translate(906.661088, 56.290909)">
                    <polygon id="Shape" fill="#DFE9EF" points="13.0666667 36.4 0 37.4666667 4.06666667 2 16.7333333 1.2"></polygon>
                    <polygon id="Shape" fill="#BBC3C7" points="27.6 40 13.0666667 36.4 16.7333333 1.2 25.9333333 5.2"></polygon>
                    <polygon id="Shape" fill="#DFE9EF" points="40 35.4666667 27.6 40 25.9333333 5.2 35.9333333 0"></polygon>
                    <polygon id="Shape" fill="#5DF6FF" points="13.4 33.4 3.2 34.2 6.33333333 4.33333333 16.4666667 3.73333333"></polygon>
                    <polygon id="Shape" fill="#00C0CF" points="27.4666667 37.3333333 13.4 33.4 16.4666667 3.73333333 26.0666667 7.73333333"></polygon>
                    <polygon id="Shape" fill="#5DF6FF" points="37.2666667 33.6666667 27.4666667 37.3333333 26.0666667 7.73333333 34 3.93333333"></polygon>
                    <g id="Group" opacity="0.7" transform="translate(5.333333, 7.333333)">
                        <path d="M7.73333333,15.3333333 C7.53333333,15.4 7.33333333,15.5333333 7.2,15.6666667 L7.26666667,15.7333333 C6,18.0666667 8,18.8666667 8,18.8666667 C7.2,22.9333333 8.86666667,24.2666667 8.86666667,24.2666667 C8.46666667,21.2 10.8666667,19.2 10.8666667,19.2 C11.5333333,16.0666667 8.66666667,15.4666667 7.73333333,15.3333333" id="Shape" fill="#F361F5"></path>
                        <path d="M6.93333333,15.0666667 C5.73333333,14.2666667 5.73333333,13 5.73333333,13 C7.73333333,13 9.93333333,10.0666667 9.93333333,10.0666667 C8.46666667,5.4 7.86666667,9.33333333 7.86666667,9.33333333 C5.73333333,7.06666667 8.46666667,6 8.46666667,6 C6.8,5.33333333 6.06666667,3.46666667 6.06666667,3.46666667 C6,4.66666667 5.46666667,4.6 5.46666667,4.6 C1.66666667,2.53333333 1,5.86666667 1,5.86666667 C1.6,7.66666667 0.333333333,7.86666667 0.333333333,7.86666667 C1.6,8.06666667 2.26666667,6.46666667 2.26666667,6.46666667 C4.86666667,7.66666667 3.46666667,12.0666667 3.46666667,12.0666667 C4.46666667,12.6 4.73333333,14.4666667 4.73333333,14.4666667 C5.46666667,14.6666667 6.13333333,15.0666667 6.66666667,15.4 C6.73333333,15.2 6.8,15.1333333 6.93333333,15.0666667" id="Shape" fill="#EDBA53"></path>
                        <path d="M10.9333333,2.06666667 C10.9333333,2.06666667 9.8,1.33333333 7.93333333,2.46666667 C7.93333333,2.46666667 7.46666667,6.66666667 10.9333333,2.06666667" id="Shape" fill="#EEF8FB"></path>
                        <path d="M13.7333333,3 C12.2666667,0.6 9.86666667,3.86666667 9.86666667,3.86666667 C10.7333333,4.53333333 10.8,5.13333333 10.6666667,5.66666667 C10.0666667,7.66666667 10.8666667,8.26666667 10.8666667,8.26666667 C11.3333333,6.6 12.9333333,6.33333333 12.9333333,6.33333333 C12.7333333,4.8 13.7333333,3 13.7333333,3" id="Shape" fill="#5F5CFF"></path>
                        <path d="M17.8,13.8 C17.6666667,13.8666667 17.5333333,13.8666667 17.4,13.8 C17.0666667,13.4666667 16.8666667,13.0666667 16.6666667,12.6666667 C16.6,12.6 16.6,12.5333333 16.6,12.4666667 C15.4666667,12.0666667 13.2666667,11.6666667 12.9333333,14.7333333 C12.9333333,14.7333333 13.3333333,16.8 14.7333333,15.7333333 C14.7333333,15.7333333 16.2666667,16 15.6666667,18.7333333 C15.6666667,18.7333333 15.9333333,20.8666667 17.2666667,20.6666667 C17.2666667,20.6666667 17.6,17.6 19.3333333,15.2 C19.2666667,15.2666667 18.6,15.9333333 17.8,13.8" id="Shape" fill="#FF7033"></path>
                        <path d="M28.8666667,3.4 C28.8666667,3.4 25.6,4.53333333 22,4.2 C22,4.2 22.3333333,3.13333333 21.0666667,3 C21.0666667,3 19.4,5 20.1333333,6.13333333 C20.1333333,6.13333333 19.8,8.13333333 19.4,5.2 C19.4,5.2 18.7333333,6.93333333 17.7333333,6.53333333 C17.7333333,6.53333333 17.4666667,8.26666667 16.8666667,7.13333333 C16.8666667,7.13333333 17.3333333,7.33333333 17.4666667,6.8 C17.4666667,6.8 16.0666667,5.4 15.2666667,7.53333333 C15.2666667,7.53333333 14.6,7.8 14.8666667,8.73333333 C14.8666667,8.73333333 15.3333333,7.93333333 15.6,9.13333333 C15.6,9.13333333 15.8666667,8.93333333 15.9333333,7.4 C15.9333333,7.4 16.6,7.06666667 16.0666667,8.33333333 C16.0666667,8.33333333 17.5333333,8.33333333 15.2666667,9.6 C15.2666667,9.6 15.1333333,9.6 15.0666667,9.13333333 C15.0666667,9.13333333 14.7333333,10.2666667 14,10.6666667 C14,10.6666667 14.2,11.1333333 13.6666667,11.3333333 C13.6666667,11.3333333 13.4,12.0666667 14.0666667,12.0666667 C14.0666667,12.0666667 14.6666667,10.4 15.8,11.7333333 C15.8,11.7333333 16,11.6666667 15.6666667,11 C15.6666667,11 16.2666667,11.2 16.4666667,12.0666667 C16.4666667,12.0666667 16.8,12 16.8666667,11.2666667 C16.8666667,11.2666667 17.3333333,10.2666667 18.0666667,11.4666667 C18.0666667,11.4666667 17.0666667,11.2 16.8,12.1333333 C16.8,12.1333333 17.2666667,11.9333333 17.5333333,12.2 C17.5333333,12.2 17.5333333,12.6666667 17.2666667,12.8 C17.4,13 17.5333333,13.2666667 17.7333333,13.4 C17.8666667,13.5333333 17.8666667,13.6666667 17.8,13.8 C18.3333333,14.6666667 19.2666667,15.7333333 20,14 C20,14 19.0666667,14.4666667 18.8,13.1333333 C18.8,13.1333333 21.1333333,13.4 21.7333333,15.7333333 C21.7333333,15.7333333 22.4,15.2666667 22.6,13.7333333 C22.6,13.7333333 23.4,13.8 24.3333333,15.7333333 C24.3333333,15.7333333 24.7333333,15.6666667 24.5333333,14.4 C24.5333333,14.4 26.0666667,13.8 25.2,11.3333333 C25.2,11.3333333 26.4666667,13 26.0666667,10.8666667 C26.0666667,10.8666667 27.4666667,9.26666667 25.8,8.2 C25.8,8.2 25.8666667,7 26.8666667,7.2 C26.8666667,7.2 27.8666667,4.73333333 27.4,7.66666667 C27.4,7.66666667 27.4,8.26666667 28.0666667,8.86666667 C28.0666667,8.86666667 28.3333333,7.93333333 27.8666667,6.86666667 C28,6.73333333 29,4.93333333 28.8666667,3.4" id="Shape" fill="#6C732D"></path>
                        <g transform="translate(12.000000, 6.666667)" id="Shape" fill="#F361F5">
                            <path d="M2.6,3.2 C2.86666667,2.6 2,2 2,2 C2.13333333,3.33333333 2.33333333,3.73333333 2.6,3.2"></path>
                            <path d="M1.53333333,3.26666667 C1.53333333,3.26666667 1.93333333,3.2 1.86666667,2.73333333 C1.86666667,2.73333333 1.53333333,2.73333333 1.53333333,3.26666667"></path>
                            <path d="M1.4,0.533333333 C1.4,0.533333333 0.333333333,0.533333333 0.733333333,1.06666667 C1.06666667,1.53333333 1.4,0.533333333 1.4,0.533333333"></path>
                        </g>
                        <path d="M18.8,19.6666667 C18.8,19.6666667 19.1333333,19.0666667 19.1333333,18.0666667 C19.1333333,18.0666667 18.0666667,19.2 18.8,19.6666667" id="Shape" fill="#EDFF54"></path>
                        <path d="M25.6,15.7333333 C25.6,15.7333333 24.8666667,16.4 25,17 C25.1333333,17.6 25.8,16.8666667 25.6,15.7333333" id="Shape" fill="#EEF8FB"></path>
                        <path d="M28.6666667,17.8666667 C29,17.3333333 26.8666667,16.6666667 26.8666667,16.6666667 C27.2666667,17.2 28.3333333,18.3333333 28.6666667,17.8666667" id="Shape" fill="#EDFF54"></path>
                        <path d="M26.2,17.9333333 C26.7333333,17.1333333 24.6666667,17.5333333 24.6666667,17.5333333 C24.6666667,17.5333333 26,18.2666667 26.2,17.9333333" id="Shape" fill="#F361F5"></path>
                        <g transform="translate(7.333333, 4.000000)" id="Shape" fill="#FF3333">
                            <path d="M19.6666667,14.1333333 C19.6666667,14.1333333 19.2666667,15 17.7333333,15.3333333 C17.7333333,15.3333333 18.0666667,16 17.7333333,17.3333333 C17.7333333,17.3333333 19.2666667,15.5333333 20.1333333,18.1333333 C20.1333333,18.1333333 20.8666667,18.5333333 21.4,16.1333333 C21.4,16.1333333 20.7333333,15.2666667 20.5333333,14.0666667 C20.6,14.0666667 20.4,15.6 19.6666667,14.1333333"></path>
                            <path d="M19,8.33333333 C19,8.33333333 20.7333333,7.73333333 20,6.33333333 C20.0666667,6.26666667 20.2,6.2 20.2,6.2 C19.4666667,5.06666667 19.7333333,6.66666667 19.7333333,6.66666667 C19.8,6.53333333 19.8666667,6.46666667 19.8666667,6.4 C19.8666667,6.93333333 19.8,7.66666667 19,8.33333333"></path>
                            <path d="M1.06666667,3 C1.06666667,3 2.33333333,4.8 2.46666667,2.8 C2.53333333,2.33333333 2.33333333,2.26666667 2.13333333,2.26666667 C2.06666667,0.933333333 1.13333333,0.533333333 1.13333333,0.533333333 C0.533333333,0.866666667 0.6,1.33333333 0.6,1.33333333 C1.13333333,1.4 1.46666667,2.06666667 1.66666667,2.6 C1.6,2.8 1.4,3 1.06666667,3"></path>
                        </g>
                        <path d="M14.2,1.93333333 C14.6,1.13333333 13.4,0.2 13.4,0.2 C13.5333333,2.13333333 13.8,2.73333333 14.2,1.93333333" id="Shape" fill="#EDFF54"></path>
                        <path d="M13.2,1.2 C13.2,1.2 12.7333333,1.26666667 12.7333333,2 C12.7333333,2 13.3333333,1.93333333 13.2,1.2" id="Shape" fill="#FFFFFF"></path>
                    </g>
                </g>
                <g id="1f680" transform="translate(157.246862, 65.866667) scale(-1, 1) rotate(-13.000000) translate(-157.246862, -65.866667) translate(137.246862, 45.866667)">
                    <g id="Group" transform="translate(4.000000, 27.540984)" fill="#FF9D27">
                        <path d="M1.93333333,3.08196721 C4.6,0.459016393 4.86666667,-0.196721311 6.53333333,1.44262295 C8.2,3.08196721 7.53333333,3.27868852 4.86666667,5.96721311 C2.86666667,7.93442623 0.333333333,7.54098361 0.333333333,7.54098361 C0.333333333,7.54098361 -0.0666666667,5.04918033 1.93333333,3.08196721" id="Shape"></path>
                        <path d="M7,5.7704918 C8.06666667,3.01639344 8.4,2.68852459 6.86666667,1.83606557 C5.33333333,0.983606557 5.33333333,1.57377049 4.33333333,4.32786885 C3.53333333,6.36065574 4.46666667,8.19672131 4.46666667,8.19672131 C4.46666667,8.19672131 6.26666667,7.86885246 7,5.7704918" id="Shape"></path>
                    </g>
                    <path d="M9.46666667,30.7540984 C10.0666667,29.2459016 10.0666667,28.9180328 10.8666667,29.3770492 C11.7333333,29.8360656 11.5333333,30.0327869 10.9333333,31.5409836 C10.5333333,32.6557377 9.53333333,32.9180328 9.53333333,32.9180328 C9.53333333,32.9180328 9.06666667,31.9344262 9.46666667,30.7540984" id="Shape" fill="#FDF516"></path>
                    <path d="M10.0666667,28.6557377 C9.2,27.147541 8.86666667,27.4754098 6.06666667,28.5245902 C4,29.3114754 3.6,31.0163934 3.6,31.0163934 C3.6,31.0163934 5.46666667,31.9344262 7.53333333,31.147541 C10.3333333,30.0983607 10.9333333,30.0983607 10.0666667,28.6557377" id="Shape" fill="#FF9D27"></path>
                    <g id="Group" transform="translate(6.000000, 27.540984)" fill="#FDF516">
                        <path d="M2.66666667,2.49180328 C4.2,1.90163934 4.53333333,1.90163934 4.06666667,1.1147541 C3.6,0.262295082 3.4,0.459016393 1.86666667,1.04918033 C0.733333333,1.44262295 0.466666667,2.42622951 0.466666667,2.42622951 C0.466666667,2.42622951 1.53333333,2.8852459 2.66666667,2.49180328" id="Shape"></path>
                        <path d="M1.93333333,2.36065574 C3.4,0.918032787 3.53333333,0.524590164 4.46666667,1.44262295 C5.4,2.36065574 5,2.49180328 3.53333333,3.93442623 C2.4,5.04918033 1,4.78688525 1,4.78688525 C1,4.78688525 0.866666667,3.47540984 1.93333333,2.36065574" id="Shape"></path>
                    </g>
                    <path d="M11,23.6065574 C6.86666667,16.7868852 0,19.6065574 0,19.6065574 C0,19.6065574 9.8,9.96721311 16.4,16.4590164 L11,23.6065574 Z" id="Shape" fill="#3BAACF"></path>
                    <path d="M14.2,18.557377 L16.3333333,16.4590164 C9.8,9.96721311 0,19.6065574 0,19.6065574 C0,19.6065574 8.6,13.5737705 14.2,18.557377" id="Shape" fill="#428BC1"></path>
                    <path d="M16,28.5245902 C22.9333333,32.5901639 20.0666667,39.3442623 20.0666667,39.3442623 C20.0666667,39.3442623 29.8666667,29.704918 23.2666667,23.2131148 L16,28.5245902 Z" id="Shape" fill="#3BAACF"></path>
                    <path d="M21.1333333,25.3770492 L23.2666667,23.2786885 C29.8666667,29.7704918 20.0666667,39.4098361 20.0666667,39.4098361 C20.0666667,39.4098361 26.2,30.8852459 21.1333333,25.3770492" id="Shape" fill="#428BC1"></path>
                    <path d="M31.2,18.9508197 C23.4,26.557377 14.8,30.6885246 11.8,27.7377049 C8.8,24.7868852 13,16.3278689 20.7333333,8.6557377 C29.8,-0.262295082 39.8666667,0.131147541 39.8666667,0.131147541 C39.8666667,0.131147541 40.2,10.0327869 31.2,18.9508197" id="Shape" fill="#C5D0D8"></path>
                    <path d="M29.2,16.7868852 C21.4666667,24.3934426 13.7333333,29.3770492 11.9333333,27.6065574 C10.1333333,25.8360656 15.2,18.2295082 22.9333333,10.6229508 C32,1.70491803 40,0 40,0 C40,0 38.2666667,7.86885246 29.2,16.7868852 Z" id="Shape" fill="#DAE3EA"></path>
                    <path d="M14.8666667,29.8360656 C14.5333333,30.1639344 14,30.1639344 13.6666667,29.8360656 L9.66666667,25.9016393 C9.33333333,25.5737705 9.33333333,24.9836066 9.66666667,24.6557377 L10.8666667,23.4754098 L16.0666667,28.5901639 L14.8666667,29.8360656" id="Shape" fill="#C94747"></path>
                    <path d="M13.7333333,28.6557377 C13.4,28.9836066 13,29.1147541 12.8,28.9180328 L10.5333333,26.6885246 C10.3333333,26.4918033 10.4666667,26.0983607 10.8,25.7704918 L12,24.5901639 L14.9333333,27.4754098 L13.7333333,28.6557377" id="Shape" fill="#F15744"></path>
                    <path d="M12.6,30.295082 C12.4,30.4918033 11.9333333,30.4918033 11.7333333,30.295082 L9.13333333,27.7377049 C8.93333333,27.5409836 9,27.147541 9.2,26.9508197 L10,26.1639344 L13.4,29.5081967 L12.6,30.295082" id="Shape" fill="#3E4347"></path>
                    <path d="M12.0666667,29.7704918 C11.8666667,29.9672131 11.4666667,30.0327869 11.3333333,29.9016393 L9.53333333,28.1311475 C9.4,28 9.46666667,27.6721311 9.73333333,27.4754098 L10.5333333,26.6885246 L12.8666667,28.9836066 L12.0666667,29.7704918" id="Shape" fill="#62727A"></path>
                    <path d="M39.8666667,0.131147541 C39.8666667,0.131147541 36.2666667,5.55111512e-17 31.4,1.83606557 L38.1333333,8.45901639 C40,3.67213115 39.8666667,0.131147541 39.8666667,0.131147541" id="Shape" fill="#C94747"></path>
                    <path d="M39.8666667,0.131147541 C39.8666667,0.131147541 37,0.721311475 32.6666667,3.14754098 L36.8,7.21311475 C39.2666667,2.95081967 39.8666667,0.131147541 39.8666667,0.131147541" id="Shape" fill="#F15744"></path>
                    <ellipse id="Oval" fill="#EDF4F9" cx="27.6666667" cy="12.1311475" rx="3.33333333" ry="3.27868852"></ellipse>
                    <ellipse id="Oval" fill="#3BAACF" cx="27.6666667" cy="12.1311475" rx="2.2" ry="2.16393443"></ellipse>
                    <ellipse id="Oval" fill="#EDF4F9" cx="21" cy="18.6885246" rx="3.33333333" ry="3.27868852"></ellipse>
                    <ellipse id="Oval" fill="#3BAACF" cx="21" cy="18.6885246" rx="2.2" ry="2.16393443"></ellipse>
                    <g id="Group" transform="translate(30.000000, 1.967213)" fill="#FFFFFF">
                        <path d="M1.26666667,1.24590164 C1.06666667,1.44262295 0.666666667,1.44262295 0.466666667,1.24590164 C0.266666667,1.04918033 0.266666667,0.655737705 0.466666667,0.459016393 C0.666666667,0.262295082 1.06666667,0.262295082 1.26666667,0.459016393 C1.46666667,0.655737705 1.46666667,1.04918033 1.26666667,1.24590164" id="Shape"></path>
                        <ellipse id="Oval" cx="2.4" cy="2.36065574" rx="1" ry="1"></ellipse>
                        <ellipse id="Oval" cx="4" cy="3.93442623" rx="1" ry="1"></ellipse>
                        <ellipse id="Oval" cx="5.53333333" cy="5.50819672" rx="1" ry="1"></ellipse>
                        <ellipse id="Oval" cx="7.13333333" cy="7.01639344" rx="1" ry="1"></ellipse>
                    </g>
                </g>
                <g id="2708" transform="translate(759.942721, 248.290909) rotate(-13.000000) translate(-759.942721, -248.290909) translate(739.942721, 228.290909)">
                    <g id="Group" transform="translate(3.278689, 1.967213)" fill="#ACB8BF">
                        <polygon id="Shape" transform="translate(3.454193, 3.722030) rotate(-45.000000) translate(-3.454193, -3.722030) " points="-0.316262201 2.80400553 7.22464909 2.80400553 7.22464909 4.64005349 -0.316262201 4.64005349"></polygon>
                        <polygon id="Shape" transform="translate(12.771961, 5.063666) rotate(-44.991897) translate(-12.771961, -5.063666) " points="9.00150497 4.14564158 16.5424163 4.14564158 16.5424163 5.98168957 9.00150497 5.98168957"></polygon>
                        <polygon id="Shape" transform="translate(31.060377, 31.330770) rotate(-44.983794) translate(-31.060377, -31.330770) " points="27.2899213 30.4127465 34.8308328 30.4127465 34.8308328 32.2487945 27.2899213 32.2487945"></polygon>
                        <polygon id="Shape" transform="translate(29.728200, 21.955826) rotate(-44.983794) translate(-29.728200, -21.955826) " points="25.9577442 21.0378022 33.4986558 21.0378022 33.4986558 22.8738502 25.9577442 22.8738502"></polygon>
                    </g>
                    <path d="M35.6721311,39.147541 L32.5901639,11.5409836 L28.4590164,7.40983607 C28.4590164,7.40983607 28.4590164,7.40983607 0.852459016,4.32786885 C-0.459016393,4.19672131 -0.196721311,7.47540984 1.31147541,8.19672131 L22.0983607,17.9016393 C22.0983607,17.9016393 22.0983607,17.9016393 31.8032787,38.6885246 C32.5245902,40.1967213 35.8032787,40.4590164 35.6721311,39.147541" id="Shape" fill="#42ADE2"></path>
                    <path d="M38.8852459,4.6557377 C40.3278689,1.83606557 38.1639344,-0.327868852 35.3442623,1.1147541 C31.7377049,2.95081967 26.4262295,7.08196721 21.0491803,12.3934426 C12.6557377,20.7868852 7.27868852,29.1147541 9.04918033,30.9508197 C10.8196721,32.7213115 19.2131148,27.3442623 27.6065574,18.9508197 C32.9180328,13.6393443 37.0491803,8.26229508 38.8852459,4.6557377" id="Shape" fill="#DAE3EA"></path>
                    <path d="M13.3770492,38.8196721 L12.3278689,29.1147541 L10.8852459,27.6721311 C10.8852459,27.6721311 10.8852459,27.6721311 1.18032787,26.6229508 C0.721311475,26.557377 0.786885246,27.7377049 1.31147541,28 L8.59016393,31.4098361 C8.59016393,31.4098361 8.59016393,31.4098361 12,38.6885246 C12.2622951,39.2131148 13.442623,39.2786885 13.3770492,38.8196721" id="Shape" fill="#42ADE2"></path>
                    <path d="M11.9344262,29.6393443 C8.98360656,32.5901639 6.29508197,34.6229508 5.90163934,34.1639344 C5.50819672,33.7704918 7.54098361,31.0163934 10.4262295,28.0655738 C13.3770492,25.1147541 16.0655738,23.0819672 16.5245902,23.5409836 C16.852459,23.9344262 14.8196721,26.6885246 11.9344262,29.6393443" id="Shape" fill="#ACB8BF"></path>
                    <path d="M37.9016393,5.70491803 C38.2295082,4.52459016 38.0983607,3.40983607 37.3770492,2.62295082 C36.6557377,1.90163934 35.4754098,1.70491803 34.3606557,2.09836066 L32.1311475,3.47540984 C33.2459016,3.08196721 34.8852459,3.67213115 35.6065574,4.39344262 C36.3934426,5.18032787 36.9180328,6.75409836 36.5245902,7.86885246 L37.9016393,5.70491803" id="Shape" fill="#3E4347"></path>
                    <polygon id="Shape" fill="#DAE3EA" transform="translate(36.085454, 4.199856) rotate(-45.024309) translate(-36.085454, -4.199856) " points="33.4625283 3.69985581 38.7083801 3.69985581 38.7083801 4.29001414 33.4625283 4.29001414"></polygon>
                </g>
                <g id="Group-14" transform="translate(752.849950, 102.157576)">
                    <ellipse id="Oval" fill="#D0D0D0" cx="20" cy="31.6" rx="20" ry="8.4"></ellipse>
                    <path d="M3.8,15.2 L3.8,30.2 C3.8,34 11.0666667,37.0666667 20,37.0666667 C28.9333333,37.0666667 36.2,34 36.2,30.2666667 L36.2,15.2 L3.8,15.2 Z" id="Shape" fill="#D3976E"></path>
                    <g id="Group" transform="translate(3.333333, 19.333333)" fill="#FFDD7D">
                        <path d="M32.8666667,0.266666667 C32.8,2.93333333 22.6,5.86666667 16.6666667,5.86666667 C10.7333333,5.86666667 0.533333333,2.93333333 0.466666667,0.266666667 L0.466666667,4.33333333 C8.8,10.3333333 24.5333333,10.3333333 32.8666667,4.33333333 L32.8666667,0.266666667" id="Shape"></path>
                        <path d="M32.8666667,6.66666667 C32.8,9.33333333 22.6,12.2666667 16.6666667,12.2666667 C10.7333333,12.2666667 0.533333333,9.33333333 0.466666667,6.66666667 L0.466666667,10.7333333 C8.8,16.7333333 24.5333333,16.7333333 32.8666667,10.7333333 L32.8666667,6.66666667" id="Shape"></path>
                    </g>
                    <path d="M3.8,15.2 L3.8,26.4666667 C3.8,27.0666667 4.33333333,27.6 5.06666667,27.6 C5.73333333,27.6 6.33333333,27.1333333 6.33333333,26.4666667 L6.33333333,23.8666667 C6.33333333,23.0666667 7.06666667,22.4 8,22.4 C8.93333333,22.4 9.66666667,23.0666667 9.66666667,23.8666667 L9.66666667,27.0666667 C9.66666667,28 10.5333333,28.8 11.6,28.8 C12.6666667,28.8 13.5333333,28.0666667 13.5333333,27.0666667 L13.5333333,23.8 C13.5333333,22.9333333 14.3333333,22.2666667 15.2666667,22.2666667 C16.2,22.2666667 17,22.9333333 17,23.8 L17,25.8666667 C17,26.3333333 17.4,26.7333333 18,26.7333333 C18.5333333,26.7333333 19,26.3333333 19,25.8666667 L19,24.2 C19,23.6 19.5333333,23.0666667 20.2666667,23.0666667 C20.9333333,23.0666667 21.5333333,23.5333333 21.5333333,24.2 L21.5333333,27 C21.5333333,27.9333333 22.4,28.7333333 23.4666667,28.7333333 C24.5333333,28.7333333 25.4,28 25.4,27 L25.4,23.8666667 C25.4,23.0666667 26.1333333,22.4 27.0666667,22.4 C28,22.4 28.7333333,23.0666667 28.7333333,23.8666667 L28.7333333,26.2 C28.7333333,26.6666667 29.2,27.0666667 29.7333333,27.0666667 C30.2666667,27.0666667 30.7333333,26.6666667 30.7333333,26.2 L30.7333333,24.6 C30.7333333,24.2 31.1333333,23.8666667 31.6,23.8666667 C32.0666667,23.8666667 32.4666667,24.2 32.4666667,24.6 L32.4666667,27.0666667 C32.4666667,28 33.3333333,28.8 34.4,28.8 C35.4666667,28.8 36.3333333,28.0666667 36.3333333,27.0666667 L36.3333333,15.2666667 L3.8,15.2" id="Shape" fill="#A80038"></path>
                    <ellipse id="Oval" fill="#FF2C68" cx="20" cy="15.2" rx="16.2" ry="6.8"></ellipse>
                    <path d="M8.26666667,14.5333333 C8.2,10.2 27.4,9.6 27.4666667,13.4666667 C27.5333333,16.3333333 15.2666667,16.4666667 15.2,14.2 C15.1333333,12.6 22.8,12.5333333 22.8,13.7333333 C22.8,14.9333333 16.6,15.1333333 18.0666667,13.6 C15.6,15.4666667 23.4666667,15.5333333 23.4,13.8 C23.3333333,11.8 14.1333333,12.0666667 14.1333333,14.1333333 C14.2,17.2 28.4,16.8666667 28.3333333,13.4 C28.2666667,8.86666667 7,9.06666667 7.13333333,14.4666667 C7.26666667,20.4 27.9333333,22.5333333 34.6666667,15 C25.5333333,21.9333333 8.33333333,18.6 8.26666667,14.5333333" id="Shape" fill="#FFA4A4"></path>
                    <path d="M6.53333333,6.4 L6.53333333,13.6 C6.53333333,14.6 8.66666667,14.4666667 8.66666667,13.6 L8.66666667,6.4 C8.66666667,5.4 6.53333333,5.4 6.53333333,6.4" id="Shape" fill="#42ADE2"></path>
                    <g id="Group" transform="translate(6.000000, 6.666667)" fill="#428BC1">
                        <polygon id="Shape" points="2.66666667 0.4 0.533333333 1.53333333 0.533333333 2.8 2.66666667 1.73333333"></polygon>
                        <polygon id="Shape" points="0.533333333 5 0.533333333 6.2 2.66666667 5.13333333 2.66666667 3.86666667"></polygon>
                    </g>
                    <path d="M8.73333333,4.8 C8.73333333,6.46666667 6.53333333,6.46666667 6.53333333,4.8 C6.53333333,4.26666667 7.66666667,2.53333333 7.66666667,2.53333333 C7.66666667,2.53333333 8.73333333,4.26666667 8.73333333,4.8" id="Shape" fill="#FF8B00"></path>
                    <path d="M8.2,5.33333333 C8.2,6.26666667 7.06666667,6.26666667 7.06666667,5.33333333 C7.06666667,5.06666667 7.6,4.2 7.6,4.2 C7.6,4.2 8.2,5.06666667 8.2,5.33333333" id="Shape" fill="#FFF033"></path>
                    <path d="M19.0666667,3.46666667 L19.0666667,9.73333333 C19.0666667,10.7333333 20.9333333,10.5333333 20.9333333,9.73333333 L20.9333333,3.46666667 C20.9333333,2.46666667 19.0666667,2.46666667 19.0666667,3.46666667" id="Shape" fill="#42ADE2"></path>
                    <g id="Group" transform="translate(18.666667, 4.000000)" fill="#428BC1">
                        <polygon id="Shape" points="2.26666667 0 0.4 1 0.4 2.13333333 2.26666667 1.13333333"></polygon>
                        <polygon id="Shape" points="0.4 4 0.4 5.06666667 2.26666667 4.13333333 2.26666667 3.06666667"></polygon>
                    </g>
                    <path d="M20.9333333,2 C20.9333333,3.53333333 19,3.53333333 19,2 C19,1.53333333 19.9333333,0 19.9333333,0 C19.9333333,0 20.9333333,1.53333333 20.9333333,2" id="Shape" fill="#FF8B00"></path>
                    <path d="M20.4666667,2.46666667 C20.4666667,3.4 19.5333333,3.4 19.5333333,2.46666667 C19.5333333,2.2 20,1.46666667 20,1.46666667 C20,1.46666667 20.4666667,2.2 20.4666667,2.46666667" id="Shape" fill="#FFF033"></path>
                    <path d="M31.2666667,6.4 L31.2666667,13.6 C31.2666667,14.6 33.4,14.4666667 33.4,13.6 L33.4,6.4 C33.4,5.4 31.2666667,5.4 31.2666667,6.4" id="Shape" fill="#42ADE2"></path>
                    <g id="Group" transform="translate(30.666667, 6.666667)" fill="#428BC1">
                        <polygon id="Shape" points="2.73333333 0.4 0.6 1.53333333 0.6 2.8 2.73333333 1.66666667"></polygon>
                        <polygon id="Shape" points="0.6 5 0.6 6.2 2.73333333 5.06666667 2.73333333 3.86666667"></polygon>
                    </g>
                    <path d="M33.4666667,4.8 C33.4666667,6.46666667 31.2666667,6.46666667 31.2666667,4.8 C31.2666667,4.26666667 32.4,2.53333333 32.4,2.53333333 C32.4,2.53333333 33.4666667,4.2 33.4666667,4.8" id="Shape" fill="#FF8B00"></path>
                    <path d="M32.9333333,5.26666667 C32.9333333,6.2 31.8,6.2 31.8,5.26666667 C31.8,5 32.3333333,4.13333333 32.3333333,4.13333333 C32.3333333,4.13333333 32.9333333,5 32.9333333,5.26666667" id="Shape" fill="#FFF033"></path>
                    <path d="M12,10.8666667 L12,19.6 C12,20.7333333 14.6,20.4666667 14.6,19.6 L14.6,10.8666667 C14.6,9.8 12,9.8 12,10.8666667" id="Shape" fill="#9FE4FF"></path>
                    <g id="Group" transform="translate(12.000000, 11.333333)" fill="#42ADE2">
                        <polygon id="Shape" points="2.6 0.4 0 1.66666667 0 3.26666667 2.6 1.93333333"></polygon>
                        <polygon id="Shape" points="0 5.86666667 0 7.33333333 2.6 6.06666667 2.6 4.6"></polygon>
                    </g>
                    <path d="M14.6666667,8.93333333 C14.6666667,10.7333333 12,10.7333333 12,8.93333333 C12,8.26666667 13.3333333,6.13333333 13.3333333,6.13333333 C13.3333333,6.13333333 14.6666667,8.26666667 14.6666667,8.93333333" id="Shape" fill="#FF8B00"></path>
                    <path d="M14,9.53333333 C14,10.5333333 12.6666667,10.5333333 12.6666667,9.53333333 C12.6666667,9.2 13.3333333,8.13333333 13.3333333,8.13333333 C13.3333333,8.13333333 14,9.2 14,9.53333333" id="Shape" fill="#FFF033"></path>
                    <path d="M25.3333333,10.8666667 L25.3333333,19.6 C25.3333333,20.7333333 27.9333333,20.4666667 27.9333333,19.6 L27.9333333,10.8666667 C27.9333333,9.73333333 25.3333333,9.73333333 25.3333333,10.8666667" id="Shape" fill="#9FE4FF"></path>
                    <g id="Group" transform="translate(25.333333, 11.333333)" fill="#42ADE2">
                        <polygon id="Shape" points="2.6 0.333333333 0 1.66666667 0 3.2 2.6 1.93333333"></polygon>
                        <polygon id="Shape" points="0 5.86666667 0 7.33333333 2.6 6 2.6 4.53333333"></polygon>
                    </g>
                    <path d="M28,8.86666667 C28,10.6666667 25.3333333,10.6666667 25.3333333,8.86666667 C25.3333333,8.2 26.6666667,6.06666667 26.6666667,6.06666667 C26.6666667,6.06666667 28,8.26666667 28,8.86666667" id="Shape" fill="#FF8B00"></path>
                    <path d="M27.3333333,9.53333333 C27.3333333,10.5333333 26,10.5333333 26,9.53333333 C26,9.2 26.6666667,8.13333333 26.6666667,8.13333333 C26.6666667,8.13333333 27.3333333,9.2 27.3333333,9.53333333" id="Shape" fill="#FFF033"></path>
                </g>
                <g id="1f60d" transform="translate(185.929592, 227.442424) rotate(-10.000000) translate(-185.929592, -227.442424) translate(165.929592, 207.442424)">
                    <path d="M40,20.3278689 C40,31.2131148 31.2131148,40 20.3278689,40 C9.44262295,40 0.655737705,31.2131148 0.655737705,20.3278689 C0.655737705,9.44262295 9.44262295,0.655737705 20.3278689,0.655737705 C31.2131148,0.655737705 40,9.44262295 40,20.3278689 Z" id="Shape" fill="#FFDD67"></path>
                    <g id="Group" fill="#F46767">
                        <path d="M39.8688525,8 C39.5409836,6.2295082 38.557377,4.78688525 36.9180328,4.32786885 C35.147541,3.86885246 33.5737705,4.52459016 32.0655738,6.09836066 C31.2131148,3.73770492 29.9016393,1.96721311 27.8032787,1.04918033 C25.704918,0.131147541 23.6065574,0.786885246 22.295082,2.42622951 C20.9180328,4.13114754 20.3934426,6.81967213 21.8360656,10.295082 C23.2131148,13.5737705 29.3114754,20.1311475 29.5081967,20.3278689 C29.7704918,20.1967213 36.5901639,15.9344262 38.2295082,13.8360656 C39.8688525,11.8032787 40.1967213,9.7704918 39.8688525,8" id="Shape"></path>
                        <path d="M18.3606557,2.42622951 C17.0491803,0.786885246 14.9508197,0.131147541 12.852459,1.04918033 C10.7540984,1.96721311 9.44262295,3.73770492 8.59016393,6.09836066 C7.01639344,4.59016393 5.44262295,3.86885246 3.67213115,4.39344262 C2.09836066,4.85245902 1.04918033,6.29508197 0.721311475,8.06557377 C0.393442623,9.7704918 0.786885246,11.8688525 2.36065574,13.9016393 C4.06557377,15.9344262 10.8852459,20.1967213 11.147541,20.3278689 C11.3442623,20.1311475 17.442623,13.5737705 18.8196721,10.295082 C20.2622951,6.81967213 19.7377049,4.19672131 18.3606557,2.42622951" id="Shape"></path>
                    </g>
                    <path d="M31.4754098,24.3278689 C31.4754098,23.8032787 31.147541,23.147541 30.295082,22.9508197 C28,22.4918033 24.6557377,22.0983607 20.3278689,22.0983607 C16,22.0983607 12.6557377,22.557377 10.3606557,22.9508197 C9.44262295,23.147541 9.18032787,23.8032787 9.18032787,24.3278689 C9.18032787,29.1147541 12.852459,33.9016393 20.3278689,33.9016393 C27.8032787,33.8360656 31.4754098,29.0491803 31.4754098,24.3278689" id="Shape" fill="#664E27"></path>
                    <path d="M28.6557377,24.4590164 C27.2131148,24.1967213 24.1967213,23.8032787 20.3278689,23.8032787 C16.4590164,23.8032787 13.442623,24.1967213 12,24.4590164 C11.147541,24.5901639 11.0819672,24.9180328 11.147541,25.442623 C11.2131148,25.704918 11.2131148,26.0983607 11.3442623,26.4918033 C11.4098361,26.8852459 11.5409836,27.0819672 12.1967213,27.0163934 C13.442623,26.8852459 27.2786885,26.8852459 28.5245902,27.0163934 C29.1803279,27.0819672 29.2459016,26.8852459 29.3770492,26.4918033 C29.442623,26.0983607 29.5081967,25.7704918 29.5737705,25.442623 C29.5737705,24.9180328 29.5081967,24.5901639 28.6557377,24.4590164" id="Shape" fill="#FFFFFF"></path>
                </g>
                <g id="1f38a" transform="translate(157.246862, 358.746988) rotate(20.000000) translate(-157.246862, -358.746988) translate(137.246862, 339.746988)">
                    <path d="M28.2666667,9.33333333 L26.7333333,9.33333333 C26.7333333,8.66666667 26.6,8 26.4,7.33333333 C25.5333333,4.46666667 22.9333333,2.6 19.9333333,2.6 C16.9333333,2.6 14.4,4.53333333 13.4666667,7.33333333 C13.2666667,8 13.1333333,8.66666667 13.1333333,9.33333333 L11.6,9.33333333 C11.6,8.46666667 11.7333333,7.66666667 12,6.86666667 C12.5333333,5.2 13.5333333,3.73333333 14.9333333,2.73333333 C16.4,1.66666667 18.0666667,1.06666667 19.8666667,1.06666667 C21.6666667,1.06666667 23.4,1.66666667 24.8,2.73333333 C26.2,3.8 27.2666667,5.26666667 27.7333333,6.86666667 C28.1333333,7.66666667 28.2666667,8.53333333 28.2666667,9.33333333" id="Shape" fill="#D3976E"></path>
                    <path d="M18.6,5.6 C16.9333333,2.26666667 13.6666667,0 9.86666667,0 C4.4,0 -3.55271368e-15,4.66666667 -3.55271368e-15,10.4666667 C-3.55271368e-15,13.1333333 0.933333333,15.6 2.53333333,17.4 C2.53333333,17.4 6.53333333,6.93333333 18.6,5.6" id="Shape" fill="#FFDD7D"></path>
                    <path d="M18.6,5.6 C6.53333333,6.93333333 2.53333333,17.4666667 2.53333333,17.4666667 C9.93333333,16.7333333 16.1333333,12 18.6,5.6" id="Shape" fill="#594640"></path>
                    <path d="M21.4,5.6 C23.0666667,2.26666667 26.3333333,0 30.1333333,0 C35.6,0 40,4.66666667 40,10.4666667 C40,13.1333333 39.0666667,15.6 37.4666667,17.4 C37.4666667,17.4 33.4666667,6.93333333 21.4,5.6" id="Shape" fill="#FFDD7D"></path>
                    <path d="M21.4,5.6 C33.4666667,6.93333333 37.4666667,17.4666667 37.4666667,17.4666667 C30.0666667,16.7333333 23.8666667,12 21.4,5.6" id="Shape" fill="#594640"></path>
                    <path d="M26.9333333,37.3333333 L24.6666667,36.2666667 C25.5333333,34.2 25.1333333,33.4666667 24.5333333,32.4666667 C23.8666667,31.3333333 22.8666667,29.7333333 24.2,26.6 C24.6,25.6666667 24.4,25.4 23.8666667,24.5333333 C23.2,23.4 22.2666667,21.8666667 23.1333333,19 C24,16 22,12.4666667 22,12.4 L24.0666667,11.0666667 C24.2,11.2666667 26.6666667,15.6666667 25.4666667,19.8 C24.9333333,21.5333333 25.4,22.2 25.9333333,23.1333333 C26.5333333,24.1333333 27.3333333,25.4666667 26.4666667,27.6666667 C25.6666667,29.5333333 26.0666667,30.1333333 26.6666667,31.1333333 C27.3333333,32.3333333 28.3333333,34 26.9333333,37.3333333" id="Shape" fill="#42ADE2"></path>
                    <path d="M14.8666667,37.2666667 C13.4,33.9333333 14.3333333,32.2666667 15,31.0666667 C15.6,30.0666667 15.9333333,29.4666667 15.0666667,27.6 C14.1333333,25.4666667 14.8666667,24.0666667 15.4666667,23.0666667 C16,22.1333333 16.4,21.4 15.8666667,19.7333333 C14.5333333,15.6 16.9333333,11.1333333 17.0666667,11 L19.2,12.3333333 L18.1333333,11.6666667 L19.2,12.3333333 C19.2,12.4 17.2666667,15.9333333 18.2,18.9333333 C19.1333333,21.8 18.2,23.3333333 17.6,24.4666667 C17.1333333,25.3333333 16.9333333,25.6666667 17.3333333,26.5333333 C18.7333333,29.6666667 17.8,31.2666667 17.1333333,32.4666667 C16.5333333,33.4666667 16.1333333,34.2 17.0666667,36.2666667 L14.8666667,37.2666667" id="Shape" fill="#ED4C5C"></path>
                    <path d="M2.53333333,35.6666667 C2,32.0666667 3.33333333,30.7333333 4.33333333,29.6666667 C5.13333333,28.8666667 5.6,28.3333333 5.33333333,26.3333333 C4.93333333,24 6.06666667,22.8666667 6.86666667,22.0666667 C7.66666667,21.2666667 8.2,20.7333333 8.13333333,18.9333333 C7.93333333,14.6 11.4,10.9333333 11.5333333,10.8 L13.2666667,12.6 L12.4,11.6666667 L13.2666667,12.6 C13.2666667,12.6 10.4666667,15.6 10.6,18.7333333 C10.7333333,21.7333333 9.46666667,23 8.6,23.9333333 C7.93333333,24.6666667 7.66666667,24.8666667 7.8,25.8666667 C8.33333333,29.2 7.06666667,30.5333333 6.06666667,31.5333333 C5.26666667,32.4 4.66666667,32.9333333 5.06666667,35.2 L2.53333333,35.6666667" id="Shape" fill="#C28FEF"></path>
                    <path d="M38.3333333,35.6666667 C38.8666667,32.0666667 37.5333333,30.7333333 36.5333333,29.6666667 C35.7333333,28.8666667 35.2666667,28.3333333 35.5333333,26.3333333 C35.9333333,24 34.8,22.8666667 34,22.0666667 C33.2,21.2666667 32.6666667,20.7333333 32.7333333,18.9333333 C32.9333333,14.6 29.4666667,10.9333333 29.3333333,10.8 L27.6,12.6 L28.4666667,11.6666667 L27.6,12.6 C27.6,12.6 30.4,15.6 30.2666667,18.7333333 C30.1333333,21.7333333 31.4,23 32.2666667,23.9333333 C32.9333333,24.6666667 33.2,24.8666667 33.0666667,25.8666667 C32.5333333,29.2 33.8666667,30.5333333 34.8,31.5333333 C35.6,32.4 36.2,32.9333333 35.8,35.2 L38.3333333,35.6666667" id="Shape" fill="#83BF4F"></path>
                    <g id="Group" transform="translate(10.666667, 18.666667)" fill="#42ADE2">
                        <polygon id="Shape" transform="translate(2.267840, 2.113920) rotate(-45.000000) translate(-2.267840, -2.113920) " points="0.934519453 0.780599453 3.60116055 0.780599453 3.60116055 3.44724055 0.934519453 3.44724055"></polygon>
                        <polygon id="Shape" transform="translate(21.007967, 15.977367) rotate(-45.000000) translate(-21.007967, -15.977367) " points="19.6746461 14.6440461 22.3412872 14.6440461 22.3412872 17.3106872 19.6746461 17.3106872"></polygon>
                    </g>
                    <g id="Group" transform="translate(8.666667, 14.000000)" fill="#83BF4F">
                        <polygon id="Shape" transform="translate(2.514453, 13.324813) rotate(-45.000000) translate(-2.514453, -13.324813) " points="1.18113279 11.9914928 3.84777388 11.9914928 3.84777388 14.6581339 1.18113279 14.6581339"></polygon>
                        <polygon id="Shape" transform="translate(11.753027, 2.551547) rotate(-45.000000) translate(-11.753027, -2.551547) " points="10.4197061 1.21822612 13.0863472 1.21822612 13.0863472 3.88486721 10.4197061 3.88486721"></polygon>
                    </g>
                    <g id="Group" transform="translate(7.333333, 25.333333)" fill="#ED4C5C">
                        <polygon id="Shape" transform="translate(1.956793, 9.346740) rotate(-45.000000) translate(-1.956793, -9.346740) " points="0.623472787 8.01341945 3.29011388 8.01341945 3.29011388 10.6800605 0.623472787 10.6800605"></polygon>
                        <polygon id="Shape" transform="translate(22.705973, 2.322560) rotate(-45.000000) translate(-22.705973, -2.322560) " points="21.3726528 0.989239453 24.0392939 0.989239453 24.0392939 3.65588055 21.3726528 3.65588055"></polygon>
                    </g>
                    <g id="Group" transform="translate(18.000000, 18.666667)" fill="#C28FEF">
                        <polygon id="Shape" transform="translate(2.393940, 15.694927) rotate(-45.000000) translate(-2.393940, -15.694927) " points="1.06061945 14.3616061 3.72726055 14.3616061 3.72726055 17.0282472 1.06061945 17.0282472"></polygon>
                        <polygon id="Shape" transform="translate(10.139587, 2.415293) rotate(-45.000000) translate(-10.139587, -2.415293) " points="8.80626612 1.08197279 11.4729072 1.08197279 11.4729072 3.74861388 8.80626612 3.74861388"></polygon>
                    </g>
                    <polygon id="Shape" fill="#ED4C5C" transform="translate(20.933900, 26.041580) rotate(-45.000000) translate(-20.933900, -26.041580) " points="19.6005795 24.7082595 22.2672205 24.7082595 22.2672205 27.3749005 19.6005795 27.3749005"></polygon>
                </g>
                <g id="1f388" transform="translate(874.289071, 339.343658) rotate(-14.000000) translate(-874.289071, -339.343658) translate(863.789071, 323.843658)">
                    <path d="M21,10.5 C21,16.2878049 16.4926829,22.997561 10.8585366,22.997561 C5.27560976,22.997561 0.717073171,16.3390244 0.717073171,10.5 C0.768292683,4.71219512 5.27560976,0 10.8585366,0 C16.4926829,0 21,4.71219512 21,10.5" id="Shape" fill="#ED4C5C"></path>
                    <g id="Group" transform="translate(10.243902, 24.073171)" fill="#94989B">
                        <path d="M0.256097561,0.0512195122 L0.256097561,0 L0.256097561,0.0512195122" id="Shape"></path>
                        <path d="M0.307317073,0.102439024 C0.256097561,0.102439024 0.256097561,0.0512195122 0.307317073,0.102439024" id="Shape"></path>
                    </g>
                    <path d="M11.2682927,24.1756098 L10.5,24.1756098 C10.5,25.097561 10.295122,26.1731707 9.52682927,26.8390244 C8.45121951,27.7609756 7.01707317,27.197561 5.73658537,27.1463415 C4.2,27.095122 2.86829268,27.7609756 1.79268293,28.7853659 C1.38292683,29.1439024 0.973170732,29.6560976 0.614634146,30.0658537 C0.204878049,30.5268293 0.768292683,31.0390244 1.17804878,30.5780488 C1.94634146,29.6560976 2.5097561,28.9902439 3.53414634,28.3756098 C4.86585366,27.6073171 6.09512195,28.0170732 7.52926829,28.0682927 C9.16829268,28.1707317 10.6536585,27.3512195 11.1146341,25.6609756 C11.2170732,25.302439 11.2682927,24.6365854 11.2682927,24.1756098" id="Shape" fill="#B2C1C0"></path>
                    <path d="M10.5,24.0731707 C10.5,24.0219512 10.5,24.0731707 10.5,24.0731707" id="Shape" fill="#94989B"></path>
                    <path d="M10.1414634,23.5609756 L11.6268293,23.5609756 C12.0878049,23.5609756 12.0878049,22.895122 11.6268293,22.895122 L10.1414634,22.895122 C9.6804878,22.9463415 9.6804878,23.5609756 10.1414634,23.5609756" id="Shape" fill="#B2C1C0"></path>
                    <path d="M9.78292683,24.5853659 L11.9853659,24.5853659 C12.702439,24.5853659 12.702439,23.6121951 11.9853659,23.6121951 L9.78292683,23.6121951 C9.06585366,23.5609756 9.06585366,24.5853659 9.78292683,24.5853659" id="Shape" fill="#ED4C5C"></path>
                </g>
                <g id="1f380" transform="translate(25.187183, 189.056102) rotate(-13.000000) translate(-25.187183, -189.056102) translate(4.187183, 168.056102)">
                    <g id="Group" transform="translate(0.000000, 7.610811)" fill="#C94747">
                        <path d="M9.20495315,0.0691891892 C9.20495315,0.0691891892 9.68942436,14.0454054 0,22.8324324 L8.99732262,22.8324324 L8.99732262,33.9027027 C8.99732262,33.9027027 18.4099063,20.6183784 18.4099063,0.0691891892 L9.20495315,0.0691891892" id="Shape"></path>
                        <path d="M32.3211513,0.0691891892 C32.3211513,0.0691891892 31.8366801,14.0454054 41.5261044,22.8324324 L32.5287818,22.8324324 L32.5287818,33.9027027 C32.5287818,33.9027027 23.1161981,20.6183784 23.1161981,0.0691891892 L32.3211513,0.0691891892" id="Shape"></path>
                    </g>
                    <path d="M19.8633199,8.3027027 C19.8633199,11.8313514 15.91834,15.2216216 11.142838,15.9135135 L7.33627845,16.467027 C2.56077644,17.1589189 -0.69210174,15.5675676 0.138420348,13.0075676 C0.968942436,10.4475676 0.968942436,6.22702703 0.138420348,3.66702703 C-0.69210174,1.10702703 2.49156627,-0.484324324 7.33627845,0.207567568 L11.142838,0.691891892 C15.91834,1.31459459 19.8633199,4.77405405 19.8633199,8.3027027" id="Shape" fill="#FF5760"></path>
                    <path d="M1.31499331,13.3535135 C0.968942436,13.6994595 1.38420348,14.1145946 1.52262383,14.252973 C1.93788487,14.7372973 3.11445783,15.2908108 5.19076305,15.2908108 C5.81365462,15.2908108 6.43654618,15.2216216 7.12864793,15.1524324 L10.9352075,14.5989189 C13.6344043,14.252973 16.0567604,12.8691892 17.3717537,11.1394595 C17.3717537,11.2086486 5.74444444,9.06378378 1.31499331,13.3535135" id="Shape" fill="#C94747"></path>
                    <path d="M21.6627845,8.3027027 C21.6627845,11.8313514 25.6077644,15.2216216 30.3832664,15.9135135 L34.189826,16.467027 C38.965328,17.1589189 42.2182062,15.5675676 41.3876841,13.0075676 C40.557162,10.4475676 40.557162,6.22702703 41.3876841,3.66702703 C42.2182062,1.10702703 39.0345382,-0.484324324 34.189826,0.207567568 L30.3832664,0.691891892 C25.6077644,1.31459459 21.6627845,4.77405405 21.6627845,8.3027027" id="Shape" fill="#FF5760"></path>
                    <g id="Group" transform="translate(11.073628, 2.767568)" fill="#C94747">
                        <path d="M29.1374833,10.5859459 C29.4835341,10.9318919 29.0682731,11.347027 28.9298527,11.4854054 C28.5145917,11.9697297 27.3380187,12.5232432 25.2617135,12.5232432 C24.638822,12.5232432 24.0159304,12.4540541 23.3238286,12.3848649 L19.5172691,11.8313514 C16.8180723,11.4854054 14.3957162,10.1016216 13.0807229,8.37189189 C13.0807229,8.44108108 24.7080321,6.29621622 29.1374833,10.5859459" id="Shape"></path>
                        <path d="M9.13574297,4.4972973 C9.13574297,4.4972973 7.95917001,5.46594595 5.12155288,3.11351351 C1.8686747,0.415135135 -2.83761714,4.01297297 3.4605087,5.60432432 C6.85180723,6.50378378 9.13574297,4.4972973 9.13574297,4.4972973" id="Shape"></path>
                        <path d="M10.2431058,4.4972973 C10.2431058,4.4972973 11.4196787,5.46594595 14.2572959,3.11351351 C17.510174,0.415135135 22.2164659,4.01297297 15.91834,5.60432432 C12.5270415,6.50378378 10.2431058,4.4972973 10.2431058,4.4972973" id="Shape"></path>
                        <path d="M9.68942436,10.3091892 C7.12864793,10.3091892 6.43654618,12.2464865 6.43654618,5.60432432 C6.43654618,-1.03783784 7.05943775,0.899459459 9.68942436,0.899459459 C12.319411,0.899459459 12.9423025,-1.03783784 12.9423025,5.60432432 C12.9423025,12.2464865 12.2502008,10.3091892 9.68942436,10.3091892" id="Shape"></path>
                    </g>
                    <path d="M20.7630522,13.2151351 C18.686747,13.2151351 18.1330656,15.1524324 18.1330656,8.37189189 C18.1330656,1.52216216 18.6175368,3.52864865 20.7630522,3.52864865 C22.9085676,3.52864865 23.3930388,1.59135135 23.3930388,8.37189189 C23.3930388,15.1524324 22.8393574,13.2151351 20.7630522,13.2151351" id="Shape" fill="#FF5760"></path>
                </g>
                <path d="M1030.4105,196.869107 C1026.12393,185.48637 1012.19259,190.575123 1010.92002,196.266492 C1009.1786,190.240337 995.582152,185.754199 991.429541,196.869107 C986.808088,209.256204 1009.31256,220.371113 1010.92002,222.178959 C1012.52748,220.705899 1035.03195,209.055332 1030.4105,196.869107" id="Shape" fill="#FF5A5A" transform="translate(1010.920019, 206.118797) rotate(10.000000) translate(-1010.920019, -206.118797) "></path>
            </g>
        </g>
    </g>
</svg>