<?xml version="1.0" encoding="UTF-8"?>
<svg width="24px" height="24px" viewBox="0 0 24 24" version="1.1" xmlns="http://www.w3.org/2000/svg" xmlns:xlink="http://www.w3.org/1999/xlink">
    <!-- Generator: Sketch Beta 43.2 (39056) - http://www.bohemiancoding.com/sketch -->
    <title>tl-black</title>
    <desc>Created with Sketch Beta.</desc>
    <defs></defs>
    <g id="index" stroke="none" stroke-width="1" fill="none" fill-rule="evenodd">
        <g id="Desktop-1280" transform="translate(-1357.000000, -75.000000)" fill-rule="nonzero" fill="#31333A">
            <g id="Group-5" transform="translate(45.000000, 72.000000)">
                <g id="social" transform="translate(1207.000000, 3.000000)">
                    <path d="M120.619027,8.91077445 L115.861322,13.3104296 C115.694145,13.4650109 115.586128,13.672579 115.55558,13.8975757 L115.393686,15.0922746 C115.372117,15.2516728 115.146662,15.2677003 115.102469,15.1130314 L114.479189,12.9344423 C114.408058,12.6857985 114.511762,12.4203391 114.732991,12.284763 L120.497805,8.75225199 C120.601244,8.68893059 120.70803,8.82844787 120.619027,8.91077445 Z M129,0 L129,24 L105,24 L105,0 L129,0 Z M122.927453,6.47951285 L110.821908,11.1254471 C110.523473,11.2400036 110.525762,11.6609202 110.825429,11.7722362 L113.775006,12.8676177 L114.916806,16.5204656 C114.989962,16.7543957 115.277657,16.8406635 115.468514,16.6858194 L117.112724,15.352304 C117.285095,15.2125239 117.530357,15.2056926 117.710298,15.3356635 L120.676073,17.4778186 C120.880224,17.6253058 121.169415,17.5140774 121.220739,17.2683238 L123.392976,6.87249091 C123.449054,6.60440403 123.184336,6.38089612 122.927453,6.47951285 Z" id="tl"></path>
                </g>
            </g>
        </g>
    </g>
</svg>