<?xml version="1.0" encoding="UTF-8"?>
<svg width="30px" height="30px" viewBox="0 0 30 30" version="1.1" xmlns="http://www.w3.org/2000/svg" xmlns:xlink="http://www.w3.org/1999/xlink">
    <!-- Generator: Sketch Beta 43.2 (39056) - http://www.bohemiancoding.com/sketch -->
    <title>tl</title>
    <desc>Created with Sketch Beta.</desc>
    <defs></defs>
    <g id="index" stroke="none" stroke-width="1" fill="none" fill-rule="evenodd">
        <g id="Desktop-1280" transform="translate(-1123.000000, -1829.000000)" fill-rule="nonzero" fill="#FFFFFF">
            <g id="footer" transform="translate(0.000000, 1655.000000)">
                <path d="M1142.52378,185.138468 L1136.57665,190.638037 C1136.36768,190.831264 1136.23266,191.090724 1136.19448,191.37197 L1135.99211,192.865343 C1135.96515,193.064591 1135.68333,193.084625 1135.62809,192.891289 L1134.84899,190.168053 C1134.76007,189.857248 1134.8897,189.525424 1135.16624,189.355954 L1142.37226,184.940315 C1142.50156,184.861163 1142.63504,185.03556 1142.52378,185.138468 Z M1153,174 L1153,204 L1123,204 L1123,174 L1153,174 Z M1145.40932,182.099391 L1130.27738,187.906809 C1129.90434,188.050005 1129.9072,188.57615 1130.28179,188.715295 L1133.96876,190.084522 L1135.39601,194.650582 C1135.48745,194.942995 1135.84707,195.050829 1136.08564,194.857274 L1138.14091,193.19038 C1138.35637,193.015655 1138.66295,193.007116 1138.88787,193.169579 L1142.59509,195.847273 C1142.85028,196.031632 1143.21177,195.892597 1143.27592,195.585405 L1145.99122,182.590614 C1146.06132,182.255505 1145.73042,181.97612 1145.40932,182.099391 Z" id="tl"></path>
            </g>
        </g>
    </g>
</svg>