<?xml version="1.0" encoding="UTF-8"?>
<svg width="197px" height="171px" viewBox="0 0 197 171" version="1.1" xmlns="http://www.w3.org/2000/svg" xmlns:xlink="http://www.w3.org/1999/xlink">
    <!-- Generator: Sketch Beta 43.2 (39056) - http://www.bohemiancoding.com/sketch -->
    <title>Group 9</title>
    <desc>Created with Sketch Beta.</desc>
    <defs></defs>
    <g id="Page-1" stroke="none" stroke-width="1" fill="none" fill-rule="evenodd">
        <g id="Desktop-1280" transform="translate(-355.000000, -323.000000)">
            <g id="Group-3" transform="translate(-1.000000, 88.000000)">
                <g id="Group-10" transform="translate(304.000000, 85.000000)">
                    <g id="Group-12" transform="translate(52.000000, 106.000000)">
                        <g id="Group-9" transform="translate(0.000000, 44.000000)">
                            <g id="Layer_1">
                                <g id="Group">
                                    <rect id="Rectangle-path" fill="#5BBFC7" x="93.9105495" y="155.099878" width="99.616622" height="11.0967472"></rect>
                                    <rect id="Rectangle-path" fill="#FFE89E" x="3.24811868" y="155.099878" width="111.020974" height="11.0967472"></rect>
                                    <path d="M156.000187,3.29825667 C168.015022,3.29825667 177.752451,13.0898881 177.752451,25.1662336 C177.752451,37.2425791 168.015022,47.0342106 156.000187,47.0342106 C143.985352,47.0342106 134.243593,37.2425791 134.243593,25.1662336 C134.243593,13.0898881 143.985352,3.29825667 156.000187,3.29825667 L156.000187,3.29825667 Z" id="Shape" fill="#FFE89E"></path>
                                    <path d="M51.8023407,53.9275192 C72.0435495,60.5379584 83.1188462,82.3841762 76.5464066,102.72901 L56.0021209,96.0228309 L56.0021209,96.018479 C62.5745604,75.6736447 60.6954835,56.8301939 51.8023407,53.9275192 L51.8023407,53.9275192 Z" id="Shape" fill="#FFE89E"></path>
                                    <path d="M51.8023407,53.9275192 C60.6954835,56.8301939 62.5745604,75.6736447 56.0021209,96.018479 L23.7937033,85.5044427 C30.3704725,65.1596084 42.9087648,51.0248444 51.8023407,53.9275192 L51.8023407,53.9275192 Z" id="Shape" fill="#FF8C71"></path>
                                    <path d="M51.8023407,53.9275192 C42.9091978,51.0248444 30.3704725,65.1596084 23.7937033,85.5044427 L3.24941758,78.7939113 C9.82185714,58.4534288 31.5611319,47.31708 51.8023407,53.9275192 L51.8023407,53.9275192 Z" id="Shape" fill="#FFE89E"></path>
                                    <g id="Shape" fill="#8B837D">
                                        <path d="M112.835105,158.028228 C115.215125,159.2054 117.912077,160.539673 123.075642,160.539673 C128.234011,160.539673 130.933127,159.205835 133.314879,158.028664 C135.396585,156.99989 137.04056,156.187837 140.688741,156.187837 C144.33389,156.187837 145.977433,156.99989 148.05784,158.028228 C150.439591,159.2054 153.138708,160.539673 158.297943,160.539673 C163.455446,160.539673 166.154996,159.20627 168.536314,158.029534 C170.619319,157.00076 172.26416,156.187837 175.914938,156.187837 C179.563119,156.187837 181.207095,157.000325 183.2888,158.028664 C185.670119,159.205835 188.369668,160.539673 193.528037,160.539673 C195.321387,160.539673 196.77529,159.078327 196.77529,157.275796 C196.77529,155.473265 195.321387,154.011919 193.528037,154.011919 C189.879857,154.011919 188.235881,153.199431 186.154176,152.171092 C183.772857,150.99392 181.073308,149.660083 175.914938,149.660083 C170.753971,149.660083 168.053556,150.99392 165.671371,152.171092 C163.589666,153.199431 161.94569,154.011919 158.29751,154.011919 C154.648897,154.011919 153.004921,153.199431 150.923648,152.170657 C148.542763,150.99392 145.844512,149.660083 140.688741,149.660083 C135.530371,149.660083 132.831255,150.99392 130.449503,152.171092 C128.367798,153.199866 126.723822,154.011919 123.075642,154.011919 C119.423565,154.011919 117.781754,153.199866 115.702646,152.171527 C114.093741,151.376012 112.147554,152.041843 111.355224,153.658985 C110.56376,155.276127 111.225767,157.232278 112.835105,158.028228 L112.835105,158.028228 Z"></path>
                                        <path d="M155.998455,50.2967822 C169.784991,50.2967822 181.001435,39.0233505 181.001435,25.1657985 C181.001435,11.3086816 169.785424,0.0352498733 155.998455,0.0352498733 C142.211486,0.0352498733 130.995475,11.3086816 130.995475,25.1657985 C130.995908,39.0229153 142.211919,50.2967822 155.998455,50.2967822 L155.998455,50.2967822 Z M155.998455,6.56300419 C166.203921,6.56300419 174.50693,14.9080853 174.50693,25.1657985 C174.50693,35.4235116 166.204354,43.7690279 155.998455,43.7690279 C145.792556,43.7690279 137.48998,35.4239468 137.48998,25.1657985 C137.490413,14.9080853 145.792989,6.56300419 155.998455,6.56300419 L155.998455,6.56300419 Z"></path>
                                        <path d="M193.527604,164.238299 L3.24811868,164.238299 C1.45476923,164.238299 0.000865934066,165.699645 0.000865934066,167.502176 C0.000865934066,169.304706 1.45476923,170.766053 3.24811868,170.766053 L193.527604,170.766053 C195.320954,170.766053 196.774857,169.304706 196.774857,167.502176 C196.774857,165.699645 195.320954,164.238299 193.527604,164.238299 L193.527604,164.238299 Z"></path>
                                        <path d="M2.2445011,81.900252 L35.8076725,92.8599163 L16.8315934,151.836001 L3.24811868,151.836001 C1.45476923,151.836001 0.000865934066,153.297347 0.000865934066,155.099878 C0.000865934066,156.902408 1.45476923,158.363755 3.24811868,158.363755 L102.864741,158.363755 C104.65809,158.363755 106.111993,156.902408 106.111993,155.099878 C106.111993,153.297347 104.65809,151.836001 102.864741,151.836001 L90.3788374,151.836001 L88.6188264,147.048981 L97.8081187,147.048981 C99.6014681,147.048981 101.055371,145.587634 101.055371,143.785104 C101.055371,141.982573 99.6014681,140.521227 97.8081187,140.521227 L86.2188901,140.521227 L83.5353604,133.222762 C83.0642923,131.941581 81.8485209,131.090362 80.4894374,131.090362 L61.0059209,131.090362 C59.6464044,131.090362 58.4310659,131.941581 57.9599978,133.222762 L55.2764681,140.521227 L50.5445714,140.521227 L40.6924066,126.788137 C39.6437604,125.326355 37.613578,124.99518 36.1592418,126.04963 C34.7044725,127.10408 34.3758505,129.143786 35.4244967,130.606003 L46.2486725,145.693819 C46.859156,146.544603 47.8389604,147.048546 48.882411,147.048546 L52.8760989,147.048546 L51.1160879,151.835566 L23.6573187,151.835566 L41.9848132,94.876122 L75.5419231,105.83361 C75.8688132,105.940666 76.2078264,105.993323 76.5451077,105.993323 C77.052978,105.993323 77.5586835,105.873647 78.0193604,105.637778 C78.786578,105.244807 79.3671868,104.561134 79.6334615,103.738201 C83.081611,93.0696748 82.1901319,81.6900583 77.1231187,71.6956313 C72.5509868,62.6777563 65.0667187,55.7722625 55.8518813,51.9609244 L58.2349319,44.5876083 C58.7891297,42.87342 57.8556527,41.0321581 56.1501956,40.4751231 C54.4447385,39.9176529 52.612422,40.8563439 52.0586571,42.5705322 L49.6790703,49.9329687 C39.9948967,47.5725328 29.8994044,48.7492693 20.9265956,53.3452435 C10.9830747,58.4386326 3.60791429,67.1188051 0.159764835,77.7873316 C-0.394432967,79.5019551 0.539043956,81.343217 2.2445011,81.900252 L2.2445011,81.900252 Z M63.2677407,137.618552 L78.2276176,137.618552 L79.2948813,140.521227 L62.2004769,140.521227 L63.2677407,137.618552 L63.2677407,137.618552 Z M59.8001077,147.048981 L81.6948176,147.048981 L83.4548286,151.836001 L58.0400967,151.836001 L59.8001077,147.048981 L59.8001077,147.048981 Z M50.799156,57.0312488 C53.7130242,57.9825602 55.8336967,62.3670351 56.4710242,68.7594474 C57.1369275,75.4382104 56.2073473,83.5509035 53.8537385,91.8885865 L27.9462901,83.4290521 C30.9173099,75.2924239 34.908833,68.1797828 39.3528066,63.1699489 C43.6058418,58.3742254 47.8865868,56.0795022 50.799156,57.0312488 L50.799156,57.0312488 Z M71.3365143,74.6596669 C75.1206462,82.1239364 76.147644,90.5025266 74.320956,98.5721365 L60.032178,93.9065329 C62.6533604,84.7041401 63.6846879,75.6470985 62.9330571,68.1088478 C62.7590044,66.3633263 62.4914308,64.729647 62.134233,63.2143377 C65.9187978,66.2980488 69.0582418,70.1659608 71.3365143,74.6596669 L71.3365143,74.6596669 Z M23.8751011,59.162343 C28.3459187,56.8724067 33.1475231,55.5977539 38.0123407,55.3379493 C36.8377011,56.3527975 35.6656593,57.5164785 34.5044418,58.825946 C29.4885187,64.4811572 25.0272264,72.4180361 21.7674176,81.4115408 L7.47863956,76.7459372 C10.7193978,69.1380571 16.4492835,62.9658478 23.8751011,59.162343 L23.8751011,59.162343 Z"></path>
                                        <path d="M173.395936,67.2824342 C170.656987,63.8253355 166.434692,61.6054638 161.706259,61.6054638 C159.91291,61.6054638 158.459007,63.0668104 158.459007,64.869341 C158.459007,66.6718715 159.91291,68.1332181 161.706259,68.1332181 C166.361088,68.1332181 170.148684,71.9397693 170.148684,76.6188636 C170.148684,78.4213941 171.602587,79.8827407 173.395936,79.8827407 C175.189286,79.8827407 176.643189,78.4213941 176.643189,76.6188636 C176.643189,71.9402045 180.430352,68.1332181 185.085613,68.1332181 C186.878963,68.1332181 188.332866,66.6718715 188.332866,64.869341 C188.332866,63.0668104 186.878963,61.6054638 185.085613,61.6054638 C180.35718,61.6054638 176.134886,63.8253355 173.395936,67.2824342 L173.395936,67.2824342 Z"></path>
                                    </g>
                                </g>
                            </g>
                        </g>
                    </g>
                </g>
            </g>
        </g>
    </g>
</svg>