<?xml version="1.0" encoding="UTF-8"?>
<svg width="24px" height="24px" viewBox="0 0 24 24" version="1.1" xmlns="http://www.w3.org/2000/svg" xmlns:xlink="http://www.w3.org/1999/xlink">
    <!-- Generator: Sketch Beta 43.2 (39056) - http://www.bohemiancoding.com/sketch -->
    <title>tw-black</title>
    <desc>Created with Sketch Beta.</desc>
    <defs></defs>
    <g id="index" stroke="none" stroke-width="1" fill="none" fill-rule="evenodd">
        <g id="Desktop-1280" transform="translate(-1287.000000, -75.000000)" fill-rule="nonzero" fill="#31333A">
            <g id="Group-5" transform="translate(45.000000, 72.000000)">
                <g id="social" transform="translate(1207.000000, 3.000000)">
                    <path d="M35,0 L35,24 L59,24 L59,0 L35,0 Z M53.4086341,8.54929595 C52.9981951,8.90711963 52.5457232,9.2122291 52.5457232,9.2122291 C52.5457232,9.2122291 52.9070084,10.7416336 51.896735,13.0567073 C50.8864617,15.37188 48.7117284,17.1678226 46.3965558,17.5606572 C44.081482,17.9534918 42.8607474,17.7150416 41.9205949,17.4484046 C40.9805412,17.1818665 39.9702679,16.4802631 39.9702679,16.4802631 C39.9702679,16.4802631 41.611925,16.5223949 42.6220994,16.1856371 C43.6323728,15.8488793 44.2216247,15.3437921 44.2216247,15.3437921 C44.2216247,15.3437921 43.1412306,15.2596274 42.2853416,14.5019471 C41.4294527,13.7442668 41.3873209,13.1830039 41.3873209,13.1830039 C41.3873209,13.1830039 41.8363313,13.2812125 42.2712977,13.2812125 C42.7062641,13.2812125 42.7763849,13.2531247 42.7763849,13.2531247 C42.7763849,13.2531247 41.5556503,12.9163669 40.8822337,11.8078849 C40.2087181,10.6994029 40.3771465,10.2784804 40.3771465,10.2784804 C40.3771465,10.2784804 40.6297395,10.4889416 41.0787499,10.6292821 C41.5277603,10.7696226 41.7942984,10.6714139 41.7942984,10.6714139 C41.7942984,10.6714139 40.6437835,10.0400302 40.5596187,8.72108692 C40.475454,7.40214368 40.9104205,6.78480387 40.9104205,6.78480387 C40.9104205,6.78480387 41.6961886,8.2159997 43.6885485,9.02975683 C45.6809084,9.84351395 46.8875991,9.78743711 46.8875991,9.78743711 C46.8875991,9.78743711 46.2702592,7.51439627 48.6274648,6.53221081 C50.9846704,5.55002534 51.9949437,7.28989109 51.9949437,7.28989109 C51.9949437,7.28989109 52.7351185,7.0758694 53.0823598,6.89705646 C53.4296011,6.71824352 53.6400623,6.48661746 53.6400623,6.48661746 C53.6400623,6.48661746 53.5242493,6.97063878 53.2191398,7.37059427 C52.9139314,7.77045086 52.4825254,8.14934045 52.4825254,8.14934045 C52.4825254,8.14934045 52.9455797,8.03362633 53.3559198,7.89674739 C53.7663588,7.75996736 54.0294354,7.65473674 54.0294354,7.65473674 C54.0294354,7.65473674 53.8190731,8.19147226 53.4086341,8.54929595 Z" id="tw"></path>
                </g>
            </g>
        </g>
    </g>
</svg>