<?xml version="1.0" encoding="UTF-8"?>
<svg width="30px" height="30px" viewBox="0 0 30 30" version="1.1" xmlns="http://www.w3.org/2000/svg" xmlns:xlink="http://www.w3.org/1999/xlink">
    <!-- Generator: Sketch Beta 43.2 (39056) - http://www.bohemiancoding.com/sketch -->
    <title>tw</title>
    <desc>Created with Sketch Beta.</desc>
    <defs></defs>
    <g id="index" stroke="none" stroke-width="1" fill="none" fill-rule="evenodd">
        <g id="Desktop-1280" transform="translate(-1053.000000, -1829.000000)" fill-rule="nonzero" fill="#FFFFFF">
            <g id="footer" transform="translate(0.000000, 1655.000000)">
                <path d="M1053,174 L1053,204 L1083,204 L1083,174 L1053,174 Z M1076.01079,184.68662 C1075.49774,185.1339 1074.93215,185.515286 1074.93215,185.515286 C1074.93215,185.515286 1075.38376,187.427042 1074.12092,190.320884 C1072.85808,193.21485 1070.13966,195.459778 1067.24569,195.950821 C1064.35185,196.441865 1062.82593,196.143802 1061.65074,195.810506 C1060.47568,195.477333 1059.21283,194.600329 1059.21283,194.600329 C1059.21283,194.600329 1061.26491,194.652994 1062.52762,194.232046 C1063.79047,193.811099 1064.52703,193.17974 1064.52703,193.17974 C1064.52703,193.17974 1063.17654,193.074534 1062.10668,192.127434 C1061.03682,191.180334 1060.98415,190.478755 1060.98415,190.478755 C1060.98415,190.478755 1061.54541,190.601516 1062.08912,190.601516 C1062.63283,190.601516 1062.72048,190.566406 1062.72048,190.566406 C1062.72048,190.566406 1061.19456,190.145459 1060.35279,188.759856 C1059.5109,187.374254 1059.72143,186.8481 1059.72143,186.8481 C1059.72143,186.8481 1060.03717,187.111177 1060.59844,187.286603 C1061.1597,187.462028 1061.49287,187.339267 1061.49287,187.339267 C1061.49287,187.339267 1060.05473,186.550038 1059.94952,184.901359 C1059.84432,183.25268 1060.38803,182.481005 1060.38803,182.481005 C1060.38803,182.481005 1061.37024,184.27 1063.86069,185.287196 C1066.35114,186.304392 1067.8595,186.234296 1067.8595,186.234296 C1067.8595,186.234296 1067.08782,183.392995 1070.03433,182.165264 C1072.98084,180.937532 1074.24368,183.112364 1074.24368,183.112364 C1074.24368,183.112364 1075.1689,182.844837 1075.60295,182.621321 C1076.037,182.397804 1076.30008,182.108272 1076.30008,182.108272 C1076.30008,182.108272 1076.15531,182.713298 1075.77392,183.213243 C1075.39241,183.713064 1074.85316,184.186676 1074.85316,184.186676 C1074.85316,184.186676 1075.43197,184.042033 1075.9449,183.870934 C1076.45795,183.699959 1076.78679,183.568421 1076.78679,183.568421 C1076.78679,183.568421 1076.52384,184.23934 1076.01079,184.68662 Z" id="tw"></path>
            </g>
        </g>
    </g>
</svg>