<?xml version="1.0" encoding="UTF-8"?>
<svg width="24px" height="24px" viewBox="0 0 24 24" version="1.1" xmlns="http://www.w3.org/2000/svg" xmlns:xlink="http://www.w3.org/1999/xlink">
    <!-- Generator: Sketch Beta 43.2 (39056) - http://www.bohemiancoding.com/sketch -->
    <title>vk-black</title>
    <desc>Created with Sketch Beta.</desc>
    <defs></defs>
    <g id="index" stroke="none" stroke-width="1" fill="none" fill-rule="evenodd">
        <g id="Desktop-1280" transform="translate(-1252.000000, -75.000000)" fill-rule="nonzero" fill="#31333A">
            <g id="Group-5" transform="translate(45.000000, 72.000000)">
                <g id="social" transform="translate(1207.000000, 3.000000)">
                    <path d="M0,0 L0,24 L24,24 L24,0 L0,0 Z M17.5060639,13.3737838 L19.5904017,15.7687695 C19.8568409,16.0749669 19.6393576,16.5525597 19.2334681,16.5525597 L16.8813065,16.5525597 C16.5096367,16.5525597 16.1516152,16.4118236 15.8794397,16.158736 L15.1828802,15.5110336 C14.3968154,14.8232763 14.0627279,14.5873975 13.7483218,14.5873975 C13.4339156,14.5873975 13.3552893,14.8231774 13.3552893,15.4324074 C13.3552893,16.0415384 13.2373994,16.5525597 11.4294898,16.5525597 C9.62158019,16.5525597 8.20670301,15.1966275 6.61499091,13.093993 C5.02327881,10.9913585 4.31584023,8.73147152 4.31584023,8.73147152 C4.22801617,8.44861477 4.43946643,8.16160417 4.73567481,8.16160417 L6.61795794,8.16160417 C6.97597943,8.16160417 7.3020559,8.36850499 7.45218757,8.69349355 C7.60627527,9.0270865 7.87132985,9.54186601 8.32469186,10.3035023 C8.96804263,11.3842921 9.58607474,11.8711815 9.93618415,12.0784779 C10.0665356,12.1557196 10.230909,12.0602801 10.230909,11.9087639 L10.230909,9.31637182 C10.230909,8.97714151 10.1083707,8.64938372 9.88574466,8.39342803 L9.62039338,8.08831856 C9.55175611,8.00939559 9.60783296,7.88646169 9.71237127,7.88646169 L12.6872133,7.88646169 C13.1430479,7.88646169 13.5125419,8.25595569 13.5125419,8.71179023 L13.5125419,11.7265883 C13.5125419,11.9208298 13.7646404,11.9967857 13.871948,11.8349837 L16.0130549,8.60814202 C16.1818789,8.35376874 16.4669114,8.20076895 16.7721198,8.20076895 L19.28549,8.20076895 C19.628973,8.20076895 19.8378519,8.57906514 19.654984,8.86983397 L17.430998,12.4046533 C17.2396247,12.7089716 17.2700862,13.1025974 17.5060639,13.3737838 Z" id="vk"></path>
                </g>
            </g>
        </g>
    </g>
</svg>