<?xml version="1.0" encoding="UTF-8"?>
<svg width="30px" height="30px" viewBox="0 0 30 30" version="1.1" xmlns="http://www.w3.org/2000/svg" xmlns:xlink="http://www.w3.org/1999/xlink">
    <!-- Generator: Sketch Beta 43.2 (39056) - http://www.bohemiancoding.com/sketch -->
    <title>vk</title>
    <desc>Created with Sketch Beta.</desc>
    <defs></defs>
    <g id="index" stroke="none" stroke-width="1" fill="none" fill-rule="evenodd">
        <g id="Desktop-1280" transform="translate(-1018.000000, -1829.000000)" fill-rule="nonzero" fill="#FFFFFF">
            <g id="footer" transform="translate(0.000000, 1655.000000)">
                <path d="M1018,174 L1018,204 L1048,204 L1048,174 L1018,174 Z M1039.88258,190.71723 L1042.488,193.710962 C1042.82105,194.093709 1042.5492,194.6907 1042.04184,194.6907 L1039.10163,194.6907 C1038.63705,194.6907 1038.18952,194.51478 1037.8493,194.19842 L1036.9786,193.388792 C1035.99602,192.529095 1035.57841,192.234247 1035.1854,192.234247 C1034.79239,192.234247 1034.69411,192.528972 1034.69411,193.290509 C1034.69411,194.051923 1034.54675,194.6907 1032.28686,194.6907 C1030.02698,194.6907 1028.25838,192.995784 1026.26874,190.367491 C1024.2791,187.739198 1023.3948,184.914339 1023.3948,184.914339 C1023.28502,184.560768 1023.54933,184.202005 1023.91959,184.202005 L1026.27245,184.202005 C1026.71997,184.202005 1027.12757,184.460631 1027.31523,184.866867 C1027.50784,185.283858 1027.83916,185.927333 1028.40586,186.879378 C1029.21005,188.230365 1029.98259,188.838977 1030.42023,189.098097 C1030.58317,189.194649 1030.78864,189.07535 1030.78864,188.885955 L1030.78864,185.645465 C1030.78864,185.221427 1030.63546,184.81173 1030.35718,184.491785 L1030.02549,184.110398 C1029.9397,184.011744 1030.00979,183.858077 1030.14046,183.858077 L1033.85902,183.858077 C1034.42881,183.858077 1034.89068,184.319945 1034.89068,184.889738 L1034.89068,188.658235 C1034.89068,188.901037 1035.2058,188.995982 1035.33993,188.79373 L1038.01632,184.760178 C1038.22735,184.442211 1038.58364,184.250961 1038.96515,184.250961 L1042.10686,184.250961 C1042.53622,184.250961 1042.79731,184.723831 1042.56873,185.087292 L1039.78875,189.505817 C1039.54953,189.886214 1039.58761,190.378247 1039.88258,190.71723 Z" id="vk"></path>
            </g>
        </g>
    </g>
</svg>