<?xml version="1.0" encoding="iso-8859-1"?>
<!-- Generator: Adobe Illustrator 19.0.0, SVG Export Plug-In . SVG Version: 6.00 Build 0)  -->
<svg version="1.1" id="Layer_1" xmlns="http://www.w3.org/2000/svg" xmlns:xlink="http://www.w3.org/1999/xlink" x="0px" y="0px"
	 viewBox="0 0 512 512" style="enable-background:new 0 0 512 512;" xml:space="preserve">
<path style="fill:#F5F5F5;" d="M512,130.207H0V97.103c0-4.875,3.953-8.828,8.828-8.828h494.345c4.875,0,8.828,3.953,8.828,8.828
	V130.207z"/>
<rect y="130.207" style="fill:#FF4B55;" width="512" height="41.931"/>
<rect y="172.138" style="fill:#41479B;" width="512" height="41.931"/>
<rect y="214.069" style="fill:#F5F5F5;" width="512" height="41.931"/>
<polygon style="fill:#FF4B55;" points="512,297.931 0,297.931 0,247.172 11.034,247.172 11.034,256 512,256 "/>
<rect y="339.862" style="fill:#F5F5F5;" width="512" height="41.931"/>
<path style="fill:#FF4B55;" d="M503.172,423.724H8.828c-4.875,0-8.828-3.953-8.828-8.828v-33.103h512v33.103
	C512,419.772,508.047,423.724,503.172,423.724z"/>
<g>
	<rect y="297.931" style="fill:#41479B;" width="512" height="41.931"/>
	<path style="fill:#41479B;" d="M247.172,256H8.828C3.953,256,0,252.047,0,247.172V97.103c0-4.875,3.953-8.828,8.828-8.828h238.345
		c4.875,0,8.828,3.953,8.828,8.828v150.069C256,252.047,252.047,256,247.172,256z"/>
</g>
<path style="fill:#F5F5F5;" d="M247.172,88.276h-15.334l-81.77,53.574V88.276h-44.138v53.574l-81.77-53.574H8.828
	C3.953,88.276,0,92.228,0,97.103v7.002l70.155,45.963H0v44.138h70.155L0,240.17v7.002C0,252.047,3.953,256,8.828,256h15.334
	l81.77-53.574V256h44.138v-53.574L231.839,256h15.334c4.875,0,8.828-3.953,8.828-8.828v-7.002l-70.155-45.963H256v-44.138h-70.155
	L256,104.106v-7.002C256,92.228,252.047,88.276,247.172,88.276z"/>
<g>
	<polygon style="fill:#FF4B55;" points="256,158.897 141.241,158.897 141.241,88.276 114.759,88.276 114.759,158.897 0,158.897 
		0,185.379 114.759,185.379 114.759,256 141.241,256 141.241,185.379 256,185.379 	"/>
	<path style="fill:#FF4B55;" d="M97.103,150.069L4.207,89.768C1.735,91.332,0,93.961,0,97.103v0.458l80.889,52.508H97.103z"/>
	<path style="fill:#FF4B55;" d="M166.283,150.069l88.374-57.366c-1.536-2.599-4.246-4.427-7.485-4.427h-1.909l-95.194,61.793
		H166.283z"/>
	<path style="fill:#FF4B55;" d="M89.474,194.207L1.269,251.463C2.79,254.125,5.542,256,8.828,256h1.665l95.196-61.793H89.474z"/>
	<path style="fill:#FF4B55;" d="M255.86,247.865l-82.666-53.658H156.98l93.874,60.935
		C253.666,253.837,255.595,251.102,255.86,247.865z"/>
</g>
<g>
</g>
<g>
</g>
<g>
</g>
<g>
</g>
<g>
</g>
<g>
</g>
<g>
</g>
<g>
</g>
<g>
</g>
<g>
</g>
<g>
</g>
<g>
</g>
<g>
</g>
<g>
</g>
<g>
</g>
</svg>
