<?xml version="1.0" encoding="iso-8859-1"?>
<!-- Generator: Adobe Illustrator 19.0.0, SVG Export Plug-In . SVG Version: 6.00 Build 0)  -->
<svg version="1.1" id="Layer_1" xmlns="http://www.w3.org/2000/svg" xmlns:xlink="http://www.w3.org/1999/xlink" x="0px" y="0px"
	 viewBox="0 0 512 512" style="enable-background:new 0 0 512 512;" xml:space="preserve">
<path style="fill:#41479B;" d="M341.333,88.276h161.839c4.875,0,8.828,3.953,8.828,8.828v317.793c0,4.875-3.953,8.828-8.828,8.828
	H341.333V88.276z"/>
<rect x="170.67" y="88.276" style="fill:#FFE15A;" width="170.67" height="335.448"/>
<path style="fill:#41479B;" d="M8.828,88.276h161.839v335.448H8.828c-4.875,0-8.828-3.953-8.828-8.828V97.103
	C0,92.228,3.953,88.276,8.828,88.276z"/>
<polygon style="fill:#FF4B55;" points="300.138,233.931 278.069,233.931 278.069,211.862 291.31,194.207 278.069,194.207 
	233.931,194.207 220.69,194.207 233.931,211.862 233.931,233.931 211.862,233.931 194.207,220.69 194.207,233.931 194.207,278.069 
	194.207,291.31 211.862,278.069 233.931,278.069 233.931,300.138 220.69,317.793 233.931,317.793 278.069,317.793 291.31,317.793 
	278.069,300.138 278.069,278.069 300.138,278.069 317.793,291.31 317.793,278.069 317.793,233.931 317.793,220.69 "/>
<polygon style="fill:#F5F5F5;" points="300.138,247.172 264.828,247.172 264.828,211.862 247.172,211.862 247.172,247.172 
	211.862,247.172 211.862,264.828 247.172,264.828 247.172,300.138 264.828,300.138 264.828,264.828 300.138,264.828 "/>
<g>
</g>
<g>
</g>
<g>
</g>
<g>
</g>
<g>
</g>
<g>
</g>
<g>
</g>
<g>
</g>
<g>
</g>
<g>
</g>
<g>
</g>
<g>
</g>
<g>
</g>
<g>
</g>
<g>
</g>
</svg>
