<?xml version="1.0" encoding="iso-8859-1"?>
<!-- Generator: Adobe Illustrator 19.0.0, SVG Export Plug-In . SVG Version: 6.00 Build 0)  -->
<svg version="1.1" id="Layer_1" xmlns="http://www.w3.org/2000/svg" xmlns:xlink="http://www.w3.org/1999/xlink" x="0px" y="0px"
	 viewBox="0 0 512 512" style="enable-background:new 0 0 512 512;" xml:space="preserve">
<rect x="114.758" y="88.276" style="fill:#FFE15A;" width="282.482" height="335.448"/>
<path style="fill:#73AF00;" d="M503.172,423.724H397.242V88.276h105.931c4.875,0,8.828,3.953,8.828,8.828v317.792
	C512,419.772,508.047,423.724,503.172,423.724z"/>
<path style="fill:#4173CD;" d="M8.828,88.276h105.931v335.448H8.828c-4.875,0-8.828-3.953-8.828-8.828V97.104
	C0,92.229,3.953,88.276,8.828,88.276z"/>
<g>
	<polygon style="fill:#73AF00;" points="191.886,251.478 220.521,308.749 249.157,251.478 220.521,194.207 	"/>
	<polygon style="fill:#73AF00;" points="262.843,251.478 291.479,308.749 320.114,251.478 291.479,194.207 	"/>
	<polygon style="fill:#73AF00;" points="227.364,320.33 255.999,377.6 284.635,320.33 255.999,263.059 	"/>
</g>
<g>
</g>
<g>
</g>
<g>
</g>
<g>
</g>
<g>
</g>
<g>
</g>
<g>
</g>
<g>
</g>
<g>
</g>
<g>
</g>
<g>
</g>
<g>
</g>
<g>
</g>
<g>
</g>
<g>
</g>
</svg>
