<?xml version="1.0" encoding="iso-8859-1"?>
<!-- Generator: Adobe Illustrator 19.0.0, SVG Export Plug-In . SVG Version: 6.00 Build 0)  -->
<svg version="1.1" id="Layer_1" xmlns="http://www.w3.org/2000/svg" xmlns:xlink="http://www.w3.org/1999/xlink" x="0px" y="0px"
	 viewBox="0 0 512 512" style="enable-background:new 0 0 512 512;" xml:space="preserve">
<path style="fill:#82AFFF;" d="M503.172,423.724H8.828c-4.875,0-8.828-3.953-8.828-8.828V97.103c0-4.875,3.953-8.828,8.828-8.828
	h494.345c4.875,0,8.828,3.953,8.828,8.828v317.793C512,419.772,508.047,423.724,503.172,423.724z"/>
<path style="fill:#41479B;" d="M247.172,256H8.828C3.953,256,0,252.047,0,247.172V97.103c0-4.875,3.953-8.828,8.828-8.828h238.345
	c4.875,0,8.828,3.953,8.828,8.828v150.069C256,252.047,252.047,256,247.172,256z"/>
<path style="fill:#F5F5F5;" d="M247.172,88.276h-15.334l-81.77,53.574V88.276h-44.138v53.574l-81.77-53.574H8.828
	C3.953,88.276,0,92.228,0,97.103v7.002l70.155,45.963H0v44.138h70.155L0,240.17v7.002C0,252.047,3.953,256,8.828,256h15.334
	l81.77-53.574V256h44.138v-53.574L231.839,256h15.334c4.875,0,8.828-3.953,8.828-8.828v-7.002l-70.155-45.963H256v-44.138h-70.155
	L256,104.106v-7.002C256,92.228,252.047,88.276,247.172,88.276z"/>
<g>
	<polygon style="fill:#FF4B55;" points="256,158.897 141.241,158.897 141.241,88.276 114.759,88.276 114.759,158.897 0,158.897 
		0,185.379 114.759,185.379 114.759,256 141.241,256 141.241,185.379 256,185.379 	"/>
	<path style="fill:#FF4B55;" d="M97.103,150.069L4.207,89.768C1.735,91.332,0,93.961,0,97.103v0.458l80.889,52.508H97.103z"/>
	<path style="fill:#FF4B55;" d="M166.283,150.069l88.374-57.366c-1.536-2.599-4.246-4.427-7.485-4.427h-1.909l-95.194,61.793
		H166.283z"/>
	<path style="fill:#FF4B55;" d="M89.474,194.207L1.269,251.463C2.79,254.125,5.542,256,8.828,256h1.665l95.196-61.793H89.474z"/>
	<path style="fill:#FF4B55;" d="M255.86,247.865l-82.666-53.658H156.98l93.874,60.935
		C253.666,253.837,255.595,251.102,255.86,247.865z"/>
</g>
<g>
	<path style="fill:#FFE15A;" d="M218.666,353.363l-4.726,14.169l-14.936,0.116c-1.432,0.011-2.026,1.839-0.874,2.69l12.015,8.873
		l-4.505,14.241c-0.433,1.366,1.123,2.495,2.289,1.663l12.152-8.685l12.152,8.685c1.165,0.833,2.72-0.297,2.289-1.663l-4.505-14.241
		l12.015-8.873c1.152-0.851,0.558-2.679-0.874-2.69l-14.936-0.116l-4.726-14.169C221.042,352.003,219.119,352.003,218.666,353.363z"
		/>
	<path style="fill:#FFE15A;" d="M448.735,243.018l-4.726,14.169l-14.936,0.116c-1.432,0.011-2.026,1.839-0.874,2.69l12.015,8.873
		l-4.505,14.241c-0.433,1.366,1.123,2.495,2.289,1.663l12.152-8.685l12.152,8.685c1.165,0.833,2.72-0.297,2.289-1.663l-4.505-14.241
		l12.015-8.873c1.152-0.851,0.558-2.679-0.874-2.69l-14.936-0.116l-4.726-14.169C451.111,241.658,449.188,241.658,448.735,243.018z"
		/>
	<path style="fill:#FFE15A;" d="M448.735,123.846l-4.726,14.169l-14.936,0.116c-1.432,0.011-2.026,1.839-0.874,2.69l12.015,8.873
		l-4.505,14.241c-0.433,1.366,1.123,2.495,2.289,1.663l12.152-8.685l12.152,8.685c1.165,0.833,2.72-0.297,2.289-1.663l-4.505-14.241
		l12.015-8.873c1.152-0.851,0.558-2.679-0.874-2.69l-14.936-0.116l-4.726-14.169C451.111,122.486,449.188,122.486,448.735,123.846z"
		/>
	<path style="fill:#FFE15A;" d="M277.812,278.816l4.665,14.189l-11.915,9.007c-1.142,0.864-0.529,2.685,0.904,2.68l14.936-0.052
		l4.885,14.115c0.469,1.354,2.39,1.332,2.828-0.032l4.566-14.222l14.934-0.284c1.432-0.028,2.005-1.862,0.844-2.699l-12.115-8.738
		l4.345-14.291c0.417-1.37-1.151-2.483-2.306-1.636l-12.053,8.822l-12.248-8.548C278.906,276.308,277.364,277.455,277.812,278.816z"
		/>
	<path style="fill:#FFE15A;" d="M276.708,340.057l4.665,14.189l-11.915,9.007c-1.142,0.864-0.529,2.685,0.904,2.68l14.936-0.052
		l4.885,14.115c0.469,1.354,2.39,1.332,2.828-0.032l4.566-14.222l14.934-0.284c1.432-0.028,2.005-1.862,0.844-2.699l-12.115-8.738
		l4.345-14.291c0.417-1.37-1.151-2.483-2.306-1.636l-12.053,8.822l-12.248-8.548C277.803,337.549,276.26,338.697,276.708,340.057z"
		/>
	<path style="fill:#FFE15A;" d="M341.26,324.609l4.665,14.189l-11.915,9.007c-1.142,0.864-0.529,2.685,0.904,2.68l14.936-0.052
		l4.885,14.115c0.469,1.354,2.39,1.332,2.828-0.032l4.566-14.222l14.934-0.284c1.432-0.028,2.005-1.862,0.844-2.699l-12.115-8.737
		l4.345-14.291c0.417-1.371-1.151-2.483-2.306-1.636l-12.053,8.822l-12.248-8.548C342.355,322.101,340.812,323.249,341.26,324.609z"
		/>
	<path style="fill:#FFE15A;" d="M340.157,191.092l4.665,14.189l-11.915,9.007c-1.142,0.864-0.529,2.685,0.904,2.68l14.936-0.052
		l4.885,14.115c0.469,1.354,2.39,1.332,2.828-0.032l4.566-14.222l14.934-0.284c1.432-0.028,2.005-1.862,0.844-2.699l-12.115-8.737
		l4.345-14.291c0.417-1.37-1.151-2.483-2.306-1.636l-12.053,8.822l-12.248-8.548C341.251,188.584,339.709,189.731,340.157,191.092z"
		/>
	<path style="fill:#FFE15A;" d="M394.777,172.885l4.665,14.189l-11.915,9.007c-1.142,0.864-0.529,2.685,0.904,2.68l14.936-0.052
		l4.885,14.115c0.469,1.354,2.39,1.332,2.828-0.032l4.566-14.222l14.934-0.284c1.432-0.028,2.005-1.862,0.844-2.699l-12.115-8.738
		l4.345-14.291c0.417-1.37-1.151-2.483-2.306-1.636l-12.053,8.822l-12.248-8.548C395.872,170.377,394.329,171.524,394.777,172.885z"
		/>
</g>
<g>
</g>
<g>
</g>
<g>
</g>
<g>
</g>
<g>
</g>
<g>
</g>
<g>
</g>
<g>
</g>
<g>
</g>
<g>
</g>
<g>
</g>
<g>
</g>
<g>
</g>
<g>
</g>
<g>
</g>
</svg>
